<svg id="Layer_1" data-name="Layer 1" xmlns="http://www.w3.org/2000/svg" viewBox="0 0 436.22 83.77"><defs><style>.cls-1{fill:#2064a9;}.cls-1,.cls-2{fill-rule:evenodd;}.cls-2{fill:#fff;}</style></defs><title>logo_pdm</title><path class="cls-1" d="M30.08,7.22a39.06,39.06,0,0,1,20.64-.77c.37.19.62.42.62.69.15,4.49-21.07,8.61-25.25,8.89,4.2.42,29.33-2.48,30-7.92A39.76,39.76,0,0,1,69.52,16.8c2.71,14.3-40.66,24.68-51.09,23.29C30.88,43.42,68,39.37,74.32,22.53A39.25,39.25,0,0,1,79.41,33c.27.87.5,1.74.72,2.61-.48,15.52-36.94,26.53-49,25,14.26,4,42.49-2.9,50.07-16.8a39.08,39.08,0,0,1-2.06,13.55c-2.37,7.32-23.38,21-35.35,19.27,8.35,2.48,21-1,29.62-8.33A39,39,0,0,1,53.66,82.3,39.35,39.35,0,1,1,30.08,7.22" transform="translate(-2.52 -2.58)"/><path class="cls-2" d="M128.46,45.21h28.13c4.58,0,7.35-.1,8.29-.18,3.3-.25,5.41-1.44,6.31-3.6q.87-2,.87-7.18c0-3.24-.33-5.53-1-6.82-1-1.95-3-3-6.11-3.22-1-.08-3.77-.17-8.38-.25H128.46M106,86.35V3.18h50.6q15,0,19.35.67,11.91,1.77,15.81,9.56c1.94,3.91,2.92,10.86,2.92,20.9q0,15.42-3.2,21.63a16.29,16.29,0,0,1-10,8.09,51.13,51.13,0,0,1-13.8,1.9c-2.61,0-6.22.06-10.88.06H128.46V86.35Z" transform="translate(-2.52 -2.58)"/><path class="cls-2" d="M315.53,3.62h31.6l18,56.87L385.35,3.62h31.39l13,71.07c.55,3,.78,5.1,3.75,6.94a9.37,9.37,0,0,0,4.94,1.25,27.78,27.78,0,0,0,.35,3h-32.2L398.67,27.1,379.41,85.86H349.63L332.85,27.32,321.93,85.86H297" transform="translate(-2.52 -2.58)"/><path class="cls-2" d="M222.48,65H254a89.21,89.21,0,0,0,14.34-.85c3.52-.65,5.73-2.85,6.64-6.56.69-2.7,1.05-7,1.05-12.78,0-6.2-.38-10.77-1.1-13.68-.86-3.64-2.87-5.84-6-6.62q-3.72-1-15.14-1H222.48m-22.34,55.9V2.58h53.68q17.49,0,22.6.67Q286.35,4.54,291,9.1q5,4.89,6.58,15.81a148.36,148.36,0,0,1,.76,18.25q0,16.62-1.3,23.12c-1.21,5.89-3.16,10.23-5.89,13a17.66,17.66,0,0,1-6.76,4.36,45.8,45.8,0,0,1-10.73,2.16q-5.35.52-19.82.54H200.14Z" transform="translate(-2.52 -2.58)"/></svg>