<svg id="Layer_1" data-name="Layer 1" xmlns="http://www.w3.org/2000/svg" viewBox="0 0 639.06 129.8"><defs><style>.cls-1,.cls-2{fill:#629ed5;}.cls-2{fill-rule:evenodd;}</style></defs><title>Go4mobility</title><circle class="cls-1" cx="58.09" cy="63.17" r="30.15" transform="translate(-44.44 73.53) rotate(-77.04)"/><path class="cls-1" d="M58.09,63.17" transform="translate(-27.95 -32.09)"/><circle class="cls-1" cx="125.31" cy="63.17" r="30.15" transform="translate(-37.99 68.12) rotate(-42.06)"/><path class="cls-1" d="M125.31,63.17" transform="translate(-27.95 -32.09)"/><circle class="cls-1" cx="30.15" cy="99.65" r="30.15"/><path class="cls-1" d="M58.09,131.74" transform="translate(-27.95 -32.09)"/><polygon class="cls-1" points="138.2 0.93 161.84 0.93 161.84 61.22 138.2 61.22 138.2 0.93 138.2 0.93"/><path class="cls-1" d="M178,63.17" transform="translate(-27.95 -32.09)"/><polygon class="cls-1" points="167.04 0.93 190.68 0.93 190.68 61.22 167.04 61.22 167.04 0.93 167.04 0.93"/><path class="cls-1" d="M206.81,63.17" transform="translate(-27.95 -32.09)"/><polygon class="cls-1" points="195.88 0.93 219.52 0.93 219.52 61.22 195.88 61.22 195.88 0.93 195.88 0.93"/><path class="cls-1" d="M235.65,63.17" transform="translate(-27.95 -32.09)"/><polygon class="cls-1" points="224.73 0.93 248.37 0.93 248.37 61.22 224.73 61.22 224.73 0.93 224.73 0.93"/><path class="cls-1" d="M264.5,63.17" transform="translate(-27.95 -32.09)"/><polygon class="cls-2" points="314.14 20.63 314.14 61.27 322.77 61.27 322.77 0.86 316.73 0.86 293.43 37.72 270.13 0.86 264.08 0.86 264.08 61.27 272.71 61.27 272.71 20.63 290.41 48.33 296.45 48.33 314.14 20.63"/><path class="cls-2" d="M361.5,63.16c0,17.61,13.12,31.07,30.21,31.07s30.21-13.46,30.21-31.07S408.8,32.09,391.71,32.09,361.5,45.56,361.5,63.16Zm8.63,0c0-13,9.24-22.87,21.58-22.87s21.57,9.84,21.57,22.87S404.05,86,391.71,86,370.13,76.28,370.13,63.16Z" transform="translate(-27.95 -32.09)"/><path class="cls-2" d="M441.33,85.17V64.89h13.12c5.44,0,8,1.21,9.92,3.1a10.07,10.07,0,0,1,2.85,7,10.25,10.25,0,0,1-2.85,7.08c-1.89,1.9-4.48,3.11-9.92,3.11Zm0-28.48V41.15h10.36c4.83,0,6.9,1,8.28,2.51a7.73,7.73,0,0,1,0,10.53c-1.38,1.55-3.45,2.5-8.28,2.5ZM456,93.37c6.13,0,10.1-1.47,13.21-4.06a17.83,17.83,0,0,0-3.28-29.86,15,15,0,0,0,4.74-10.79,15.56,15.56,0,0,0-5-11.48C462.82,34.6,459.11,33,453.24,33H432.7V93.37Z" transform="translate(-27.95 -32.09)"/><rect class="cls-1" x="458.69" y="0.86" width="8.63" height="60.41"/><polygon class="cls-2" points="491.49 0.86 482.86 0.86 482.86 61.27 518.24 61.27 518.24 53.08 491.49 53.08 491.49 0.86"/><rect class="cls-1" x="527.73" y="0.86" width="8.63" height="60.41"/><polygon class="cls-2" points="545.42 9.06 561.82 9.06 561.82 61.27 570.45 61.27 570.45 9.06 586.85 9.06 586.85 0.86 545.42 0.86 545.42 9.06"/><polygon class="cls-2" points="639.06 0.86 629.39 0.86 614.03 25.11 598.67 0.86 589 0.86 609.72 33.66 609.72 61.27 618.35 61.27 618.35 33.66 639.06 0.86"/></svg>