<svg id="Layer_1" data-name="Layer 1" xmlns="http://www.w3.org/2000/svg" viewBox="0 0 387.41 106.83"><defs><style>.cls-1,.cls-2{fill:#db510f;}.cls-2{fill-rule:evenodd;}</style></defs><title>go4digital-logo</title><path class="cls-1" d="M41.86,62.53A20.37,20.37,0,1,1,62.23,82.9,20.37,20.37,0,0,1,41.86,62.53Z" transform="translate(-41.86 -41.57)"/><path class="cls-1" d="M87.27,62.53A20.37,20.37,0,1,1,107.64,82.9,20.37,20.37,0,0,1,87.27,62.53Z" transform="translate(-41.86 -41.57)"/><path class="cls-1" d="M41.86,108.87a20.37,20.37,0,1,1,20.37,20.37A20.37,20.37,0,0,1,41.86,108.87Z" transform="translate(-41.86 -41.57)"/><rect class="cls-1" x="93.38" y="0.59" width="15.97" height="40.74"/><rect class="cls-1" x="112.87" y="0.59" width="15.97" height="40.74"/><rect class="cls-1" x="132.36" y="0.59" width="15.97" height="40.74"/><rect class="cls-1" x="151.85" y="0.59" width="15.97" height="40.74"/><path class="cls-2" d="M232.53,82.9c6.46,0,10.71-1.39,14-3.84A20.89,20.89,0,0,0,246.5,46c-3.32-2.45-7.51-3.84-14-3.84H220.3V82.9Zm16.3-20.37a15.21,15.21,0,0,1-5,11.41c-2.56,2.21-5.94,3.43-11.64,3.43h-6.12V47.69h6.12c5.7,0,9.08,1.22,11.64,3.43A15.21,15.21,0,0,1,248.83,62.53Z" transform="translate(-41.86 -41.57)"/><rect class="cls-1" x="220.06" y="0.58" width="5.82" height="40.75"/><path class="cls-2" d="M312,58.16H294.52v5.53h11.64V74.17a14.18,14.18,0,0,1-10,3.78c-8.67,0-15.31-6.22-15.31-15.42,0-8.79,6.46-15.43,14.78-15.43a15.48,15.48,0,0,1,11,4.6l3.9-3.84a20.31,20.31,0,0,0-14.91-6.29c-11.75,0-20.6,9.2-20.6,21,0,12,9,21,21.13,21A20.72,20.72,0,0,0,312,75.92Z" transform="translate(-41.86 -41.57)"/><rect class="cls-1" x="279.14" y="0.58" width="5.82" height="40.75"/><polygon class="cls-2" points="291.08 6.11 302.14 6.11 302.14 41.33 307.96 41.33 307.96 6.11 319.02 6.11 319.02 0.58 291.08 0.58 291.08 6.11"/><path class="cls-2" d="M381,51.76l6.28,15.14H374.67ZM393.82,82.9h6.05L383,42.16h-4.07L362,82.9h6l4.25-10.48h17.17Z" transform="translate(-41.86 -41.57)"/><polygon class="cls-2" points="369.37 0.58 363.55 0.58 363.55 41.33 387.41 41.33 387.41 35.8 369.37 35.8 369.37 0.58"/><path class="cls-2" d="M308.52,140a2.85,2.85,0,0,1-2.34,1.21,2.66,2.66,0,0,1-.06-5.32,3,3,0,0,1,2.4,1.2Zm2.61-6.31h-2.51v.78a4.45,4.45,0,0,0-2.84-1,4.89,4.89,0,0,0-4.78,5.08,5.23,5.23,0,0,0,1.23,3.41,4.93,4.93,0,0,0,3.69,1.64,4.09,4.09,0,0,0,2.6-.88V143a3.14,3.14,0,0,1-.6,2.29,2.5,2.5,0,0,1-2,.78,3.9,3.9,0,0,1-3-1.41l-1.65,1.71a6.42,6.42,0,0,0,4.68,2,5.19,5.19,0,0,0,4.31-1.95,5.91,5.91,0,0,0,.88-3.61Z" transform="translate(-41.86 -41.57)"/><path class="cls-2" d="M315.94,138.54a2.57,2.57,0,1,1,2.57,2.65A2.56,2.56,0,0,1,315.94,138.54Zm-2.6,0a5.18,5.18,0,1,0,5.17-5.08A5,5,0,0,0,313.34,138.54Z" transform="translate(-41.86 -41.57)"/><path class="cls-2" d="M328.68,137.78l2.63-3.29v3.29Zm3.43-8.43-7.32,9.23v1.6h6.52v3.21H334v-3.21h2.31v-2.4H334v-8.43Z" transform="translate(-41.86 -41.57)"/><path class="cls-2" d="M347.55,143.39V129.15h-2.61v5.22a4.32,4.32,0,0,0-2.75-.91,4.89,4.89,0,0,0-4.77,5.08,5.19,5.19,0,0,0,1.25,3.41,4.88,4.88,0,0,0,3.67,1.64,4.06,4.06,0,0,0,2.7-1v.78ZM344.94,140a2.85,2.85,0,0,1-2.34,1.21,2.66,2.66,0,0,1-.06-5.32,3,3,0,0,1,2.4,1.2Z" transform="translate(-41.86 -41.57)"/><path class="cls-2" d="M350.16,130.22a1.71,1.71,0,1,0,1.7-1.67A1.66,1.66,0,0,0,350.16,130.22Zm3,3.45h-2.6v9.72h2.6Z" transform="translate(-41.86 -41.57)"/><path class="cls-2" d="M362.89,140a2.85,2.85,0,0,1-2.35,1.21,2.66,2.66,0,0,1-.06-5.32,3,3,0,0,1,2.41,1.2Zm2.61-6.31H363v.78a4.46,4.46,0,0,0-2.85-1,4.89,4.89,0,0,0-4.77,5.08,5.22,5.22,0,0,0,1.22,3.41,5,5,0,0,0,3.69,1.64,4.1,4.1,0,0,0,2.61-.88V143a3.14,3.14,0,0,1-.6,2.29,2.51,2.51,0,0,1-2,.78,3.89,3.89,0,0,1-3-1.41l-1.65,1.71a6.39,6.39,0,0,0,4.67,2,5.21,5.21,0,0,0,4.32-1.95,5.91,5.91,0,0,0,.88-3.61Z" transform="translate(-41.86 -41.57)"/><path class="cls-2" d="M368.1,130.22a1.71,1.71,0,1,0,1.71-1.67A1.67,1.67,0,0,0,368.1,130.22Zm3,3.45h-2.6v9.72h2.6Z" transform="translate(-41.86 -41.57)"/><path class="cls-2" d="M381,141.19a6.34,6.34,0,0,1-1.06.1,1.63,1.63,0,0,1-1.33-.49,1.79,1.79,0,0,1-.32-1.22v-3.71h3.21v-2.2h-3.21V131h-2.6v2.71H373v2.2h2.71v3.41a4.58,4.58,0,0,0,.72,2.91,4,4,0,0,0,3.37,1.4,6.4,6.4,0,0,0,1.62-.2Z" transform="translate(-41.86 -41.57)"/><path class="cls-2" d="M393.37,133.67h-2.5v.78a4.5,4.5,0,0,0-2.85-1,4.88,4.88,0,0,0-4.77,5.08,5.23,5.23,0,0,0,1.24,3.41,4.88,4.88,0,0,0,3.67,1.64,4.1,4.1,0,0,0,2.71-1v.78h2.5Zm-2.6,6.31a2.88,2.88,0,0,1-2.35,1.21,2.66,2.66,0,0,1-.06-5.32,3,3,0,0,1,2.41,1.2Z" transform="translate(-41.86 -41.57)"/><rect class="cls-1" x="354.52" y="87.58" width="2.61" height="14.24"/><path class="cls-2" d="M402.7,141.85a1.72,1.72,0,0,0,1.74,1.74,1.74,1.74,0,0,0,1.77-1.74,1.76,1.76,0,0,0-1.77-1.77A1.74,1.74,0,0,0,402.7,141.85Z" transform="translate(-41.86 -41.57)"/><path class="cls-2" d="M412.12,137.07a3,3,0,0,1,2.41-1.2,2.66,2.66,0,0,1-.06,5.32,2.87,2.87,0,0,1-2.35-1.21Zm-2.6,11.13h2.6v-5.49a4.14,4.14,0,0,0,2.61.88,4.94,4.94,0,0,0,3.69-1.64,5.22,5.22,0,0,0,1.22-3.41,4.88,4.88,0,0,0-4.77-5.08,4.48,4.48,0,0,0-2.85,1v-.78h-2.5Z" transform="translate(-41.86 -41.57)"/><path class="cls-2" d="M428.77,141.19a6.36,6.36,0,0,1-1.07.1,1.62,1.62,0,0,1-1.32-.49,1.79,1.79,0,0,1-.32-1.22v-3.71h3.21v-2.2h-3.21V131h-2.61v2.71h-2.7v2.2h2.7v3.41a4.58,4.58,0,0,0,.72,2.91,4,4,0,0,0,3.37,1.4,6.42,6.42,0,0,0,1.63-.2Z" transform="translate(-41.86 -41.57)"/></svg>