<svg id="Layer_1" data-name="Layer 1" xmlns="http://www.w3.org/2000/svg" viewBox="0 0 808.14 169.43"><defs><style>.cls-1{fill:#c10a27;}.cls-2{fill:#dc0814;}.cls-3{fill:#c31a21;}</style></defs><title>Apps4Mobility_logo</title><path class="cls-1" d="M114.76,224c-4.65-9.95-18.61-12.5-27.5-7.37-10.11,5.83-12,17.57-7.37,27.49l60.54,129.41c4.66,9.95,18.61,12.5,27.5,7.37,10.11-5.84,12-17.57,7.37-27.5Z" transform="translate(-17.23 -214.06)"/><path class="cls-1" d="M235.31,224c-4.65-9.95-18.61-12.5-27.5-7.37-10.11,5.83-12,17.57-7.37,27.49Q230.71,308.84,261,373.54c4.65,9.95,18.6,12.5,27.49,7.37,10.11-5.84,12-17.57,7.37-27.5Z" transform="translate(-17.23 -214.06)"/><path class="cls-1" d="M416.4,353.41Q386.13,288.7,355.86,224c-4.65-9.95-18.61-12.5-27.5-7.37-10.1,5.83-12,17.57-7.36,27.49q30.25,64.71,60.54,129.41c4.65,9.95,18.6,12.5,27.49,7.37C419.14,375.07,421.05,363.34,416.4,353.41Z" transform="translate(-17.23 -214.06)"/><path class="cls-2" d="M107.67,216.64c-8.89-5.13-22.84-2.58-27.5,7.37Q49.9,288.71,19.64,353.41c-4.65,9.93-2.75,21.66,7.36,27.5,8.89,5.13,22.85,2.58,27.5-7.37L115,244.13C119.68,234.21,117.78,222.47,107.67,216.64Z" transform="translate(-17.23 -214.06)"/><path class="cls-2" d="M228.22,216.64c-8.88-5.13-22.84-2.58-27.5,7.37q-30.27,64.69-60.53,129.4c-4.65,9.93-2.75,21.66,7.36,27.5,8.89,5.13,22.85,2.58,27.5-7.37l60.54-129.41C240.24,234.21,238.33,222.47,228.22,216.64Z" transform="translate(-17.23 -214.06)"/><path class="cls-2" d="M348.77,216.64c-8.88-5.13-22.84-2.58-27.49,7.37Q291,288.71,260.74,353.41c-4.65,9.93-2.74,21.66,7.37,27.5,8.88,5.13,22.84,2.58,27.5-7.37q30.25-64.71,60.53-129.41C360.79,234.21,358.88,222.47,348.77,216.64Z" transform="translate(-17.23 -214.06)"/><path class="cls-2" d="M469.33,216.64c-8.89-5.13-22.85-2.58-27.5,7.37q-30.29,64.69-60.54,129.4c-4.65,9.93-2.74,21.66,7.37,27.5,8.88,5.13,22.84,2.58,27.49-7.37q30.28-64.71,60.54-129.41C481.34,234.21,479.44,222.47,469.33,216.64Z" transform="translate(-17.23 -214.06)"/><path class="cls-3" d="M506.72,306.73l-1.44,5.18h-4.74l6.18-20.18h6L519,311.91h-4.91l-1.56-5.18Zm5.12-3.41L510.58,299c-.36-1.2-.71-2.7-1-3.9h-.06c-.3,1.2-.6,2.73-.92,3.9l-1.2,4.28Z" transform="translate(-17.23 -214.06)"/><path class="cls-3" d="M530.69,292a37.29,37.29,0,0,1,6.17-.42c2.82,0,4.82.54,6.17,1.62a5.9,5.9,0,0,1,2.15,4.67,6.43,6.43,0,0,1-1.85,4.79,9.37,9.37,0,0,1-6.56,2.13,11.51,11.51,0,0,1-1.56-.09v7.21h-4.52Zm4.52,9.17a7.8,7.8,0,0,0,1.53.11c2.43,0,3.92-1.22,3.92-3.29,0-1.86-1.28-3-3.56-3a7.79,7.79,0,0,0-1.89.18Z" transform="translate(-17.23 -214.06)"/><path class="cls-3" d="M557.12,292a37.38,37.38,0,0,1,6.17-.42c2.82,0,4.82.54,6.17,1.62a5.9,5.9,0,0,1,2.15,4.67,6.47,6.47,0,0,1-1.85,4.79,9.37,9.37,0,0,1-6.56,2.13,11.51,11.51,0,0,1-1.56-.09v7.21h-4.52Zm4.52,9.17a7.8,7.8,0,0,0,1.53.11c2.43,0,3.92-1.22,3.92-3.29,0-1.86-1.29-3-3.56-3a7.72,7.72,0,0,0-1.89.18Z" transform="translate(-17.23 -214.06)"/><path class="cls-3" d="M583.7,307.22a11.68,11.68,0,0,0,5,1.26c2.1,0,3.21-.88,3.21-2.19s-1-2-3.39-2.85c-3.35-1.16-5.53-3-5.53-6,0-3.45,2.87-6.08,7.63-6.08a12.37,12.37,0,0,1,5.15,1l-1,3.68a9.66,9.66,0,0,0-4.22-1c-2,0-2.94.9-2.94,1.95,0,1.28,1.14,1.86,3.75,2.85,3.57,1.31,5.24,3.17,5.24,6,0,3.39-2.6,6.26-8.14,6.26a13.16,13.16,0,0,1-5.72-1.22Z" transform="translate(-17.23 -214.06)"/><path class="cls-3" d="M615.07,301.9v-4h-7.36v-2.53L614,285.3h4.75V295h2v2.91h-2v4Zm0-6.87v-3.68c0-1,0-2,.13-3.09h-.1c-.54,1.07-1,2-1.53,3.09L611.34,295V295Z" transform="translate(-17.23 -214.06)"/><path class="cls-3" d="M649.51,304.19c-.09-2.43-.18-5.36-.18-8.3h-.09c-.63,2.58-1.47,5.45-2.25,7.82l-2.46,7.88H641l-2.17-7.82c-.66-2.37-1.35-5.24-1.82-7.88h-.06c-.13,2.73-.21,5.84-.36,8.36l-.36,7.66H632l1.29-20.18h6.08l2,6.74c.63,2.34,1.26,4.85,1.71,7.22h.09c.57-2.34,1.25-5,1.91-7.25l2.16-6.71h6l1.11,20.18H649.8Z" transform="translate(-17.23 -214.06)"/><path class="cls-3" d="M685.29,301.61c0,6.63-4,10.64-9.91,10.64s-9.5-4.52-9.5-10.28c0-6.05,3.87-10.57,9.82-10.57C681.91,291.4,685.29,296,685.29,301.61Zm-14.58.27c0,3.95,1.85,6.74,4.91,6.74s4.84-2.93,4.84-6.86c0-3.62-1.73-6.73-4.88-6.73S670.71,298,670.71,301.88Z" transform="translate(-17.23 -214.06)"/><path class="cls-3" d="M697.32,292a36.29,36.29,0,0,1,5.9-.42c2.78,0,4.49.27,6,1.13a4.42,4.42,0,0,1,2.42,4,4.54,4.54,0,0,1-3.32,4.31v.07a5,5,0,0,1,4,5,5.36,5.36,0,0,1-2.1,4.29c-1.46,1.17-3.92,1.82-7.93,1.82a37.13,37.13,0,0,1-4.94-.29Zm4.52,7.73h1.5c2.39,0,3.68-1,3.68-2.49s-1.16-2.33-3.23-2.33a11.24,11.24,0,0,0-1.95.12Zm0,8.95a14.33,14.33,0,0,0,1.76.06c2.07,0,3.9-.78,3.9-2.91s-1.83-2.84-4.1-2.84h-1.56Z" transform="translate(-17.23 -214.06)"/><path class="cls-3" d="M729,291.73v20.18h-4.58V291.73Z" transform="translate(-17.23 -214.06)"/><path class="cls-3" d="M742,291.73h4.58v16.35h8v3.83H742Z" transform="translate(-17.23 -214.06)"/><path class="cls-3" d="M770.89,291.73v20.18H766.3V291.73Z" transform="translate(-17.23 -214.06)"/><path class="cls-3" d="M787.75,295.56h-5.43v-3.83h15.52v3.83h-5.51v16.35h-4.58Z" transform="translate(-17.23 -214.06)"/><path class="cls-3" d="M814.18,311.91v-8.26l-6.38-11.92H813l2.06,4.85c.63,1.47,1.06,2.54,1.56,3.87h.06c.44-1.26.93-2.43,1.52-3.87l2-4.85h5.12l-6.64,11.77v8.41Z" transform="translate(-17.23 -214.06)"/></svg>