<?xml version="1.0" encoding="utf-8"?>
<!-- Generator: Adobe Illustrator 18.0.0, SVG Export Plug-In . SVG Version: 6.00 Build 0)  -->
<!DOCTYPE svg PUBLIC "-//W3C//DTD SVG 1.1//EN" "http://www.w3.org/Graphics/SVG/1.1/DTD/svg11.dtd" [
	<!ENTITY ns_extend "http://ns.adobe.com/Extensibility/1.0/">
	<!ENTITY ns_ai "http://ns.adobe.com/AdobeIllustrator/10.0/">
	<!ENTITY ns_graphs "http://ns.adobe.com/Graphs/1.0/">
	<!ENTITY ns_vars "http://ns.adobe.com/Variables/1.0/">
	<!ENTITY ns_imrep "http://ns.adobe.com/ImageReplacement/1.0/">
	<!ENTITY ns_sfw "http://ns.adobe.com/SaveForWeb/1.0/">
	<!ENTITY ns_custom "http://ns.adobe.com/GenericCustomNamespace/1.0/">
	<!ENTITY ns_adobe_xpath "http://ns.adobe.com/XPath/1.0/">
]>
<svg version="1.1" id="Layer_1" xmlns:x="&ns_extend;" xmlns:i="&ns_ai;" xmlns:graph="&ns_graphs;"
	 xmlns="http://www.w3.org/2000/svg" xmlns:xlink="http://www.w3.org/1999/xlink" x="0px" y="0px" viewBox="0 0 1123.1 326.6"
	 enable-background="new 0 0 1123.1 326.6" xml:space="preserve">
<metadata>
	<sfw  xmlns="&ns_sfw;">
		<slices></slices>
		<sliceSourceBounds  width="1123.1" height="326.6" bottomLeftOrigin="true" y="134.6" x="-141"></sliceSourceBounds>
	</sfw>
</metadata>
<g id="Layer_x0020_1">
	<g id="_80060488">
		<path id="_152124704" fill="#DB291D" d="M911.6,151.3c-4.9,0-10.4-8.1-10.5-18.8c-0.1-10.8,5.3-19,10.2-19.1
			c4.9,0,10.4,8.1,10.5,18.8C921.9,143,916.5,151.2,911.6,151.3L911.6,151.3z M621.6,201.2c-45.8,0-77.7-34.6-77.7-84.2
			c0-42.7,23.8-72.8,62-78.9c4.5-0.6,9-1,13.6-1c4.6,0,9.4,0.4,13.9,1c37.5,6.1,63.6,37.4,64.7,76.4c0,0.5-0.2,0.9-0.2,1.4
			c0,0.6,0.2,1.1,0.2,1.7h0.2C698,166.9,666.5,201.2,621.6,201.2L621.6,201.2z M1084.7,209.8V239h38.4V98.3
			c-7.6-49.4-45.8-89-97.4-97c-12.5-1.5-24.5-1.9-38.1,0.1c-32.8,5.1-59.7,23.3-76.7,49c-17.7-25.5-45.4-43.8-78.6-49
			c-12.5-1.5-24.4-1.9-38,0c-33.1,5.2-60.1,23.6-77,49.5c-17.7-25.7-45.4-44.4-78.8-49.5c-12.6-1.5-24.5-1.9-38.1,0
			c-56.8,8.9-96.2,56.1-96.2,114.7c0,0.3,0,0.6,0,0.8l-0.5,0.6c-0.1,49.5-31.6,83.9-76.7,83.9c-45.7,0-77.7-34.6-77.7-84.2
			c0-42.7,23.9-72.8,62-78.9c4.5-0.6,9-1,13.6-1c4.6,0,9.4,0.4,13.9,1c13.3,2.2,25.1,7.7,34.9,15.4l27.1-27.1
			C485,13.6,465.6,4.7,443.9,1.3c-12.6-1.5-24.5-1.9-38.1,0c-56.7,8.9-96.2,56.1-96.2,114.7c0,72.4,48.2,123,117.4,123
			c40.9,0,75.5-20.3,96.1-52.2c20.2,32.5,55.3,52.2,98.5,52.2c65.6,0,115.1-52,116-121.3h0.2c0-0.2,0-0.4,0-0.7
			c0-42.7,23.8-72.8,62.1-78.9c4.4-0.6,8.9-1,13.5-1c4.7,0,9.3,0.4,14,1c26.2,4.3,46.2,21.3,56.5,44.3
			c-9.7,13.7-15.9,32.9-15.7,50.2c0.2,30.3,19.7,54.9,43.5,54.9h0.2c23.9-0.2,43.2-25.2,42.9-55.7c-0.1-17.2-6.5-36.3-16.4-50
			c9.5-23.4,28.3-39.7,54.7-43.8c4.4-0.7,9-1,13.5-1c4.7,0,9.4,0.3,14,1c34.9,5.7,59.8,33.2,64.1,68.6l0,20.8L1084.7,209.8
			L1084.7,209.8z"/>
		<path id="_152124752" fill="#DB291D" d="M527.5,291.5c-1.7-2.2-4.4-3.7-7.5-3.7c-4.7,0-7.8,3.9-7.8,8.3c0,4.7,3.4,8.2,8,8.2
			c3.1,0,5.7-1.5,7.3-3.7V291.5z M535.6,309.4c0,5.4-0.9,8.7-2.7,11.2c-2.7,3.8-7.6,6-13.4,6c-5.9,0-11.5-2.7-14.5-6.2l5.1-5.3
			c1.6,1.7,4.4,4.4,9.4,4.4c2.6,0,4.8-0.8,6.2-2.4c1.2-1.4,1.9-3.2,1.9-7.1v-1c-2.4,1.9-5,2.7-8.1,2.7c-4.5,0-8.8-2-11.4-5.1
			c-2.4-2.7-3.8-6.5-3.8-10.6c0-8.9,6.6-15.7,14.8-15.7c3.4,0,6.5,1.1,8.8,3v-2.4h7.8L535.6,309.4L535.6,309.4z"/>
		<path id="_152124800" fill="#DB291D" d="M558.9,304.2c4.7,0,8-3.7,8-8.2c0-4.5-3.2-8.3-8-8.3c-4.7,0-8,3.7-8,8.3
			C550.9,300.6,554.1,304.2,558.9,304.2z M558.9,280.3c9.1,0,16,7,16,15.7c0,8.7-6.9,15.7-16,15.7c-9.2,0-16.1-7-16.1-15.7
			C542.8,287.3,549.7,280.3,558.9,280.3z"/>
		<path id="_152124872" fill="#DB291D" d="M598.9,293.6v-10.2l-8.2,10.2H598.9z M607.3,267.5v26.1h7.2v7.5h-7.2v10h-8.4v-10h-20.2
			v-5l22.7-28.6L607.3,267.5L607.3,267.5z"/>
		<path id="_152124992" fill="#DB291D" d="M648.1,304.9c-3.5,4.7-8,6.8-13.7,6.8c-9.3,0-16.2-7-16.2-15.7c0-8.8,7-15.7,16.2-15.7
			c5.2,0,9.9,2.4,12.7,6l-5.7,5c-1.6-2.1-4-3.6-7-3.6c-4.7,0-8.1,3.7-8.1,8.3c0,4.7,3.4,8.2,8.3,8.2c3.3,0,5.9-2,7.2-4L648.1,304.9z
			"/>
		<path id="_152125064" fill="#DB291D" d="M668.2,304.2c4.7,0,8-3.7,8-8.2c0-4.5-3.2-8.3-8-8.3c-4.7,0-8,3.7-8,8.3
			C660.3,300.6,663.5,304.2,668.2,304.2z M668.2,280.3c9.2,0,16.1,7,16.1,15.7c0,8.7-6.9,15.7-16.1,15.7c-9.2,0-16.1-7-16.1-15.7
			C652.2,287.3,659.1,280.3,668.2,280.3z"/>
		<path id="_152125112" fill="#DB291D" d="M691.5,311.1v-30.2h7.8v2.4c2.4-2.1,5.2-3,8.2-3c4.1,0,7.8,1.9,10.1,4.7
			c2.4-2.6,6.2-4.7,10.7-4.7c4.2,0,8.2,1.9,10.6,4.9c1.9,2.4,3,5.5,3,10v16h-8.1v-16.3c0-2.7-0.5-4.1-1.5-5.2
			c-1.3-1.4-3-1.9-4.6-1.9c-3.5,0-6.2,2.4-7.3,4c0.1,1,0.2,2.1,0.2,3.4v16h-8.1v-16.3c0-2.7-0.6-4.1-1.5-5.2c-1.2-1.4-3-1.9-4.5-1.9
			c-3.4,0-5.9,2.3-7,3.7v19.6L691.5,311.1L691.5,311.1z"/>
		<path id="_152125232" fill="#DB291D" d="M750.9,311.1v-30.2h7.8v2.4c2.4-2.1,5.2-3,8.2-3c4.1,0,7.8,1.9,10.2,4.7
			c2.4-2.6,6.2-4.7,10.7-4.7c4.2,0,8.1,1.9,10.6,4.9c1.9,2.4,3.1,5.5,3.1,10v16h-8.1v-16.3c0-2.7-0.6-4.1-1.5-5.2
			c-1.2-1.4-3-1.9-4.5-1.9c-3.5,0-6.2,2.4-7.3,4c0.1,1,0.2,2.1,0.2,3.4v16h-8.1v-16.3c0-2.7-0.6-4.1-1.5-5.2c-1.2-1.4-3-1.9-4.5-1.9
			c-3.4,0-5.9,2.3-7,3.7v19.6L750.9,311.1L750.9,311.1z"/>
		<path id="_152125160" fill="#DB291D" d="M838.4,280.9v30.2h-7.8v-2.4c-2.4,2.1-5.2,3.1-8.2,3.1c-4.2,0-7.9-1.9-10.3-4.9
			c-1.9-2.4-3.1-5.5-3.1-9.9v-16h8.1v16.3c0,2.7,0.6,4.1,1.5,5.2c1.2,1.4,3,1.9,4.5,1.9c3.4,0,5.9-2.3,7-3.7v-19.6H838.4
			L838.4,280.9z"/>
		<path id="_152125880" fill="#DB291D" d="M848.1,311.1v-30.2h7.8v2.4c2.3-1.9,5.2-3,8.5-3c4.2,0,8,1.9,10.5,4.9
			c2,2.4,3.1,5.4,3.1,10.6v15.4h-8.1v-16c0-3-0.7-4.5-1.8-5.7c-1.1-1-2.7-1.7-4.5-1.7c-3.4,0-6.2,2.2-7.3,3.7v19.6L848.1,311.1
			L848.1,311.1z"/>
		<path id="_152125616" fill="#DB291D" d="M895.1,311.1H887v-30.2h8.1V311.1z M891.1,265c2.9,0,5.3,2.2,5.3,5.2
			c0,2.9-2.4,5.2-5.3,5.2c-2.9,0-5.3-2.2-5.3-5.2S888.1,265,891.1,265z"/>
		<path id="_152115536" fill="#DB291D" d="M932.2,304.9c-3.5,4.7-8,6.8-13.7,6.8c-9.3,0-16.2-7-16.2-15.7c0-8.8,7-15.7,16.2-15.7
			c5.2,0,9.9,2.4,12.7,6l-5.7,5c-1.6-2.1-4-3.6-7-3.6c-4.7,0-8.1,3.7-8.1,8.3c0,4.7,3.4,8.2,8.3,8.2c3.3,0,5.9-2,7.2-4L932.2,304.9
			L932.2,304.9z"/>
		<path id="_152115464" fill="#DB291D" d="M959.6,291.5c-1.7-2.2-4.4-3.7-7.5-3.7c-4.7,0-7.8,3.9-7.8,8.3c0,4.7,3.4,8.2,8,8.2
			c3.1,0,5.7-1.5,7.3-3.7V291.5L959.6,291.5z M967.7,311.1h-7.8v-2.4c-2.5,2.1-5.4,3.1-8.4,3.1c-4.5,0-8.7-2-11.4-5.1
			c-2.4-2.7-3.9-6.5-3.9-10.6c0-8.9,6.6-15.7,14.8-15.7c3.4,0,6.5,1.1,8.8,3l0-2.4h7.8L967.7,311.1L967.7,311.1z"/>
		<path id="_152115392" fill="#DB291D" d="M1000,311.1c-1,0.4-3.5,0.6-5,0.6c-4.8,0-8.4-1.6-10.4-4.4c-1.6-2.1-2.3-4.7-2.3-9l0-10.6
			h-8.4v-6.9h8.4v-8.4h8.1v8.4h10v6.9h-10v11.5c0,1.9,0.3,3,1,3.8c0.8,0.9,2.1,1.5,4.1,1.5c1.2,0,2.7-0.2,3.3-0.3L1000,311.1
			L1000,311.1z"/>
		<path id="_152115584" fill="#DB291D" d="M1016.5,311.1h-8.1v-30.2h8.1V311.1z M1012.5,265c2.9,0,5.3,2.2,5.3,5.2
			c0,2.9-2.4,5.2-5.3,5.2c-2.9,0-5.3-2.2-5.3-5.2C1007.2,267.2,1009.6,265,1012.5,265L1012.5,265z"/>
		<path id="_152115848" fill="#DB291D" d="M1039.8,304.2c4.7,0,8-3.7,8-8.2c0-4.5-3.2-8.3-8-8.3c-4.7,0-8,3.7-8,8.3
			C1031.8,300.6,1035,304.2,1039.8,304.2z M1039.8,280.3c9.2,0,16.1,7,16.1,15.7c0,8.7-6.9,15.7-16.1,15.7c-9.2,0-16.1-7-16.1-15.7
			C1023.7,287.3,1030.6,280.3,1039.8,280.3z"/>
		<path id="_152115656" fill="#DB291D" d="M1063,311.1v-30.2h7.8v2.4c2.3-1.9,5.2-3,8.5-3c4.2,0,8,1.9,10.5,4.9
			c2,2.4,3.1,5.4,3.1,10.6v15.4h-8.1v-16c0-3-0.7-4.5-1.8-5.7c-1.1-1-2.7-1.7-4.5-1.7c-3.4,0-6.2,2.2-7.3,3.7l0,19.6L1063,311.1
			L1063,311.1z"/>
		<path id="_152115728" fill="#DB291D" d="M1102.9,301.9c2,1.9,5.2,3,8.3,3c2.2,0,3.9-1.1,3.9-2.6c0-4.5-14.6-2.9-14.6-12.6
			c0-5.8,5.6-9.4,11.6-9.4c3.9,0,8.2,1.5,10.2,3l-3.8,5.9c-1.6-1.1-3.6-2-5.8-2c-2.3,0-4.1,0.9-4.1,2.4c0,3.9,14.6,2.4,14.6,12.8
			c0,5.8-5.6,9.3-12,9.3c-4.2,0-8.6-1.4-12.2-4L1102.9,301.9L1102.9,301.9z"/>
		<path id="_152115800" fill="#DB291D" d="M0,35.9C0,16.1,16.1,0,35.9,0s35.9,16.1,35.9,35.9c0,19.8-16.1,35.9-35.9,35.9
			S0,55.7,0,35.9L0,35.9z"/>
		<path id="_152115920" fill="#DB291D" d="M80,35.9C80,16.1,96,0,115.9,0c19.8,0,35.9,16.1,35.9,35.9c0,19.8-16.1,35.9-35.9,35.9
			C96,71.7,80,55.7,80,35.9L80,35.9z"/>
		<path id="_152115248" fill="#DB291D" d="M0,117.5c0-19.8,16.1-35.9,35.9-35.9s35.9,16.1,35.9,35.9c0,19.8-16.1,35.9-35.9,35.9
			S0,137.3,0,117.5z"/>
		<polygon id="_152115080" fill="#DB291D" points="164.5,0 192.6,0 192.6,71.8 164.5,71.8 		"/>
		<polygon id="_152126048" fill="#DB291D" points="198.8,0 226.9,0 226.9,71.8 198.8,71.8 		"/>
		<polygon id="_152126240" fill="#DB291D" points="233.1,0 261.2,0 261.2,71.8 233.1,71.8 		"/>
		<polygon id="_152115032" fill="#DB291D" points="267.4,0 295.6,0 295.6,71.8 267.4,71.8 		"/>
	</g>
</g>
</svg>
