<svg id="Layer_1" data-name="Layer 1" xmlns="http://www.w3.org/2000/svg" viewBox="0 0 309.35 147.53"><defs><style>.cls-1{fill:#b4975a;}.cls-2{fill:#453a24;}</style></defs><title>scopeinvest-logo</title><path class="cls-1" d="M261.34,91.64a6.24,6.24,0,0,1-1.3,2.71,11.38,11.38,0,0,1-1.22,1.28c-.42.3-.85.58-1.28.85a26.55,26.55,0,0,1-2.64,1.37,33.93,33.93,0,0,1-7.55,2.29l-.78.19a8.07,8.07,0,0,1,.57-1.72,13,13,0,0,1,2.44-3.42c.3-.33.63-.65,1-1A3.27,3.27,0,0,1,251,94a3,3,0,0,0,.49-.35,44.78,44.78,0,0,0,3.63-3.39,27.7,27.7,0,0,0,2.95-3.58A20.33,20.33,0,0,0,260,83.28a13.72,13.72,0,0,1,1.43,4.08,10.7,10.7,0,0,1-.09,4.28m0,4.63c0,.19,0,.37,0,.54,0,.36,0,.72-.08,1.08a14.19,14.19,0,0,1-.42,2.08,11,11,0,0,1-2,3.9,5.75,5.75,0,0,1-2.35,1.77,15.84,15.84,0,0,1-3.18.77,21,21,0,0,1-4.54.07,25.78,25.78,0,0,1-6-1.41l-.74-.22a7.42,7.42,0,0,1,1.21-1.17,12.2,12.2,0,0,1,3.45-1.72c.76-.27,1.61-.54,2.46-.75a40.44,40.44,0,0,0,7.3-2.46,26,26,0,0,0,2.48-1.33c.42-.25.82-.52,1.23-.8l.6-.43L261,96a2.51,2.51,0,0,0,.3-.34v.64ZM254.75,111a10.61,10.61,0,0,1-3.74,2.72,5.88,5.88,0,0,1-2.71.53l-.27,0a16.35,16.35,0,0,1-5.78-2.12,21.73,21.73,0,0,1-2.85-2c-.33-.27-.64-.54-.94-.81-.84-.74-1.57-1.49-2.27-2.18-.16-.17-.36-.36-.58-.56a8.52,8.52,0,0,1,1.73-.46,7.88,7.88,0,0,1,1.09-.09,14.41,14.41,0,0,1,2.83.25c.8.14,1.66.33,2.5.56a34.71,34.71,0,0,0,4.83,1,19.18,19.18,0,0,0,4.68.07,17.66,17.66,0,0,0,3.88-.81,13.16,13.16,0,0,1-2.4,3.92M244,118.13a11.48,11.48,0,0,1-2.6.57,8.7,8.7,0,0,1-1.91,0,5.59,5.59,0,0,1-2.8-1,16.77,16.77,0,0,1-2.38-2.22,25,25,0,0,1-2.62-3.69,49.25,49.25,0,0,1-2.65-5.7,7.68,7.68,0,0,0-.34-.74,8.48,8.48,0,0,1,1.88.3,12.18,12.18,0,0,1,3.71,1.86,25.67,25.67,0,0,1,2.05,1.63l1.36,1.22c.66.57,1.37,1.16,2.15,1.74a24,24,0,0,0,2.61,1.71,17.78,17.78,0,0,0,5.2,1.93l.36.08a12.93,12.93,0,0,1-4,2.28m-12.56,1.26a10.74,10.74,0,0,1-4.17-1.39,5.43,5.43,0,0,1-2.08-2,20.22,20.22,0,0,1-2-5.74,51.89,51.89,0,0,1-.69-7.94c0-.24,0-.53-.05-.84a9.13,9.13,0,0,1,1.68,1,12.29,12.29,0,0,1,2.87,3.2,20.29,20.29,0,0,1,1.29,2.34c.64,1.35,1.32,2.89,2.21,4.49a22.6,22.6,0,0,0,2.59,3.88,19.11,19.11,0,0,0,2.78,2.76,13.67,13.67,0,0,1-4.44.23M247,85.31a10.14,10.14,0,0,1-.38-1,13.93,13.93,0,0,1-.48-2.82c-.05-.81-.08-1.68-.07-2.54a33.47,33.47,0,0,0-.24-4.93,19,19,0,0,0-1.11-4.55,20,20,0,0,0-1.69-3.54,13,13,0,0,1,4.3,1.32A10.72,10.72,0,0,1,251,70.12a6.08,6.08,0,0,1,1.21,2.48c0,.1,0,.19,0,.29A16.23,16.23,0,0,1,251.6,79a22.29,22.29,0,0,1-1.22,3.26c-.18.39-.35.76-.53,1.12-.51,1-1,1.93-1.52,2.8-.11.2-.24.46-.36.73a8.55,8.55,0,0,1-.93-1.62m-2.38-5,0,.77a8.13,8.13,0,0,1-1.43-.87,12.45,12.45,0,0,1-2.56-2.9c-.47-.69-1-1.46-1.39-2.23a54.68,54.68,0,0,0-4-6.6,13.83,13.83,0,0,0-4.66-3.93,12,12,0,0,1,2.52-.58c.44-.05.87-.07,1.31-.08H235l.51,0a10.75,10.75,0,0,1,4.06,1.12A5.72,5.72,0,0,1,241.83,67a17.81,17.81,0,0,1,1.48,2.88,22.49,22.49,0,0,1,1.2,4.37,25.25,25.25,0,0,1,.15,6.14m-7.53-2.74a10.53,10.53,0,0,1-2-.63,4.9,4.9,0,0,1-.52-.24l-.27-.11a1,1,0,0,1-.21-.14l-.72-.55c-.56-.43-1.24-.91-1.93-1.4a28.14,28.14,0,0,0-4.23-2.5,24.09,24.09,0,0,0-4.34-1.65,25.56,25.56,0,0,0-3.74-.77A13.39,13.39,0,0,1,222.49,67a11.17,11.17,0,0,1,4.3-1.34,6.08,6.08,0,0,1,3.06.47,13.44,13.44,0,0,1,4.81,4,50.51,50.51,0,0,1,4,6.9c.1.22.24.47.38.72a8,8,0,0,1-1.89-.17m-6.07.09a14.38,14.38,0,0,1-4.05.62,18,18,0,0,1-2.74-.11c-.61-.07-1.24-.16-1.88-.26l-2.79-.4c-1-.15-2-.28-3.06-.39a40.51,40.51,0,0,0-5.21-.25H211a14.23,14.23,0,0,1,2.38-3,12.08,12.08,0,0,1,1.77-1.4,9.77,9.77,0,0,1,1.49-.79,5.71,5.71,0,0,1,2.69-.49,22,22,0,0,1,3.12.58,29.44,29.44,0,0,1,4.25,1.5,22.47,22.47,0,0,1,5.2,3.24l.57.48a6.41,6.41,0,0,1-1.39.68m-6.18,3.75a11.59,11.59,0,0,1-1.11.79,13.8,13.8,0,0,1-3.2,1.46,15,15,0,0,1-2.84.59c-1.57.14-3.3.16-5.14.17-1.48,0-3,0-4.54.09-1.2,0-2.42.13-3.63.28a14.71,14.71,0,0,1,1.89-3.15,11.06,11.06,0,0,1,2.78-2.49,5.94,5.94,0,0,1,2.22-.82l.26,0a36.3,36.3,0,0,1,5.91.25c1.21.14,2.37.31,3.49.49l1.26.2,3.28.54c.24,0,.54.07.84.09a9.22,9.22,0,0,1-1.47,1.53m-6.11,6.06a12.27,12.27,0,0,1-4.12,3.06,13.73,13.73,0,0,1-2.81,1,71.26,71.26,0,0,1-7.8.92c-1.77.15-3.59.32-5.37.56a14.82,14.82,0,0,1,1.58-3.1,10.65,10.65,0,0,1,2.5-2.62,5.53,5.53,0,0,1,2.35-1c1-.14,2-.23,3.05-.29,1.51-.07,3-.08,4.47-.1,2.33,0,4.53,0,6.58-.15.26,0,.57-.07.9-.13a9.75,9.75,0,0,1-1.33,1.93m-5.62,7.18a12.74,12.74,0,0,1-4,3.53,13.23,13.23,0,0,1-2.83,1.19,26.11,26.11,0,0,1-5.18.8c-1.49.07-3,.1-4.46.07-1.15,0-2.31-.07-3.41-.15a15.49,15.49,0,0,1,1.57-2.6,10.77,10.77,0,0,1,2.33-2.21,5.71,5.71,0,0,1,2.22-.95c1.87-.27,3.86-.45,5.78-.62a75,75,0,0,0,8.23-.94c.27-.06.58-.14.91-.24a9.84,9.84,0,0,1-1.19,2.12m-5.5,8a12.63,12.63,0,0,1-4.51,3.83,11,11,0,0,1-3.11,1,15.47,15.47,0,0,1-2.06.17,18.81,18.81,0,0,1-2.89-.2,20,20,0,0,1-3-.68,21.23,21.23,0,0,1-4.31-1.86l-.25-.15a13.9,13.9,0,0,1,1.83-1.64,9.92,9.92,0,0,1,1.27-.79,10.43,10.43,0,0,1,1.08-.48,5.3,5.3,0,0,1,2.16-.36q1.41.08,2.91.12c1.48,0,3,0,4.43,0a30.26,30.26,0,0,0,6.73-1,8.64,8.64,0,0,0,.93-.32,11.14,11.14,0,0,1-1.26,2.35m-7,8.34a11.44,11.44,0,0,1-1.53,1.23,11.74,11.74,0,0,1-4.42,1.84,9.57,9.57,0,0,1-3.54,0,12.58,12.58,0,0,1-4.94-2.24,19.15,19.15,0,0,1-3.16-3c-.74-.85-1.32-1.74-2-2.61a17.21,17.21,0,0,1,2.41-.6,7.49,7.49,0,0,1,2.36,0,6,6,0,0,1,1.7.51l.19.11a24.27,24.27,0,0,0,5.08,2.11,21.7,21.7,0,0,0,3.54.69c.46,0,.92.08,1.37.1a16.79,16.79,0,0,0,3.75-.26,7.59,7.59,0,0,0,1-.25,11.21,11.21,0,0,1-1.87,2.37m-10.57,6.67a11.31,11.31,0,0,1-7,.12,10.59,10.59,0,0,1-1.68-.71,10,10,0,0,1-1.3-.91,21.35,21.35,0,0,1-4.86-6.25,24.56,24.56,0,0,1-1.94-4.65,14.14,14.14,0,0,1,2.61.14,10.44,10.44,0,0,1,2.76.85,5.43,5.43,0,0,1,1.81,1.35c.3.37.63.75.92,1.12s.58.76.89,1.13a18.55,18.55,0,0,0,3.1,3.1,14.12,14.12,0,0,0,6.59,3,7.22,7.22,0,0,0,1.14.09,10.79,10.79,0,0,1-3,1.6M177.91,119a12,12,0,0,1-6-2.12,10,10,0,0,1-2.5-2.44,12.27,12.27,0,0,1-2-5.07,13.23,13.23,0,0,1,.08-4.27,14,14,0,0,1,.93-3,13.59,13.59,0,0,1,1.65,1.05,7.35,7.35,0,0,1,1.42,1.51,6.16,6.16,0,0,1,.91,1.74,26.77,26.77,0,0,0,2.19,5.09,22.67,22.67,0,0,0,5.4,6.69,8.76,8.76,0,0,0,.85.59,11.15,11.15,0,0,1-2.9.21m-11.84-2.75a11.21,11.21,0,0,1-5.36-5.3,8.37,8.37,0,0,1-.82-3.62,10.16,10.16,0,0,1,.23-2.14,14.45,14.45,0,0,1,.94-2.78,22.3,22.3,0,0,1,1.48-2.65c.43-.68.89-1.36,1.36-2s1-1.27,1.47-1.88l.19-.23a13.82,13.82,0,0,1,.68,1.23c.21.43.4.87.55,1.27a8.3,8.3,0,0,1,.41,1.46,5.66,5.66,0,0,1,.12,1.07,5.23,5.23,0,0,1-.32,1.92,18.87,18.87,0,0,0-.79,2.6,13,13,0,0,0-.25,4.34,13.72,13.72,0,0,0,2.64,6.81,10.18,10.18,0,0,0,.75.85,10.49,10.49,0,0,1-3.28-.94m-7.33-11.66a11.51,11.51,0,0,0-.52,3.93,6.52,6.52,0,0,0,.16,1.2,10.94,10.94,0,0,1-2.17-2.77,11.12,11.12,0,0,1-1.36-6.52,9.76,9.76,0,0,1,.84-3.28,15.61,15.61,0,0,1,3.14-4.35,22.31,22.31,0,0,1,3.41-2.73,21.75,21.75,0,0,1,2.86-1.56,13.41,13.41,0,0,1,.27,2.46,8.83,8.83,0,0,1-.33,2.6,5.53,5.53,0,0,1-.81,1.75l-.14.17a42.62,42.62,0,0,0-3.25,4.57,22,22,0,0,0-1.64,3.2,13.87,13.87,0,0,0-.46,1.33m-5.06-7.08a6.46,6.46,0,0,0-.35,1,10.74,10.74,0,0,1-.91-3,11.81,11.81,0,0,1,1-6.67A9.48,9.48,0,0,1,155.45,86a12.76,12.76,0,0,1,7.26-3.25,15.94,15.94,0,0,1,2.48-.08c.83,0,1.7,0,2.5.08-.16.43-.37.89-.54,1.26a6.11,6.11,0,0,1-.43.89,7.35,7.35,0,0,1-1.31,1.75,6,6,0,0,1-1.6,1.16,23.55,23.55,0,0,0-2.45,1.32,20.72,20.72,0,0,0-3.5,2.66,17.13,17.13,0,0,0-4.18,5.74M153.18,83a11.32,11.32,0,0,1,4.29-6,10.26,10.26,0,0,1,3.14-1.31,14.66,14.66,0,0,1,5.37-.1,22.1,22.1,0,0,1,4.21,1.14,24.05,24.05,0,0,1,2.93,1.4,13.79,13.79,0,0,1-1.81,1.65A8.87,8.87,0,0,1,169.07,81a5.62,5.62,0,0,1-2.08.37c-.88,0-1.81-.06-2.75,0a20.25,20.25,0,0,0-2.8.18,13.9,13.9,0,0,0-8,3.92,11,11,0,0,0-.76.88,10.85,10.85,0,0,1,.48-3.39M160,72.09a11.61,11.61,0,0,1,6-3.22,9.76,9.76,0,0,1,3.53,0,12,12,0,0,1,2,.6,13.71,13.71,0,0,1,2.6,1.37,17.07,17.07,0,0,1,2.32,1.91,18.56,18.56,0,0,1,2.88,3.65l.15.24a11.93,11.93,0,0,1-2.25.59,6.62,6.62,0,0,1-1.32.12,6,6,0,0,1-1-.06,5.62,5.62,0,0,1-1.91-.59c-.79-.43-1.63-.83-2.53-1.21a19.61,19.61,0,0,0-4.2-1.25,16.61,16.61,0,0,0-7.12.09,9.44,9.44,0,0,0-1,.34A10.56,10.56,0,0,1,160,72.09m10.45-6.79a11.87,11.87,0,0,1,2.07-.54,11.27,11.27,0,0,1,5,.3,9.37,9.37,0,0,1,3.16,1.65,11,11,0,0,1,1.89,2A22.21,22.21,0,0,1,184,71c.69,1.3,1.34,2.66,1.95,4,.47,1.06.92,2.13,1.3,3.15a14.65,14.65,0,0,1-3-.33,9.36,9.36,0,0,1-2.84-1.13l-.4-.29-.3-.3a6.3,6.3,0,0,1-.58-.68l-.11-.17A21.83,21.83,0,0,0,176.48,71a16.35,16.35,0,0,0-2.89-2.18c-.41-.24-.82-.46-1.24-.66A13.85,13.85,0,0,0,168.59,67a8.83,8.83,0,0,0-1.14-.08,10.87,10.87,0,0,1,3-1.62m11.16-1.39a10.71,10.71,0,0,1,1.73.15,12.14,12.14,0,0,1,7.8,4.88,6.52,6.52,0,0,1,1.21,1.84l.12.4c.1.24.23.8.31,1a10.15,10.15,0,0,1,.33,1.45,16.36,16.36,0,0,1,.2,3,22.37,22.37,0,0,1-.71,4.92,14.68,14.68,0,0,1-2-1.29,7.68,7.68,0,0,1-1-.92,13.91,13.91,0,0,1-1-1.63c-.11-.23-.21-.49-.31-.74-.29-.86-.68-1.76-1.08-2.67-.58-1.35-1.2-2.72-1.9-4a25.88,25.88,0,0,0-1.78-3,11,11,0,0,0-1.13-1.38,15.6,15.6,0,0,0-1.43-1.25,7.5,7.5,0,0,0-1-.62,10.58,10.58,0,0,1,1.68-.14M253.2,78.36a18.44,18.44,0,0,0,.58-5.51l0-.38A13,13,0,0,1,257,75.8a10.79,10.79,0,0,1,1.2,2.37,8.62,8.62,0,0,1,.48,1.82,5.6,5.6,0,0,1-.22,2.91,18.41,18.41,0,0,1-1.51,2.85,30,30,0,0,1-2.8,3.55q-1.19,1.26-2.37,2.31a21.7,21.7,0,0,1-2.27,1.86,1.67,1.67,0,0,1-.6.32,2,2,0,0,1-.2-.66,8.41,8.41,0,0,1-.08-.89,12.46,12.46,0,0,1,.67-4.27,21.64,21.64,0,0,1,1-2.47l.8-1.65c.39-.79.78-1.63,1.14-2.52a24.62,24.62,0,0,0,1-3m9.21,14.7a12.2,12.2,0,0,0,.37-5.93,15.31,15.31,0,0,0-2.61-6.23,11.29,11.29,0,0,0-.77-3.39A13.88,13.88,0,0,0,258.12,75a14.89,14.89,0,0,0-5.36-4.84A12.13,12.13,0,0,0,248,66h0a14.83,14.83,0,0,0-6.81-1.6,12.13,12.13,0,0,0-5.53-1.77,15.36,15.36,0,0,0-1.85,0,12.92,12.92,0,0,0-2,.25,13.47,13.47,0,0,0-3.85,1.4,12.23,12.23,0,0,0-6.1,1.58A14.93,14.93,0,0,0,217,70.09a11.08,11.08,0,0,0-2.74,1.36,12.78,12.78,0,0,0-1.81,1.45,16.14,16.14,0,0,0-3.35,4.73,11.62,11.62,0,0,0-3.8,3.19,15.9,15.9,0,0,0-2.67,4.91,11.35,11.35,0,0,0-3.46,3.4,16,16,0,0,0-2.18,4.73,11.12,11.12,0,0,0-3.15,2.84,15.54,15.54,0,0,0-2.15,3.81,10.57,10.57,0,0,0-1.88.79,9.58,9.58,0,0,0-1.17.74h0a13.44,13.44,0,0,0-2.4,2.34,7.15,7.15,0,0,0-2.85-.1,10.47,10.47,0,0,0-1.53.34l-.42.13-.56.15c-.38.1-.78.23-1.17.36a10.27,10.27,0,0,0-3.51-1.2h0a13.63,13.63,0,0,0-3.62-.06,8,8,0,0,0-1.61-1.9,18.79,18.79,0,0,0-2.32-1.34,5.76,5.76,0,0,0-.11-1.73,8.48,8.48,0,0,0-.38-1.35,16.47,16.47,0,0,0-1.86-3.48,9.51,9.51,0,0,0,.52-3.23h0a14.3,14.3,0,0,0-.51-3.36,7.5,7.5,0,0,0,1.69-2,4.49,4.49,0,0,0,.26-.54c.05-.09.08-.19.13-.3l.2-.44a18.56,18.56,0,0,0,.74-1.93,8.88,8.88,0,0,0,2.88-1.45,14.45,14.45,0,0,0,2.43-2.41,7,7,0,0,0,1.7.18,6.72,6.72,0,0,0,1.18-.1,14.52,14.52,0,0,0,3.05-.94,4.09,4.09,0,0,0,1.36.86,10.88,10.88,0,0,0,2,.65,14.7,14.7,0,0,0,2.14.33,6.8,6.8,0,0,0,2-.07l.47.79a4.34,4.34,0,0,0,.29.39,7.11,7.11,0,0,0,.89.79h0a11.12,11.12,0,0,0,1.29.84l.78.43c.25.13.6.35.94.55l1.23-1.66a2.56,2.56,0,0,1,0-.49,25.94,25.94,0,0,0,.66-5.48,16.16,16.16,0,0,0-.32-3.39,13.46,13.46,0,0,0-.42-1.72c-.1-.28-.32-.84-.46-1.12s-.15-.28-.23-.42h0c-.48-.72-.9-1.32-1.33-1.89-.19-.25-.45-.55-.72-.84a8.76,8.76,0,0,1,1.34.23,9.19,9.19,0,0,1,1.63.57l-.51-.21.32.12.19.09.35.15a11.09,11.09,0,0,1,5.18,5.09c.16.33.29.65.42,1l1.44-2-.2-.12L201,71c-.18-.1-.37-.17-.56-.26A12.58,12.58,0,0,0,195,65.9l-.36-.16-.22-.09-.37-.16.12.06a10,10,0,0,0-2.26-.64,10,10,0,0,0-2.23-.15l-.33,0a3.07,3.07,0,0,0-.53,0,14.61,14.61,0,0,0-2.44-1.31,13.83,13.83,0,0,0-2.91-.83,12.52,12.52,0,0,0-5.69.4l-.37.13-.58.22a13.1,13.1,0,0,0-4.76,0,14.65,14.65,0,0,0-2.18.58,12.45,12.45,0,0,0-4.72,3l-.26.28c-.12.14-.23.28-.35.41A13.45,13.45,0,0,0,159,71.12a12.3,12.3,0,0,0-2.84,4.4l-.12.34-.2.62a13,13,0,0,0-4,6.1,12.4,12.4,0,0,0-.37,5.67l.07.37.15.6a13.4,13.4,0,0,0-.64,6.52,12.46,12.46,0,0,0,1.8,4.87l.2.29a4.17,4.17,0,0,0,.33.46,12.54,12.54,0,0,0,.71,4.26,14.55,14.55,0,0,0,.89,2,12.8,12.8,0,0,0,4.06,4.42l.36.23.54.3a13,13,0,0,0,5.53,4.93,12.28,12.28,0,0,0,5.51,1.18l.36,0,.58,0a13.89,13.89,0,0,0,5.9,1.76,12.4,12.4,0,0,0,2.36-.07,8.23,8.23,0,0,0,1.17-.21,11.26,11.26,0,0,0,1.36-.34l.36-.12.57-.22a13.07,13.07,0,0,0,6.92-.45,12.44,12.44,0,0,0,4.8-3l.26-.27c.14-.14.27-.31.4-.46a13.78,13.78,0,0,0,4-1.94,15,15,0,0,0,1.57-1.29,12.31,12.31,0,0,0,2.82-4l.12-.32.16-.45a14,14,0,0,0,4-3.75,11.86,11.86,0,0,0,1.82-3.85l.07-.28.1-.46a14.4,14.4,0,0,0,3.52-3.36A11.75,11.75,0,0,0,216,92l.07-.27.11-.44a13.51,13.51,0,0,0,3.66-2.91,11.37,11.37,0,0,0,1.93-3.13l.1-.25.14-.4a14.49,14.49,0,0,0,2.7-1.35c.37-.25.72-.5,1.06-.78a9.72,9.72,0,0,0,2.15-2.44l.11-.19.17-.3a13.2,13.2,0,0,0,3.33-.58,4.94,4.94,0,0,0,1.82-1.09l.13-.11.18-.19c.19.14.3.28.51.42l.91.39a10.16,10.16,0,0,0,1.79.54,8.33,8.33,0,0,0,2.83.1l.21,0,.34,0a11.73,11.73,0,0,0,2.12,2.36,7.89,7.89,0,0,0,2.17,1.15l.19.07.31.1a12.93,12.93,0,0,0,.41,2.25,9.18,9.18,0,0,0,.34,1,9.86,9.86,0,0,0,1.55,2.39l.15.17.22.24a12,12,0,0,0-.48,3.61,5.05,5.05,0,0,0,.16,1.2c0,.22.13.08.18.23s.11.54.18.81l.06.21.1.36a12.46,12.46,0,0,0-2,3,7.9,7.9,0,0,0-.68,2.57l0,.21v.34a10.15,10.15,0,0,0-2.81,1.42,8.18,8.18,0,0,0-1.69,1.83l-.11.15-.18.29a12.58,12.58,0,0,0-2.26-.18,8.26,8.26,0,0,0-1,.08,9.14,9.14,0,0,0-2.56.85l-.19.09-.28.15a10.9,10.9,0,0,0-3.14-1.49,9.56,9.56,0,0,0-2.88-.32h-.21l-.37,0a11.53,11.53,0,0,0-2.52-2.69,9.33,9.33,0,0,0-2.61-1.38l-1.47,2a16.58,16.58,0,0,1,.25,1.84,57.58,57.58,0,0,0,.86,7.7A21.24,21.24,0,0,0,223.9,117a13.31,13.31,0,0,1-4.08-1.47,10.94,10.94,0,0,1-3.27-2.77,5.69,5.69,0,0,1-1.18-2.61c0-.19,0-.39-.05-.58L213.49,112c.43.26.87.48,1.33.7a11.79,11.79,0,0,0,4.32,4h0a15.28,15.28,0,0,0,6.5,1.91,12,12,0,0,0,5.64,2.13,15.09,15.09,0,0,0,6.94-.82,10.14,10.14,0,0,0,3.52.12,12,12,0,0,0,2.73-.63,14.6,14.6,0,0,0,6-4,11.83,11.83,0,0,0,5.3-3.51,14.51,14.51,0,0,0,3.32-6.34,12.26,12.26,0,0,0,3-5.25,15.07,15.07,0,0,0,.55-3.2c0-.28,0-.55,0-.84l0-.56v-.66a11.38,11.38,0,0,0-.31-2" transform="translate(-52.27 -62.54)"/><path class="cls-2" d="M60.73,180a17,17,0,0,1-8.46-2.56l1.6-5.29a12.6,12.6,0,0,0,7,2.43c2.05,0,2.83-1,2.83-2.18s-.64-2.2-4.49-3.75c-4.42-1.78-6-4.35-6-7.37,0-3.66,3-7.22,8.85-7.22a13.86,13.86,0,0,1,7,1.94l-1.48,5.21a11.31,11.31,0,0,0-5.55-2.05c-2.13,0-3,1-3,2,0,1.65,1.28,2.19,4.43,3.53,4.69,2,6.1,4.25,6.1,7.48,0,4-2.92,7.81-9,7.81" transform="translate(-52.27 -62.54)"/><path class="cls-2" d="M93,180c-8.2,0-13.74-5.51-13.74-13S84.84,154,93,154a15.43,15.43,0,0,1,7.86,2.18l-1.79,4.94a12.69,12.69,0,0,0-6-1.69c-4.7,0-7.61,2.9-7.61,7.55s2.91,7.54,7.61,7.54a12.47,12.47,0,0,0,6.27-1.84l1.75,4.93A15.29,15.29,0,0,1,93,180" transform="translate(-52.27 -62.54)"/><path class="cls-2" d="M122.92,159.24c-4,0-6.65,3.27-6.65,7.78s2.67,7.79,6.65,7.79,6.65-3.3,6.65-7.79-2.67-7.78-6.65-7.78M122.81,180c-7.78,0-12.74-5.59-12.74-13s5.2-13,13-13,12.75,5.57,12.75,13-5.25,13-13,13" transform="translate(-52.27 -62.54)"/><path class="cls-2" d="M155.09,159.72a17.18,17.18,0,0,0-2.16.14V167c.83,0,1.2.07,1.75.07,3.09,0,4.63-1.33,4.63-3.77,0-2-1.34-3.6-4.22-3.6m0,12.41c-.81,0-1.37,0-2.16-.07v7.51h-5.82V154.68a67.44,67.44,0,0,1,7-.42c7.27,0,11.18,3.88,11.18,9s-3.54,8.91-10.19,8.91" transform="translate(-52.27 -62.54)"/><polygon class="cls-2" points="123.31 117.04 123.31 91.91 139.21 91.91 139.21 97.25 129.13 97.25 129.13 101.75 138.32 101.75 138.32 106.82 129.13 106.82 129.13 111.72 139.21 111.72 139.21 117.04 123.31 117.04"/><rect class="cls-1" x="165.81" y="91.91" width="1.93" height="25.13"/><polygon class="cls-1" points="199.02 117.41 182.28 96.08 182.28 117.03 180.4 117.03 180.4 91.62 180.84 91.53 197.44 112.61 197.44 91.91 199.35 91.91 199.35 117.34 199.02 117.41"/><polygon class="cls-1" points="220.81 117.45 220.43 117.45 209.49 91.91 211.62 91.91 220.67 113.44 229.65 91.91 231.75 91.91 220.81 117.45"/><polygon class="cls-1" points="241.87 117.04 241.87 91.91 256.07 91.91 256.07 93.62 243.8 93.62 243.8 103.42 254.87 103.42 254.87 105.13 243.8 105.13 243.8 115.29 256.07 115.29 256.07 117.04 241.87 117.04"/><path class="cls-1" d="M325.47,180a13.11,13.11,0,0,1-7.27-2.33l.93-1.68a11.79,11.79,0,0,0,6.51,2.27c3.33,0,5.55-2.13,5.55-4.91s-1.95-4.18-5.51-5.79c-3.87-1.71-6.24-3.5-6.24-7,0-3.64,3.05-6.54,7.55-6.54a10.21,10.21,0,0,1,5.65,1.71l-.93,1.61a8.62,8.62,0,0,0-4.9-1.58c-3.37,0-5.45,2.05-5.45,4.67s2.12,4,5.17,5.4c4.33,2,6.62,3.65,6.62,7.24,0,4.11-3.42,6.89-7.68,6.89" transform="translate(-52.27 -62.54)"/><polygon class="cls-1" points="300.85 93.62 300.85 117.03 298.9 117.03 298.9 93.62 290.36 93.62 290.36 91.91 309.35 91.91 309.35 93.62 300.85 93.62"/><path class="cls-2" d="M304.78,203.66c0-1.66-1.15-2.44-3.4-3-1.76-.48-2.35-.94-2.35-1.87s.69-1.64,2.24-1.64a6.12,6.12,0,0,1,2.78.72l.16-.95a6.42,6.42,0,0,0-2.89-.67c-2,0-3.26,1.09-3.26,2.61s.95,2.22,3,2.79,2.73,1.11,2.73,2.14-1,1.81-2.44,1.81a7,7,0,0,1-3.42-1l-.19,1a7.66,7.66,0,0,0,3.5.88c2.06,0,3.51-1,3.51-2.77m-13.14,2.56-.15-.8a4.59,4.59,0,0,1-1,.15c-1.09,0-1.55-.4-1.55-1.56v-6.78h2.54l-.13-.84H289v-3.72l-1,.21v3.51h-1.53v.84H288v7c0,1.66.92,2.25,2.33,2.25a4.27,4.27,0,0,0,1.35-.21m-10.82-9.12-.17-.92a4.51,4.51,0,0,0-3.55,2.27l-.31-2.06h-.65v9.87h1v-6.49a4.82,4.82,0,0,1,3.7-2.67m-12.77,3.41h-5.88c.23-2.06,1.28-3.51,3.15-3.51s2.67,1.57,2.73,3.51m1.05.61c0-2.73-1.26-4.94-3.78-4.94s-4.2,2-4.2,5.15,1.75,5.14,4.35,5.14a5.48,5.48,0,0,0,3.61-1.45l-.14-.92a5.38,5.38,0,0,1-3.43,1.51c-2.2,0-3.38-1.76-3.38-4.28h7Zm-15.43,0c0,3-1.56,4.44-3.53,4.44a6,6,0,0,1-2.62-.61v-6a4.21,4.21,0,0,1,3.1-1.81c1.77,0,3,1.41,3,4m1,0c0-3.32-1.87-4.87-4.06-4.87a4.08,4.08,0,0,0-3.15,1.64l-.25-1.43h-.71v13.67l1-.21v-4a6.83,6.83,0,0,0,2.64.51c2.4,0,4.54-1.75,4.54-5.34m-14.95,5.13-3.53-5,3.36-4.75h-1.09l-2.82,4-2.88-4.2-1,.25,3.32,4.71-3.53,5.08h1.09l3-4.37,3.13,4.52Zm-15.15-5.67h-5.88c.24-2.06,1.29-3.51,3.15-3.51s2.67,1.57,2.73,3.51m1.05.61c0-2.73-1.26-4.94-3.78-4.94s-4.2,2-4.2,5.15,1.75,5.14,4.35,5.14a5.48,5.48,0,0,0,3.61-1.45l-.14-.92a5.38,5.38,0,0,1-3.43,1.51c-2.2,0-3.38-1.76-3.38-4.28h7Z" transform="translate(-52.27 -62.54)"/><path class="cls-2" d="M188.94,197a3.75,3.75,0,0,0-2.45-.84,3.36,3.36,0,0,0-3.55,3.32,3.14,3.14,0,0,0,1.83,2.92c-.66.4-1,.75-1,1.28s.27.73.84,1.05c-1.58.73-2.4,1.7-2.4,2.69,0,1.66,1.89,2.56,4.41,2.56s4.6-1.11,4.6-2.9c0-1.39-1.11-2-3.38-2.46l-.75-.14c-1.87-.36-2.31-.55-2.31-1,0-.25.23-.48.79-.8a4.94,4.94,0,0,0,.95.11,3.36,3.36,0,0,0,3.59-3.32,3.05,3.05,0,0,0-.65-1.95l2.1-.24-.19-1.09Zm.19,2.48a2.59,2.59,0,0,1-5.18,0,2.41,2.41,0,0,1,2.54-2.54,2.52,2.52,0,0,1,2.64,2.54m-3.61,5.61,1.18.25.75.14c2,.4,2.8.82,2.8,1.73,0,1.11-1.45,2-3.53,2-1.93,0-3.49-.61-3.49-1.81,0-.86.74-1.63,2.29-2.28m-9.7,1.15v-6.95c0-2-1-3.13-3-3.13a5.42,5.42,0,0,0-3.59,1.7l-.26-1.49h-.71v9.87h1v-7.39a5.36,5.36,0,0,1,3.46-1.79c1.41,0,2.12.82,2.12,2.31v6.87Zm-15.37-9.87h-1v9.87h1Zm.35-3.53A.84.84,0,0,0,160,192a.86.86,0,0,0-.86.84.89.89,0,0,0,.86.86.87.87,0,0,0,.84-.86m-10.14,10.9a4.24,4.24,0,0,1-3.11,1.81c-1.76,0-3-1.43-3-4,0-3.05,1.57-4.46,3.53-4.46a5.76,5.76,0,0,1,2.62.63Zm1,2.5v-15l-1,.21v5.31a6.48,6.48,0,0,0-2.64-.53c-2.4,0-4.54,1.77-4.54,5.36,0,3.32,1.87,4.87,4.05,4.87a4,4,0,0,0,3.15-1.66l.25,1.45Zm-15.12,0v-6.95c0-2-1-3.13-3-3.13a5.42,5.42,0,0,0-3.59,1.7l-.26-1.49H129v9.87h1v-7.39a5.36,5.36,0,0,1,3.46-1.79c1.41,0,2.12.82,2.12,2.31v6.87Zm-15.25,0v-9.87h-1v7.39a5.38,5.38,0,0,1-3.47,1.79c-1.41,0-2.12-.82-2.12-2.31v-6.87h-1v7c0,2,1,3.13,3,3.13a5.47,5.47,0,0,0,3.59-1.7l.25,1.49Zm-13.77-14.07-.15-.94a3.91,3.91,0,0,0-.65,0,2.3,2.3,0,0,0-2.54,2.59v2.58h-1.53v.84h1.53v9h1v-9h2.23l-.15-.84h-2.08v-2.54c0-1.22.61-1.72,1.62-1.72a3.3,3.3,0,0,1,.76.06" transform="translate(-52.27 -62.54)"/></svg>