<svg xmlns="http://www.w3.org/2000/svg" xmlns:xlink="http://www.w3.org/1999/xlink" viewBox="0 0 705.4 529.21"><defs><style>.cls-1{fill:none;}.cls-2{fill:#b8d532;}.cls-3{clip-path:url(#clip-path);}.cls-4{fill:#92ca41;}.cls-5{fill:#02663d;}</style><clipPath id="clip-path" transform="translate(-63.06 -31.59)"><circle class="cls-1" cx="429.09" cy="223.13" r="137.3" transform="translate(-32.1 368.77) rotate(-45)"/></clipPath></defs><title>logo_MyFarm_RGB</title><g id="logo"><path class="cls-2" d="M453.54,195.57V179.63s16.53-69.06,85-72c0,0,70.84-3,143.44,53.13,0,0-41.91,3.54-72.6,34.82l-46,47.82s-20.07-2.37-24.79,3.54c0,0-10-7.68-18.89-6.5,0,0-15.94-21.84-41.32-10l-10.62-24.2s25.42-54.4,94.44-64.93C562.15,141.27,504.3,131.23,453.54,195.57Z" transform="translate(-63.06 -31.59)"/><path class="cls-2" d="M298.88,253.42s13-16.53,34.24-6.49c0,0,15.35-13.58,34.24-10,0,0,10.62-14.76,23-16.53,0,0,2.36-10,5.9-11.8,0,0,.59-54.36-54.9-101,0,0-39.54-27.13-55.48-30.67,0,0,31.87,0,61.39,20.66,0,0,53.71,31.29,68.47,92.68v3.54s17.12-38.37-8.26-97.4c0,0-21.84-50.76-98.58-62,0,0-63.16-15.94-185.94,27.75,0,0,62.57,27.15,80.28,63.75,0,0,51.35,92.08,60.21,100.94C263.47,226.86,279.41,245.75,298.88,253.42Z" transform="translate(-63.06 -31.59)"/><g class="cls-3"><path class="cls-4" d="M399.82,219.77s21.59-.88,32.47,15.65c0,0,21.93-12.9,35.12-9.45,0,0-8.85-24.79-33.35-27.45C434.06,198.52,405.14,198.52,399.82,219.77Z" transform="translate(-63.06 -31.59)"/><path class="cls-4" d="M300.36,270.83s-.3-19.77,21.84-17.41c0,0,9.45,1.57,15.35,6.54,0,0,10.62-21.89,33.64-10.38,0,0,10.33-21,28.63-21.84,0,0,20.07-3,32.17,21.55l1.63,2.06s12.25-28.92,43.83-12.69l1.77,1.18s22.13-13.69,35.42,9.39v1.83s15.34-5.9,21.84,6.2c0,0,18.59-8.56,26.56-3.84,0,0,4.42,5.31-5.9,24.79,0,0-77-2.06-106,20.66,0,0-35.12-18-61.1-20.07C390.08,278.8,326.63,270.54,300.36,270.83Z" transform="translate(-63.06 -31.59)"/><path class="cls-4" d="M460.62,303s32.47-16.82,91.5-16.23c0,0-15.94,34.83-54.9,57.85C497.22,344.62,483.87,313.51,460.62,303Z" transform="translate(-63.06 -31.59)"/><path class="cls-4" d="M323.38,313l-5-6.79s50.77-2.66,52.24,38.37v3.25l-26.12-15.35S347,317.17,323.38,313Z" transform="translate(-63.06 -31.59)"/><path class="cls-4" d="M315.71,301.53s28.92,1.48,46.34,8.85c0,0,24.2,10.92,24.2,25.09,0,0,.29,14.76-1.48,18.6l25.09,4.72s6.2-30.71-17.41-43.1c0,0-26-18.88-76.74-18.59h-1.77Z" transform="translate(-63.06 -31.59)"/><path class="cls-4" d="M310.1,292.68l1.19.05c7.95.36,53.53,2.74,69.94,10.27,0,0,34.9,10.93,40.18,29.52,0,0,3.5,17.41,1.43,28.33H450s3.54-28.35-24.2-45.16c0,0-31-20.36-71.43-23,0,0-44-3.84-45.75-3.55Z" transform="translate(-63.06 -31.59)"/><path class="cls-4" d="M306.26,284.41s59.47,2.66,73.12,7.08c0,0,29.89,7.09,37.56,10,0,0,28.93,10.62,39,26.41,0,0,9.15,21.11,8,28.78l23.61-8.85s-5.6-24.87-37.33-41.65c0,0-24.5-16.2-87.89-23.28l-58.06-3.55Z" transform="translate(-63.06 -31.59)"/></g><path class="cls-5" d="M392.45,63.78A115.34,115.34,0,0,1,405.37,78a146.73,146.73,0,0,1,109.09,25.46,100.42,100.42,0,0,1,23.75-3.85c.09,0,.85,0,2.2,0,2.47,0,7,.11,13.22.66A174.9,174.9,0,0,0,381.5,54.66,124.52,124.52,0,0,1,392.45,63.78Z" transform="translate(-63.06 -31.59)"/><path class="cls-5" d="M574.79,243c-9.74,71.7-71.36,127.15-145.7,127.15-69.84,0-128.47-48.95-143.38-114.35-15.24-8.9-26.56-21.72-28.18-23.61a45.15,45.15,0,0,1-3.42-4.37c2.51,94.35,80,170.33,175,170.33,96.52,0,175.05-78.53,175.05-175,0-3.44-.11-6.86-.31-10.26Z" transform="translate(-63.06 -31.59)"/></g><g id="letras"><polygon class="cls-5" points="7.97 526.57 0 526.57 0 434.05 14.17 434.05 36.74 513.74 57.55 434.05 73.05 434.05 73.05 526.57 64.19 526.57 63.31 446 39.84 526.57 30.99 526.57 8.41 444.67 7.97 526.57"/><polygon class="cls-5" points="80.13 434.05 89.87 434.05 109.79 477.43 128.39 434.05 138.57 434.05 113.78 487.17 114.22 526.57 104.92 526.57 104.92 487.61 80.13 434.05"/><polygon class="cls-2" points="163.36 526.57 163.36 434.05 214.28 434.05 214.28 448.65 181.07 449.54 181.96 471.23 214.28 471.23 214.28 486.29 181.51 486.73 181.07 526.57 163.36 526.57"/><path class="cls-2" d="M322.94,465.63H299l-23.91,92.53h18.16l4.87-19.93h25.23l4,19.93h19.92ZM302.13,521l9.08-37.19L319.4,521Z" transform="translate(-63.06 -31.59)"/><path class="cls-2" d="M399.53,511.89c12.39-2.43,13.28-19.7,13.28-19.7,2.21-25.23-22.14-26.56-22.14-26.56H353.93v92.53h17.71l.44-39.4c23-3.1,21.25,16.38,21.25,16.38v23H413V537.35C412.65,516.1,399.53,511.89,399.53,511.89Zm-9.74-9.51s-3.54,2.65-17.27,2.21V479.35s18.6-2.65,20.81,8C393.33,487.32,396,499.28,389.79,502.38Z" transform="translate(-63.06 -31.59)"/><polygon class="cls-2" points="365.4 526.57 365.4 434.05 392.25 434.05 404.64 500.45 416.6 434.05 445.82 434.05 445.82 526.57 428.55 526.57 428.11 452.2 411.73 526.57 398 526.57 381.18 452.2 380.74 526.57 365.4 526.57"/><rect class="cls-5" x="463.08" y="513.29" width="10.18" height="13.28"/><path class="cls-5" d="M602.3,491.6h7.37s3.84-21.54-18.89-27.45c0,0-27.45-6.78-35.77,24.2,0,0-4.37,24.51,1.83,48.12,0,0,10.92,29.8,34.54,21.69a32,32,0,0,0,18.54-30.84h-6.74s.59,26.26-22.73,24.2c0,0-14.46.59-18-24.79l-.59-30.7s3.53-24,21.54-25.38C583.4,470.65,601.11,471.53,602.3,491.6Z" transform="translate(-63.06 -31.59)"/><path class="cls-5" d="M672.13,475.21c-25.86-29.65-46,4.35-46,4.35-8.86,18.9-4.37,41.26-4.37,41.26,1.77,26.27,11.81,32.47,11.81,32.47,23.61,21.84,41.91-10.92,41.91-10.92C687.89,500.16,672.13,475.21,672.13,475.21Zm-2.83,63.1s-13.63,27.6-31.23,9.2c0,0-7.47-5.22-8.79-27.35,0,0-3.35-18.84,3.25-34.75,0,0,15-28.64,34.26-3.67C666.79,481.74,678.53,502.76,669.3,538.31Z" transform="translate(-63.06 -31.59)"/><polygon class="cls-5" points="641.06 527.97 631.32 527.97 631.32 434.05 646.08 434.05 668.51 513.29 690.05 434.05 704.22 434.05 705.4 526.57 695.36 526.57 695.66 444.67 672.93 527.97 664.37 527.97 640.47 444.67 641.06 527.97"/></g></svg>