<svg id="Layer_1" data-name="Layer 1" xmlns="http://www.w3.org/2000/svg" viewBox="0 0 436.22 83.77"><defs><style>.cls-1{fill:#1e6bad;}.cls-1,.cls-2{fill-rule:evenodd;}.cls-2{fill:#231f20;}</style></defs><title>logo_pdm</title><path class="cls-1" d="M58.11,41a39.06,39.06,0,0,1,20.64-.78c.38.19.62.42.63.69.15,4.49-21.08,8.62-25.26,8.9,4.2.42,29.33-2.48,30-7.92a39.56,39.56,0,0,1,13.45,8.69c2.7,14.29-40.66,24.68-51.1,23.28,12.45,3.34,49.59-.71,55.89-17.56a39,39,0,0,1,5.09,10.44c.28.87.51,1.74.72,2.62-.47,15.52-36.93,26.52-49,24.95,14.25,4,42.48-2.9,50.07-16.8a39.42,39.42,0,0,1-2.07,13.56c-2.36,7.32-23.37,21-35.34,19.27,8.34,2.48,21-1,29.62-8.33A39.33,39.33,0,1,1,58.11,41" transform="translate(-30.56 -36.4)"/><path class="cls-2" d="M156.5,79h28.12c4.58,0,7.35-.11,8.3-.19,3.3-.25,5.41-1.44,6.31-3.6.57-1.33.87-3.72.87-7.17,0-3.25-.33-5.54-1-6.83-1-2-3-3-6.11-3.22-1-.08-3.77-.16-8.39-.25H156.5M134,120.17V37h50.59q15,0,19.36.66,11.91,1.79,15.81,9.57c1.94,3.91,2.91,10.85,2.91,20.9q0,15.41-3.19,21.63a16.34,16.34,0,0,1-10,8.09,51.1,51.1,0,0,1-13.79,1.89c-2.61,0-6.23.07-10.88.07H156.5v20.36Z" transform="translate(-30.56 -36.4)"/><path class="cls-2" d="M343.57,37.43h31.6l18,56.87,20.18-56.87h31.39l13,71.07c.55,3,.78,5.1,3.76,7a9.55,9.55,0,0,0,4.93,1.25c.07,1,.18,2,.35,3H434.58L426.7,60.92l-19.26,58.75H377.67L360.88,61.14,350,119.67H325.06" transform="translate(-30.56 -36.4)"/><path class="cls-2" d="M250.52,98.8h31.54a87.8,87.8,0,0,0,14.34-.86c3.52-.65,5.73-2.85,6.64-6.56q1-4,1-12.77,0-9.31-1.1-13.68c-.85-3.65-2.86-5.85-6-6.62-2.47-.65-7.51-1-15.14-1H250.52m-22.34,55.9V36.4h53.67q17.5,0,22.6.67,9.93,1.29,14.62,5.84,5,4.91,6.59,15.82A148.06,148.06,0,0,1,326.42,77q0,16.62-1.3,23.13c-1.21,5.89-3.16,10.22-5.9,13a17.53,17.53,0,0,1-6.75,4.35,44.8,44.8,0,0,1-10.73,2.16q-5.36.54-19.83.55H228.18Z" transform="translate(-30.56 -36.4)"/></svg>