<?xml version="1.0" encoding="utf-8"?>
<!-- Generator: Adobe Illustrator 23.0.1, SVG Export Plug-In . SVG Version: 6.00 Build 0)  -->
<svg version="1.1" id="Layer_1" xmlns="http://www.w3.org/2000/svg" xmlns:xlink="http://www.w3.org/1999/xlink" x="0px" y="0px"
	 viewBox="0 0 886.83 343.26" style="enable-background:new 0 0 886.83 343.26;" xml:space="preserve">
<style type="text/css">
	.st0{fill:#FFFFFF;}
	.st1{fill:#FECA0D;}
	.st2{opacity:0.89;}
	.st3{fill:#292A60;}
</style>
<g>
	<path class="st0" d="M453.62,258.54v18.2h-3.73v-13.57l-3.27,1.42l-1.41-3.12l5.91-2.93H453.62z"/>
	<path class="st0" d="M472.69,268.61c-0.61,0-1.14,0.16-1.58,0.47c-0.44,0.31-0.74,0.66-0.89,1.04h-3.3l0.52-11.58h10.51l-0.4,3.38
		h-6.95l-0.17,3.83c0.55-0.32,1.26-0.48,2.12-0.48c1.38,0,2.54,0.31,3.5,0.92c0.96,0.61,1.67,1.43,2.15,2.44
		c0.48,1.02,0.73,2.15,0.75,3.39c0,1.39-0.29,2.64-0.86,3.73c-0.57,1.09-1.39,1.94-2.45,2.54c-1.06,0.6-2.31,0.9-3.75,0.9
		c-1,0-2.04-0.19-3.14-0.56s-2.12-0.85-3.06-1.43l1.84-2.93c0.8,0.49,1.54,0.85,2.21,1.08c0.67,0.22,1.42,0.34,2.24,0.34
		c1.03,0,1.89-0.33,2.57-1s1.02-1.55,1.02-2.67c0-1.03-0.27-1.85-0.8-2.48C474.22,268.92,473.53,268.61,472.69,268.61z"/>
	<path class="st0" d="M490,266.29h7.52l0.29,3.28h-7.49L490,266.29z"/>
	<path class="st0" d="M516.84,258.54v18.2h-3.73v-13.57l-3.27,1.42l-1.41-3.12l5.91-2.93H516.84z"/>
	<path class="st0" d="M542.53,270.47c0,1.31-0.27,2.46-0.8,3.47c-0.54,1.01-1.27,1.79-2.21,2.36c-0.94,0.57-2,0.85-3.19,0.85
		c-1.45,0-2.74-0.33-3.86-0.98c-1.12-0.65-2-1.62-2.63-2.89s-0.95-2.82-0.95-4.65c0-2.36,0.58-4.42,1.75-6.19
		c1.17-1.77,2.61-3.17,4.33-4.2c1.72-1.03,3.43-1.66,5.11-1.9l0.52,3.44c-3.56,1.09-5.97,2.68-7.23,4.76
		c0.92-0.49,1.88-0.74,2.87-0.74c1.19,0,2.26,0.3,3.21,0.9c0.96,0.6,1.71,1.4,2.25,2.41S542.53,269.25,542.53,270.47z M539.2,270.63
		c0-1.01-0.29-1.85-0.86-2.52c-0.57-0.68-1.3-1.01-2.18-1.01c-1.47,0-2.74,0.44-3.79,1.32c0.02,1.8,0.37,3.13,1.06,4
		s1.62,1.3,2.78,1.3c0.84,0,1.55-0.3,2.12-0.9C538.91,272.22,539.2,271.49,539.2,270.63z"/>
	<path class="st0" d="M584.56,264.14l-3.65,5.75l-1.44,0.23l-4.68-6.72v13.34h-3.7v-21.86h2.35l6.6,10.1l6-10.1h2.27v21.86h-3.76
		V264.14z"/>
	<path class="st0" d="M607.21,264.59c-0.63,0-1.33,0.1-2.1,0.3c-0.77,0.2-1.42,0.45-1.95,0.72l-1-3.47c0.5-0.36,1.29-0.69,2.38-0.98
		c1.09-0.29,1.96-0.43,2.61-0.43c1.11,0,2.12,0.25,3.04,0.74c0.92,0.49,1.65,1.18,2.2,2.06s0.82,1.87,0.82,2.96v10.26h-2.44
		l-0.63-1.67c-1.17,1.37-2.39,2.06-3.67,2.06c-1.67,0-2.92-0.46-3.76-1.37s-1.26-2.14-1.26-3.68c0-1.59,0.48-2.81,1.43-3.68
		s2.24-1.3,3.85-1.3h2.73c-0.02-0.79-0.22-1.41-0.62-1.85S607.9,264.59,607.21,264.59z M606.66,269.89c-0.61,0-1.11,0.21-1.48,0.64
		s-0.56,0.94-0.56,1.54c0,0.47,0.17,0.88,0.5,1.22c0.34,0.34,0.76,0.51,1.28,0.51c1.11,0,2.13-0.51,3.07-1.54v-2.38H606.66z"/>
	<path class="st0" d="M632.05,265.26c-0.93,0.51-1.79,1.17-2.6,1.96v9.52h-3.73v-15.59h1.95l1.23,2.6c0.67-0.67,1.45-1.26,2.35-1.8
		s1.69-0.8,2.38-0.8l0.75,3.34C633.76,264.49,632.98,264.75,632.05,265.26z"/>
	<path class="st0" d="M652.28,260.73c0.65,0,1.45,0.15,2.41,0.45s1.76,0.7,2.41,1.19l-1.06,2.99c-0.73-0.36-1.38-0.63-1.95-0.8
		s-1.17-0.26-1.78-0.26c-1.03,0-1.89,0.44-2.57,1.32c-0.68,0.88-1.02,1.99-1.02,3.34s0.33,2.46,1,3.31s1.53,1.29,2.58,1.29
		c0.61,0,1.21-0.08,1.78-0.26c0.57-0.17,1.22-0.44,1.95-0.8l1.06,3.02c-0.59,0.51-1.37,0.91-2.33,1.19
		c-0.96,0.28-1.79,0.42-2.5,0.42c-1.49,0-2.8-0.33-3.92-1c-1.12-0.66-1.98-1.61-2.58-2.84s-0.9-2.67-0.9-4.33
		c0-1.65,0.3-3.1,0.9-4.34s1.46-2.2,2.58-2.88C649.48,261.07,650.78,260.73,652.28,260.73z"/>
	<path class="st0" d="M682.22,266.97v9.77h-3.73v-9.58c0-0.96-0.18-1.71-0.53-2.25s-0.85-0.8-1.48-0.8c-0.65,0-1.26,0.17-1.84,0.5
		c-0.57,0.33-1.21,0.78-1.89,1.33v10.8h-3.7V254.4l3.7-0.35v8.3c0.78-0.54,1.6-0.95,2.44-1.25c0.84-0.3,1.6-0.45,2.27-0.45
		c1.76,0,3,0.56,3.7,1.67C681.86,263.42,682.22,264.97,682.22,266.97z"/>
	<path class="st0" d="M715.72,258.13c1.21,0,2.25,0.25,3.13,0.74c0.88,0.49,1.56,1.17,2.04,2.03c0.48,0.86,0.72,1.82,0.72,2.89
		c0,1.42-0.3,2.63-0.89,3.63c-0.59,1.01-1.63,2.21-3.1,3.6l-2.73,2.54h7.26l0.34,3.18H709.8v-2.8l5.8-5.53
		c1-0.94,1.72-1.77,2.18-2.48c0.46-0.71,0.69-1.37,0.69-1.99c0-0.79-0.28-1.4-0.85-1.82s-1.33-0.63-2.28-0.63
		c-1.3,0-2.8,0.55-4.51,1.64l-0.66-3.34C711.84,258.68,713.69,258.13,715.72,258.13z"/>
	<path class="st0" d="M741.24,277.16c-1.51,0-2.88-0.41-4.09-1.24c-1.22-0.82-2.17-1.97-2.86-3.42c-0.69-1.46-1.03-3.1-1.03-4.92
		c0-1.8,0.34-3.42,1.03-4.86c0.69-1.44,1.64-2.56,2.86-3.38c1.21-0.81,2.59-1.22,4.12-1.22c1.51,0,2.88,0.4,4.09,1.21
		c1.22,0.8,2.16,1.92,2.84,3.36c0.68,1.44,1.02,3.04,1.02,4.82c0,1.84-0.34,3.5-1.03,4.97c-0.69,1.47-1.64,2.62-2.86,3.44
		C744.11,276.75,742.75,277.16,741.24,277.16z M741.24,261.66c-0.86,0-1.64,0.25-2.34,0.76c-0.7,0.5-1.24,1.2-1.64,2.07
		c-0.39,0.88-0.59,1.88-0.59,2.99c0,1.16,0.2,2.2,0.59,3.13c0.39,0.93,0.94,1.66,1.64,2.19s1.49,0.79,2.37,0.79
		c0.88,0,1.67-0.26,2.37-0.77c0.7-0.51,1.24-1.22,1.64-2.12s0.59-1.92,0.59-3.05c0-1.14-0.2-2.16-0.6-3.07
		c-0.4-0.91-0.95-1.62-1.65-2.14C742.91,261.92,742.12,261.66,741.24,261.66z"/>
	<path class="st0" d="M768.11,258.54v18.2h-3.73v-13.57l-3.27,1.42l-1.41-3.12l5.91-2.93H768.11z"/>
	<path class="st0" d="M793.8,266.65c0,2.36-0.58,4.42-1.75,6.19c-1.17,1.77-2.61,3.17-4.33,4.2c-1.72,1.03-3.43,1.66-5.11,1.9
		l-0.52-3.44c3.56-1.09,5.97-2.68,7.23-4.76c-0.92,0.49-1.88,0.74-2.87,0.74c-1.19,0-2.26-0.3-3.22-0.9
		c-0.96-0.6-1.71-1.4-2.25-2.41c-0.55-1.01-0.82-2.12-0.82-3.34c0-1.31,0.27-2.46,0.8-3.47c0.54-1.01,1.27-1.79,2.21-2.36
		c0.94-0.57,2-0.85,3.19-0.85c1.46,0,2.74,0.33,3.86,0.98c1.12,0.65,2,1.62,2.63,2.89C793.49,263.28,793.8,264.82,793.8,266.65z
		 M786.54,268.19c1.47,0,2.74-0.44,3.79-1.32c-0.02-1.8-0.37-3.13-1.06-4c-0.69-0.87-1.62-1.3-2.78-1.3c-0.84,0-1.55,0.3-2.12,0.9
		c-0.57,0.6-0.86,1.33-0.86,2.19c0,1.01,0.29,1.85,0.86,2.52S785.66,268.19,786.54,268.19z"/>
</g>
<polygon class="st1" points="808.3,140.39 77.11,127.13 72.62,206.52 802.48,222.62 "/>
<g class="st2">
	<g>
		<path class="st3" d="M152.05,168.72c-0.09,4.14-0.98,7.35-2.65,9.64c-1.67,2.29-4,3.43-6.98,3.41l-7.69-0.17l0.59-26.21l7.69,0.17
			c2.04,0.05,3.76,0.63,5.13,1.75c1.38,1.12,2.38,2.66,3.03,4.62C151.81,163.89,152.11,166.15,152.05,168.72z M148.06,168.63
			c0.06-2.8-0.32-4.96-1.13-6.48c-0.82-1.52-2.1-2.3-3.85-2.34l-3.99-0.09l-0.4,17.77l3.78,0.09c1.71,0.04,3.05-0.66,4.03-2.09
			C147.46,174.05,147.99,171.77,148.06,168.63z"/>
		<path class="st3" d="M167.36,163.63l-0.42,18.69l-3.87-0.09l0.42-18.69L167.36,163.63z M167.72,158.16
			c-0.02,0.8-0.25,1.46-0.69,1.99c-0.44,0.53-0.97,0.79-1.58,0.77c-0.6-0.01-1.1-0.29-1.5-0.84c-0.41-0.55-0.6-1.22-0.58-2.02
			c0.02-0.8,0.24-1.46,0.67-1.99c0.43-0.53,0.94-0.79,1.54-0.77c0.62,0.01,1.13,0.3,1.55,0.84
			C167.54,156.69,167.74,157.37,167.72,158.16z"/>
		<path class="st3" d="M192.3,164.19l-6.11,18.56l-3.34-0.08l-4.93-18.04l3.82-1.38l3.06,12.1l3.41-11.26L192.3,164.19z"/>
		<path class="st3" d="M209.26,164.07c1.45,0.03,2.66,0.5,3.63,1.39c0.97,0.9,1.68,2.09,2.12,3.58c0.44,1.49,0.64,3.14,0.6,4.97
			l-0.03,1.54l-9.74-0.22c0.17,1.31,0.58,2.33,1.23,3.04c0.65,0.71,1.66,1.08,3.03,1.11c0.79,0.02,1.51-0.11,2.15-0.38
			c0.64-0.27,1.34-0.66,2.08-1.19l1.05,3.65c-0.75,0.73-1.56,1.28-2.42,1.66c-0.86,0.38-1.88,0.55-3.05,0.53
			c-2.74-0.06-4.8-0.98-6.18-2.74c-1.38-1.77-2.04-4.18-1.97-7.24c0.04-1.98,0.38-3.71,1-5.18c0.62-1.48,1.48-2.61,2.6-3.39
			C206.47,164.42,207.77,164.04,209.26,164.07z M209.07,168.35c-0.79-0.02-1.47,0.28-2.02,0.9c-0.55,0.62-0.92,1.53-1.1,2.73
			l6.05,0.14c-0.17-1.24-0.5-2.17-0.99-2.8C210.51,168.69,209.87,168.37,209.07,168.35z"/>
		<path class="st3" d="M233.31,170.05c-0.98,0.59-1.89,1.36-2.75,2.29l-0.26,11.41l-3.87-0.09l0.42-18.69l2.03,0.05l1.21,3.15
			c0.71-0.78,1.54-1.48,2.49-2.1c0.95-0.62,1.78-0.92,2.49-0.91l0.68,4.03C235.1,169.17,234.28,169.46,233.31,170.05z"/>
		<path class="st3" d="M250.16,184.66c-0.73-0.02-1.6-0.2-2.58-0.56c-0.99-0.36-1.78-0.85-2.38-1.48l1.24-3.37
			c1.45,0.88,2.7,1.33,3.75,1.36c0.6,0.01,1.15-0.12,1.65-0.39c0.5-0.27,0.76-0.66,0.77-1.18c0.02-1-0.8-1.86-2.48-2.56
			c-1.36-0.62-2.48-1.41-3.37-2.35c-0.89-0.95-1.32-2.12-1.29-3.54c0.04-1.77,0.58-3.15,1.61-4.15c1.04-0.99,2.42-1.47,4.15-1.43
			c0.67,0.02,1.49,0.21,2.46,0.6c0.96,0.38,1.78,0.88,2.44,1.48l-1.24,3.33c-0.75-0.45-1.41-0.79-1.99-1.01
			c-0.58-0.22-1.19-0.34-1.82-0.35c-0.5-0.01-0.91,0.14-1.25,0.45c-0.33,0.31-0.51,0.69-0.52,1.13c-0.01,0.33,0.18,0.64,0.56,0.92
			c0.38,0.28,0.94,0.59,1.66,0.94c1.39,0.7,2.55,1.57,3.46,2.62c0.91,1.05,1.35,2.32,1.31,3.81c-0.04,1.88-0.59,3.31-1.65,4.3
			C253.61,184.23,252.11,184.71,250.16,184.66z"/>
		<path class="st3" d="M271.5,165.98l-0.42,18.69l-3.87-0.09l0.42-18.69L271.5,165.98z M271.86,160.51
			c-0.02,0.8-0.25,1.46-0.69,1.99c-0.44,0.53-0.97,0.79-1.58,0.77c-0.6-0.01-1.1-0.29-1.5-0.84c-0.41-0.55-0.6-1.22-0.58-2.02
			c0.02-0.8,0.24-1.46,0.67-1.99c0.43-0.53,0.94-0.79,1.54-0.77c0.62,0.01,1.13,0.3,1.55,0.84
			C271.68,159.04,271.88,159.72,271.86,160.51z"/>
		<path class="st3" d="M287.86,166.39l2.62,0.06l1.1,3.88l-3.81-0.09l-0.18,7.94c-0.02,1,0.14,1.82,0.5,2.44
			c0.35,0.62,0.87,0.94,1.54,0.96c0.52,0.01,1.05-0.14,1.59-0.46l1.05,3.65c-0.3,0.3-0.75,0.56-1.34,0.78
			c-0.59,0.22-1.13,0.32-1.6,0.31c-1.81-0.04-3.2-0.66-4.19-1.87c-0.99-1.2-1.46-2.87-1.41-5.01l0.2-8.83l-1.94-0.04l0.09-3.85
			l1.94,0.04l0.1-4.43l3.86-0.8L287.86,166.39z"/>
		<path class="st3" d="M316.42,166.99l-6.08,18.49l-0.2,8.94l-3.37-0.08l0.2-8.86l-4.93-18.04l3.82-1.38l3.07,12.1l3.41-11.26
			L316.42,166.99z"/>
		<path class="st3" d="M358.48,178.93c-0.05,2.39-0.74,4.26-2.06,5.6c-1.32,1.35-3.08,1.99-5.26,1.94l-8.31-0.19l0.59-26.21
			l7.86,0.18c2.08,0.05,3.7,0.68,4.85,1.88c1.14,1.21,1.69,3.07,1.63,5.59c-0.04,1.64-0.8,3.18-2.28,4.61
			C357.55,173.81,358.54,176,358.48,178.93z M354.45,178.88c0.03-1.21-0.23-2.15-0.79-2.83c-0.55-0.68-1.31-1.03-2.29-1.05
			l-4.44-0.1l-0.17,7.36l4.17,0.09c1.05,0.02,1.89-0.27,2.52-0.87C354.1,180.88,354.43,180.01,354.45,178.88z M353.69,167.72
			c0.03-1.18-0.22-2.02-0.73-2.52c-0.52-0.5-1.29-0.76-2.32-0.79l-3.46-0.08l-0.15,6.51l2.86,0.06c1.13,0.03,2.04-0.23,2.73-0.77
			C353.31,169.61,353.67,168.8,353.69,167.72z"/>
		<path class="st3" d="M376.2,173.28c-0.98,0.59-1.89,1.36-2.75,2.29l-0.26,11.41l-3.87-0.09l0.42-18.69l2.03,0.05l1.21,3.15
			c0.71-0.78,1.54-1.48,2.49-2.1c0.95-0.62,1.78-0.92,2.49-0.91l0.68,4.03C378,172.39,377.18,172.68,376.2,173.28z"/>
		<path class="st3" d="M393.19,168.72l-0.42,18.69l-3.87-0.09l0.42-18.69L393.19,168.72z M393.55,163.26
			c-0.02,0.8-0.25,1.46-0.69,1.99c-0.44,0.53-0.97,0.79-1.58,0.77c-0.6-0.01-1.1-0.29-1.5-0.84c-0.41-0.55-0.6-1.22-0.58-2.02
			c0.02-0.8,0.24-1.46,0.67-1.99c0.43-0.53,0.94-0.79,1.54-0.77c0.62,0.01,1.13,0.3,1.55,0.84
			C393.37,161.79,393.57,162.46,393.55,163.26z"/>
		<path class="st3" d="M412.77,172.71c-0.68-0.02-1.32,0.17-1.92,0.55c-0.6,0.39-1.27,0.9-2,1.56l-0.29,12.95l-3.87-0.09l0.42-18.69
			l2.53,0.06l0.61,2.02c0.91-0.8,1.88-1.42,2.9-1.86c1.02-0.44,1.93-0.65,2.73-0.63c1.83,0.04,3.09,0.74,3.8,2.09
			c0.7,1.35,1.03,3.22,0.98,5.61l-0.26,11.72l-3.87-0.09l0.26-11.48c0.03-1.16-0.14-2.06-0.49-2.71S413.42,172.73,412.77,172.71z"/>
		<path class="st3" d="M443.63,189.45c-0.06,2.57-0.8,4.53-2.22,5.87c-1.42,1.34-3.3,1.99-5.65,1.94c-0.73-0.02-1.72-0.24-2.97-0.66
			c-1.24-0.43-2.2-0.96-2.88-1.59l1.24-3.52c0.88,0.58,1.69,1.01,2.41,1.29c0.73,0.27,1.46,0.43,2.2,0.47
			c1.17,0,2.12-0.35,2.84-1.05c0.72-0.7,1.1-1.66,1.12-2.87l0.04-1.58c-1.01,0.77-2.08,1.15-3.21,1.12c-2.24-0.05-4-0.97-5.26-2.76
			c-1.26-1.79-1.86-4.19-1.79-7.19c0.04-1.95,0.38-3.67,1-5.14c0.62-1.48,1.49-2.61,2.63-3.41c1.13-0.8,2.46-1.18,3.99-1.14
			c0.66,0.02,1.35,0.24,2.09,0.66c0.73,0.43,1.38,0.97,1.94,1.62l0.9-1.68l2.03,0.05L443.63,189.45z M439.86,183.12l0.18-7.98
			c-0.5-0.58-0.99-0.99-1.46-1.25c-0.47-0.25-0.99-0.39-1.54-0.4c-1.05-0.02-1.9,0.48-2.54,1.5c-0.64,1.03-0.98,2.36-1.01,4.01
			c-0.04,1.64,0.24,2.98,0.82,4.01c0.58,1.03,1.41,1.56,2.48,1.58c0.52,0.01,1.02-0.11,1.51-0.35
			C438.8,184,439.32,183.62,439.86,183.12z"/>
		<path class="st3" d="M459.9,189.39c-0.73-0.02-1.6-0.2-2.58-0.56c-0.99-0.36-1.78-0.85-2.38-1.48l1.24-3.37
			c1.45,0.88,2.7,1.33,3.75,1.36c0.6,0.01,1.14-0.12,1.65-0.39c0.5-0.27,0.76-0.66,0.77-1.18c0.02-1-0.8-1.86-2.48-2.56
			c-1.36-0.62-2.48-1.41-3.37-2.35c-0.89-0.95-1.32-2.12-1.29-3.54c0.04-1.77,0.58-3.15,1.61-4.15c1.04-0.99,2.42-1.47,4.15-1.43
			c0.68,0.02,1.5,0.21,2.46,0.6c0.96,0.38,1.78,0.88,2.44,1.48l-1.24,3.33c-0.75-0.45-1.41-0.79-1.99-1.01
			c-0.58-0.22-1.19-0.34-1.83-0.35c-0.5-0.01-0.91,0.14-1.25,0.45c-0.33,0.31-0.51,0.69-0.52,1.13c-0.01,0.33,0.18,0.64,0.56,0.92
			c0.38,0.28,0.93,0.59,1.66,0.94c1.4,0.7,2.55,1.57,3.46,2.62c0.91,1.05,1.35,2.32,1.31,3.81c-0.04,1.88-0.59,3.31-1.65,4.3
			C463.35,188.96,461.85,189.44,459.9,189.39z"/>
		<path class="st3" d="M493.48,163.47l3.9,0.09l-0.37,16.3c-0.05,2.08,0.32,3.65,1.1,4.71c0.78,1.06,1.85,1.6,3.2,1.63
			c1.35,0.03,2.44-0.48,3.27-1.53c0.83-1.05,1.27-2.59,1.31-4.62l0.37-16.3l3.9,0.09l-0.38,16.69c-0.04,1.9-0.43,3.6-1.16,5.08
			c-0.73,1.49-1.74,2.65-3.03,3.48c-1.29,0.83-2.77,1.23-4.44,1.19c-1.65-0.04-3.09-0.5-4.32-1.39c-1.23-0.89-2.17-2.1-2.81-3.63
			c-0.64-1.53-0.94-3.23-0.9-5.11L493.48,163.47z"/>
		<path class="st3" d="M526.24,190.89c-0.74-0.02-1.6-0.2-2.58-0.56c-0.99-0.36-1.78-0.85-2.38-1.48l1.24-3.37
			c1.45,0.88,2.7,1.33,3.75,1.36c0.6,0.01,1.14-0.12,1.65-0.39c0.5-0.27,0.76-0.66,0.77-1.18c0.02-1-0.8-1.86-2.48-2.56
			c-1.36-0.62-2.48-1.41-3.37-2.35c-0.89-0.95-1.32-2.12-1.29-3.54c0.04-1.77,0.58-3.15,1.61-4.15c1.04-0.99,2.42-1.47,4.15-1.43
			c0.68,0.02,1.5,0.21,2.46,0.6c0.96,0.38,1.78,0.88,2.44,1.48l-1.24,3.33c-0.75-0.45-1.41-0.79-1.99-1.01
			c-0.58-0.22-1.19-0.34-1.83-0.35c-0.5-0.01-0.91,0.14-1.25,0.45c-0.33,0.31-0.51,0.69-0.52,1.13c-0.01,0.33,0.18,0.64,0.56,0.92
			c0.38,0.28,0.94,0.59,1.66,0.94c1.39,0.7,2.55,1.57,3.46,2.62c0.91,1.05,1.35,2.32,1.31,3.81c-0.04,1.88-0.59,3.31-1.65,4.3
			C529.68,190.46,528.18,190.93,526.24,190.89z"/>
		<path class="st3" d="M557.88,164.92l16.38,0.37l0.54,3.94l-6.94-0.16l-0.5,22.28l-3.9-0.09l0.5-22.28l-6.17-0.14L557.88,164.92z"
			/>
		<path class="st3" d="M591.68,192.37c-1.55-0.03-2.9-0.46-4.04-1.29s-2.02-1.98-2.62-3.47c-0.6-1.49-0.88-3.23-0.84-5.21
			c0.04-1.98,0.4-3.71,1.07-5.18c0.67-1.48,1.59-2.61,2.77-3.39c1.18-0.78,2.54-1.16,4.09-1.12c1.55,0.04,2.9,0.46,4.04,1.29
			c1.14,0.82,2.02,1.98,2.62,3.47s0.88,3.23,0.84,5.21c-0.04,1.98-0.4,3.71-1.07,5.18s-1.59,2.6-2.77,3.39
			C594.6,192.03,593.23,192.4,591.68,192.37z M595.63,182.58c0.04-1.62-0.28-2.95-0.95-3.99c-0.67-1.04-1.55-1.58-2.65-1.6
			c-1.07-0.02-1.97,0.48-2.7,1.52c-0.73,1.04-1.11,2.37-1.15,3.98s0.28,2.95,0.95,3.99c0.67,1.04,1.55,1.58,2.65,1.6
			c1.07,0.02,1.97-0.48,2.7-1.52C595.21,185.53,595.59,184.2,595.63,182.58z"/>
		<path class="st3" d="M623.88,193.52c-0.06,2.57-0.8,4.53-2.22,5.87c-1.42,1.34-3.3,1.99-5.65,1.94c-0.73-0.02-1.72-0.24-2.97-0.67
			c-1.24-0.43-2.2-0.96-2.88-1.59l1.24-3.52c0.88,0.58,1.69,1.01,2.42,1.29c0.73,0.27,1.46,0.43,2.2,0.47
			c1.17,0,2.12-0.35,2.84-1.05c0.72-0.7,1.1-1.66,1.12-2.87l0.04-1.58c-1.01,0.77-2.08,1.15-3.21,1.12c-2.25-0.05-4-0.97-5.26-2.76
			c-1.26-1.79-1.86-4.19-1.79-7.19c0.04-1.95,0.38-3.67,1-5.14c0.62-1.48,1.49-2.61,2.63-3.41c1.13-0.8,2.46-1.18,3.99-1.14
			c0.65,0.01,1.35,0.24,2.09,0.66c0.74,0.43,1.38,0.97,1.95,1.62l0.9-1.68l2.03,0.05L623.88,193.52z M620.11,187.18l0.18-7.98
			c-0.5-0.58-0.99-0.99-1.46-1.25c-0.47-0.25-0.99-0.39-1.54-0.4c-1.05-0.02-1.9,0.48-2.54,1.5c-0.64,1.03-0.98,2.36-1.01,4.01
			c-0.04,1.64,0.24,2.98,0.82,4.01c0.58,1.03,1.41,1.56,2.48,1.58c0.52,0.01,1.02-0.11,1.51-0.35
			C619.04,188.06,619.57,187.69,620.11,187.18z"/>
		<path class="st3" d="M642.8,173.85c1.45,0.03,2.66,0.5,3.63,1.39s1.68,2.09,2.12,3.58c0.44,1.49,0.64,3.14,0.6,4.97l-0.03,1.54
			l-9.74-0.22c0.17,1.31,0.58,2.33,1.23,3.04s1.66,1.08,3.03,1.11c0.79,0.02,1.51-0.11,2.15-0.38c0.64-0.27,1.34-0.66,2.08-1.19
			l1.05,3.65c-0.75,0.73-1.56,1.28-2.42,1.66c-0.86,0.38-1.88,0.55-3.05,0.53c-2.74-0.06-4.8-0.98-6.18-2.74
			c-1.38-1.77-2.04-4.18-1.97-7.24c0.04-1.98,0.38-3.71,1-5.18c0.62-1.48,1.48-2.61,2.59-3.39S641.31,173.82,642.8,173.85z
			 M642.61,178.13c-0.79-0.02-1.47,0.28-2.02,0.9s-0.92,1.53-1.1,2.73l6.05,0.14c-0.17-1.24-0.5-2.17-1-2.8
			C644.05,178.47,643.4,178.15,642.61,178.13z"/>
		<path class="st3" d="M664.83,174.89l2.62,0.06l1.11,3.88l-3.81-0.09l-0.18,7.94c-0.02,1,0.14,1.82,0.5,2.44
			c0.35,0.62,0.87,0.94,1.54,0.96c0.51,0.01,1.04-0.14,1.59-0.46l1.05,3.65c-0.3,0.3-0.75,0.56-1.34,0.78
			c-0.59,0.22-1.12,0.32-1.6,0.31c-1.81-0.04-3.2-0.66-4.19-1.87c-0.99-1.2-1.46-2.87-1.41-5.01l0.2-8.83l-1.94-0.04l0.09-3.85
			l1.94,0.04l0.1-4.43l3.86-0.8L664.83,174.89z"/>
		<path class="st3" d="M694.19,182.49l-0.26,11.72l-3.87-0.09l0.26-11.48c0.03-1.16-0.14-2.06-0.49-2.71
			c-0.35-0.65-0.86-0.98-1.51-1c-0.68-0.02-1.32,0.17-1.92,0.55c-0.6,0.39-1.27,0.9-2,1.56l-0.29,12.95l-3.84-0.09l0.6-26.79
			l3.85-0.34l-0.22,9.94c0.83-0.62,1.68-1.11,2.57-1.45c0.88-0.34,1.67-0.5,2.37-0.49c1.83,0.04,3.09,0.74,3.8,2.09
			C693.92,178.23,694.25,180.1,694.19,182.49z"/>
		<path class="st3" d="M712.53,175.43c1.45,0.03,2.66,0.5,3.63,1.39c0.97,0.9,1.68,2.09,2.12,3.58c0.44,1.49,0.64,3.14,0.6,4.97
			l-0.03,1.54l-9.74-0.22c0.17,1.31,0.58,2.33,1.23,3.04c0.65,0.71,1.66,1.08,3.03,1.11c0.79,0.02,1.51-0.11,2.16-0.38
			c0.64-0.27,1.34-0.66,2.08-1.19l1.05,3.65c-0.75,0.73-1.56,1.28-2.42,1.66c-0.86,0.38-1.88,0.55-3.05,0.53
			c-2.74-0.06-4.8-0.98-6.18-2.74c-1.38-1.77-2.04-4.18-1.97-7.24c0.04-1.98,0.38-3.71,1-5.18c0.62-1.48,1.48-2.61,2.59-3.39
			C709.74,175.77,711.04,175.39,712.53,175.43z M712.35,179.7c-0.79-0.02-1.47,0.28-2.02,0.9c-0.55,0.62-0.92,1.53-1.1,2.73
			l6.05,0.14c-0.17-1.24-0.5-2.17-1-2.8C713.78,180.04,713.14,179.72,712.35,179.7z"/>
		<path class="st3" d="M736.58,181.41c-0.98,0.59-1.89,1.36-2.75,2.29l-0.26,11.41l-3.87-0.09l0.42-18.69l2.03,0.05l1.21,3.15
			c0.71-0.78,1.54-1.48,2.49-2.1c0.95-0.62,1.78-0.92,2.49-0.91l0.68,4.03C738.38,180.52,737.56,180.81,736.58,181.41z"/>
	</g>
</g>
<g>
	<g>
		<path class="st0" d="M56,65.99c-5.94,3.46-11.38,7.69-16.33,12.67v64.2H18.89V42.1h11.13l6.86,16.62
			c4.45-4.16,9.55-7.96,15.3-11.43c5.75-3.46,10.79-5.19,15.12-5.19l4.27,18.7C67.13,60.8,61.93,62.53,56,65.99z"/>
		<path class="st0" d="M174.53,39.4c13.23,0,23.25,4.92,30.05,14.75c6.8,9.84,10.2,22.37,10.2,37.61v6.86h-62.33
			c1.86,18.01,11.44,27.01,28.75,27.01c4.82,0,9.12-0.73,12.89-2.18c3.77-1.45,8.32-3.7,13.64-6.75l6.31,17.04
			c-10.02,7.76-21.09,11.64-33.21,11.64c-16.33,0-28.79-4.74-37.38-14.23c-8.6-9.49-12.89-22.4-12.89-38.75
			c0-10.53,1.76-19.77,5.29-27.74c3.53-7.96,8.59-14.16,15.21-18.6C157.68,41.61,165.5,39.4,174.53,39.4z M173.98,59.34
			c-5.94,0-10.73,2.08-14.38,6.23c-3.65,4.16-5.91,9.97-6.77,17.45h41.93c-1.11-7.76-3.4-13.64-6.86-17.66
			C184.43,61.35,179.79,59.34,173.98,59.34z"/>
		<path class="st0" d="M307.36,42.93h16.32l6.31,17.87h-22.63v48c0,5.4,1.08,9.73,3.25,12.99c2.16,3.26,5.41,4.88,9.74,4.88
			c2.84,0,5.94-0.83,9.27-2.49l5.75,17.25c-1.85,1.38-4.42,2.6-7.7,3.64c-3.28,1.04-6.28,1.56-9,1.56
			c-10.02,0-17.87-2.91-23.56-8.73c-5.69-5.82-8.53-14.2-8.53-25.14V60.8h-12.43V42.93h12.43V18.2l20.78-4.57V42.93z"/>
		<path class="st0" d="M438.33,65.99c-5.94,3.46-11.38,7.69-16.33,12.67v64.2h-20.78V42.1h11.13l6.86,16.62
			c4.45-4.16,9.55-7.96,15.3-11.43c5.75-3.46,10.79-5.19,15.12-5.19l4.27,18.7C449.46,60.8,444.26,62.53,438.33,65.99z"/>
		<path class="st0" d="M556.87,39.4c13.23,0,23.25,4.92,30.05,14.75c6.8,9.84,10.2,22.37,10.2,37.61v6.86h-62.33
			c1.86,18.01,11.44,27.01,28.75,27.01c4.82,0,9.12-0.73,12.89-2.18c3.77-1.45,8.32-3.7,13.64-6.75l6.31,17.04
			c-10.02,7.76-21.09,11.64-33.21,11.64c-16.33,0-28.79-4.74-37.38-14.23c-8.6-9.49-12.89-22.4-12.89-38.75
			c0-10.53,1.76-19.77,5.29-27.74c3.53-7.96,8.59-14.16,15.21-18.6C540.01,41.61,547.84,39.4,556.87,39.4z M556.31,59.34
			c-5.94,0-10.73,2.08-14.38,6.23c-3.65,4.16-5.91,9.97-6.77,17.45h41.93c-1.11-7.76-3.4-13.64-6.86-17.66
			C566.76,61.35,562.12,59.34,556.31,59.34z"/>
		<path class="st0" d="M699.15,60.59c-8.16,0-16.82,2.29-25.97,6.86l-5.75-19.12c3.22-2.35,8.19-4.43,14.93-6.23
			c6.74-1.8,12.21-2.7,16.42-2.7c6.92,0,13.26,1.59,19.01,4.78c5.75,3.19,10.3,7.52,13.64,12.99c3.34,5.47,5.01,11.6,5.01,18.39
			v67.32h-13.91l-3.15-10.18c-3.46,3.74-7.42,6.79-11.87,9.14c-4.45,2.35-8.9,3.53-13.36,3.53c-10.39,0-18.27-2.91-23.65-8.73
			c-5.38-5.82-8.07-13.57-8.07-23.27c0-10.11,3.06-17.94,9.18-23.48c6.12-5.54,14.19-8.31,24.21-8.31h19.67
			C715.23,67.59,709.79,60.59,699.15,60.59z M695.44,97.16c-4.58,0-8.19,1.56-10.85,4.67c-2.66,3.12-3.99,6.96-3.99,11.53
			c0,3.6,1.17,6.75,3.53,9.45c2.35,2.7,5.57,4.05,9.65,4.05c3.83,0,7.67-1.04,11.5-3.12c3.83-2.08,7.3-4.92,10.39-8.52V97.16H695.44
			z"/>
		<path class="st0" d="M834.02,42.93h16.32l6.31,17.87h-22.63v48c0,5.4,1.08,9.73,3.24,12.99c2.16,3.26,5.41,4.88,9.74,4.88
			c2.84,0,5.94-0.83,9.27-2.49l5.75,17.25c-1.85,1.38-4.42,2.6-7.7,3.64c-3.28,1.04-6.28,1.56-9,1.56
			c-10.02,0-17.87-2.91-23.56-8.73c-5.69-5.82-8.53-14.2-8.53-25.14V60.8h-12.43V42.93h12.43V18.2l20.78-4.57V42.93z"/>
	</g>
</g>
<g>
	<g>
		<path class="st1" d="M671.5,315.46l0.49,4.6h-14.3V298.2h13.81l0.49,4.6h-9.07v3.99h6l0.49,4.6h-6.49v4.08H671.5z M669.57,290.1
			l-3.27,6.4l-3.79-0.71l1.89-5.69H669.57z"/>
		<path class="st1" d="M682.32,298.46l5.14-0.58l4.85,15.18l4.65-14.85h5.2l-7.32,21.86h-5.22L682.32,298.46z"/>
		<path class="st1" d="M712.78,309.23c0-2.21,0.43-4.19,1.29-5.93s2.06-3.11,3.59-4.08s3.26-1.46,5.2-1.46
			c2.07,0,3.86,0.49,5.38,1.48c1.52,0.99,2.69,2.34,3.5,4.05s1.22,3.62,1.22,5.72c0,2.23-0.43,4.22-1.28,5.96
			c-0.85,1.75-2.04,3.11-3.57,4.08s-3.28,1.46-5.25,1.46c-2.03,0-3.8-0.5-5.33-1.5s-2.69-2.35-3.52-4.07
			C713.19,313.24,712.78,311.33,712.78,309.23z M722.91,302.64c-0.88,0-1.68,0.27-2.4,0.82c-0.72,0.55-1.29,1.32-1.72,2.31
			s-0.65,2.14-0.65,3.42c0,1.89,0.42,3.43,1.25,4.63c0.83,1.2,1.98,1.8,3.43,1.8c1.4,0,2.54-0.57,3.43-1.72
			c0.89-1.15,1.33-2.78,1.33-4.9c0-1.87-0.43-3.39-1.28-4.58C725.46,303.23,724.33,302.64,722.91,302.64z"/>
		<path class="st1" d="M745.59,320.06V298.2h8.21c2.33,0,4.26,0.62,5.77,1.87c1.51,1.24,2.27,3.11,2.27,5.59
			c0,1.29-0.23,2.42-0.7,3.39c-0.47,0.98-1.12,1.77-1.94,2.4l4.31,8.62h-6.06l-3.16-6.88h-3.47v6.88H745.59z M756.44,305.66
			c0-0.94-0.24-1.66-0.73-2.14c-0.49-0.48-1.18-0.72-2.08-0.72h-2.81v5.79h2.87c0.8,0,1.46-0.27,1.98-0.82
			C756.18,307.22,756.44,306.52,756.44,305.66z"/>
		<path class="st1" d="M773.55,320.06l7.32-21.86h5.22l7.29,21.61l-5.14,0.58l-1.41-4.63h-6.75l-1.35,4.31H773.55z M781.53,311.16
			h3.82l-1.95-5.95L781.53,311.16z"/>
	</g>
</g>
</svg>
