<svg xmlns="http://www.w3.org/2000/svg" viewBox="0 0 285.4 158.296">
  <defs>
    <style>
      .cls-1, .cls-2 {
        fill: #fff;
      }

      .cls-1 {
        opacity: 0.59;
      }

      .cls-3 {
        fill: #fdfdfd;
      }

      .cls-4 {
        fill: rgba(253,253,253,0.8);
      }

      .cls-5 {
        fill: #ffcb05;
      }

      .cls-6 {
        fill: #ef3756;
      }
    </style>
  </defs>
  <g id="Group_28" data-name="Group 28" transform="translate(196 -481.238)">
    <g id="Group_23" data-name="Group 23" transform="translate(-162.382 593.019)">
      <rect id="Rectangle_83" data-name="Rectangle 83" class="cls-1" width="8.624" height="22.855" transform="translate(8.762 0) rotate(7.296)"/>
      <rect id="Rectangle_84" data-name="Rectangle 84" class="cls-2" width="6.782" height="22.855" transform="translate(0 14.6) rotate(-87.257)"/>
    </g>
    <g id="Group" transform="translate(-46.36 474.103)">
      <path id="Path_81" data-name="Path 81" class="cls-3" d="M12.576-9.5V0H3.84V-32.64H17.568a16.919,16.919,0,0,1,6.792,1.32,10.982,10.982,0,0,1,4.848,3.984,11.26,11.26,0,0,1,1.8,6.456,10.242,10.242,0,0,1-1.92,6.312,11.447,11.447,0,0,1-5.064,3.816A18.374,18.374,0,0,1,17.184-9.5ZM21.984-20.88a4.955,4.955,0,0,0-1.272-3.552,4.5,4.5,0,0,0-3.432-1.344h-4.7v9.408h4.8a4.485,4.485,0,0,0,3.312-1.3A4.367,4.367,0,0,0,21.984-20.88ZM66-16.512a18.514,18.514,0,0,1-1.968,8.736,13.9,13.9,0,0,1-5.52,5.76A16.144,16.144,0,0,1,50.4,0H35.808V-32.64H50.592a16.135,16.135,0,0,1,8.376,2.064,13.24,13.24,0,0,1,5.256,5.712A18.847,18.847,0,0,1,66-16.512Zm-9.024,0a11.424,11.424,0,0,0-1.8-6.7,5.783,5.783,0,0,0-5.016-2.568H44.544V-6.864h5.28a6.3,6.3,0,0,0,5.16-2.5Q56.976-11.856,56.976-16.512Zm36.24.72L88.8-9.84l-3.5.48-5.28-6.432V0H71.28V-32.64h6l9.84,12.432L96.144-32.64h5.808V0H93.216Z" transform="translate(0 47)"/>
      <path id="Path_82" data-name="Path 82" class="cls-4" d="M12.576-6.864H26.448L27.264,0H3.84V-32.64h8.736ZM39.264-31.152a4.486,4.486,0,0,1-1.416,3.312,4.658,4.658,0,0,1-3.384,1.392,4.523,4.523,0,0,1-3.312-1.392,4.523,4.523,0,0,1-1.392-3.312,4.658,4.658,0,0,1,1.392-3.384,4.486,4.486,0,0,1,3.312-1.416,4.618,4.618,0,0,1,3.384,1.416A4.618,4.618,0,0,1,39.264-31.152ZM38.88-23.28V0H30.144V-23.28ZM66.384.768a9.109,9.109,0,0,1-1.608,5.3A10.719,10.719,0,0,1,60.264,9.72a16.029,16.029,0,0,1-6.7,1.32,27.256,27.256,0,0,1-5.328-.7,15.93,15.93,0,0,1-5.328-1.992l2.64-6.144A15.88,15.88,0,0,0,49.44,3.624a17.606,17.606,0,0,0,3.5.36,5.715,5.715,0,0,0,3.384-.936A2.774,2.774,0,0,0,57.648.72V-.1a10.4,10.4,0,0,1-3.456.624,12.179,12.179,0,0,1-8.664-3.072Q42.24-5.616,42.24-11.616q0-6.1,3.336-9.288t9-3.192a9.725,9.725,0,0,1,6.288,2.3l1.152-1.44h4.368Zm-8.736-7.68v-9.84a6.2,6.2,0,0,0-2.5-.624,3.313,3.313,0,0,0-2.784,1.536,7.027,7.027,0,0,0-1.1,4.176,6.477,6.477,0,0,0,1.1,4.056,3.779,3.779,0,0,0,3.168,1.416A3.729,3.729,0,0,0,57.648-6.912Zm38.976-8.112V0H87.888V-14.208q0-2.784-2.5-2.784a8.3,8.3,0,0,0-2.16.408,18.8,18.8,0,0,0-2.544.936V0H71.952V-33.36l8.736-.528v11.856a16.878,16.878,0,0,1,7.488-2.016q4.224,0,6.336,2.472A9.741,9.741,0,0,1,96.624-15.024Zm15.024-7.3h6.1l.816,6.864h-6.912V-9.7a3.316,3.316,0,0,0,.744,2.28,2.529,2.529,0,0,0,1.992.84,6.8,6.8,0,0,0,3.36-.912l2.5,5.952A8.884,8.884,0,0,1,117.384-.12a11.382,11.382,0,0,1-3.576.648,13.654,13.654,0,0,1-5.376-1.056,9.317,9.317,0,0,1-4.008-3.144,8.4,8.4,0,0,1-1.512-5.064v-6.72h-3.6V-22.32h3.6v-6.288l8.736-1.2Z" transform="translate(0 102.862)"/>
      <path id="Path_83" data-name="Path 83" class="cls-3" d="M34.032-16.512a18.514,18.514,0,0,1-1.968,8.736,13.9,13.9,0,0,1-5.52,5.76A16.144,16.144,0,0,1,18.432,0H3.84V-32.64H18.624A16.135,16.135,0,0,1,27-30.576a13.24,13.24,0,0,1,5.256,5.712A18.847,18.847,0,0,1,34.032-16.512Zm-9.024,0a11.424,11.424,0,0,0-1.8-6.7,5.783,5.783,0,0,0-5.016-2.568H12.576V-6.864h5.28a6.3,6.3,0,0,0,5.16-2.5Q25.008-11.856,25.008-16.512ZM49.44.528a13.765,13.765,0,0,1-9.432-3.144Q36.432-5.76,36.432-11.76a12.21,12.21,0,0,1,1.752-6.6,11.362,11.362,0,0,1,4.752-4.272,15.065,15.065,0,0,1,6.7-1.464,15.577,15.577,0,0,1,6.864,1.44,10.735,10.735,0,0,1,4.656,4.272,13.227,13.227,0,0,1,1.68,6.864A11.846,11.846,0,0,1,61.08-4.992a10.983,10.983,0,0,1-4.8,4.128A16.28,16.28,0,0,1,49.44.528ZM53.808-11.52a6.688,6.688,0,0,0-1.08-3.936,3.464,3.464,0,0,0-3-1.536A3.821,3.821,0,0,0,46.584-15.6a5.935,5.935,0,0,0-1.128,3.84,6.134,6.134,0,0,0,1.056,3.792,3.568,3.568,0,0,0,3.024,1.392A4.006,4.006,0,0,0,52.7-7.824,5.426,5.426,0,0,0,53.808-11.52ZM77.472-24.1a12.5,12.5,0,0,1,7.968,2.352l-2.448,6a12.087,12.087,0,0,0-2.4-.984,8.91,8.91,0,0,0-2.256-.264A4.213,4.213,0,0,0,75.144-15.5a5.519,5.519,0,0,0-1.368,3.888,5,5,0,0,0,1.344,3.7,4.388,4.388,0,0,0,3.216,1.344,9.277,9.277,0,0,0,2.256-.264,10.722,10.722,0,0,0,2.4-.984l2.448,6A12.5,12.5,0,0,1,77.472.528a13.135,13.135,0,0,1-9.24-3.192q-3.48-3.192-3.48-8.952a13.288,13.288,0,0,1,1.608-6.672,10.717,10.717,0,0,1,4.488-4.32A14.228,14.228,0,0,1,77.472-24.1ZM96.72.528a24.512,24.512,0,0,1-5.112-.672,11.906,11.906,0,0,1-4.824-2.064l2.448-5.52a17,17,0,0,0,3.384,1.152,14.489,14.489,0,0,0,3.24.48,3.206,3.206,0,0,0,1.44-.288.865.865,0,0,0,.576-.768q0-.288-.648-.7a7.7,7.7,0,0,0-1.656-.744,21.929,21.929,0,0,1-5.976-3.072,5.582,5.582,0,0,1-2.328-4.656A6.755,6.755,0,0,1,90-22.032Q92.736-24.1,97.584-24.1a20.943,20.943,0,0,1,4.536.552,10.481,10.481,0,0,1,4.248,1.944l-2.448,5.52a19.462,19.462,0,0,0-2.952-1.008,11.3,11.3,0,0,0-2.76-.384,4.424,4.424,0,0,0-1.728.288q-.672.288-.672.768,0,.288.672.672a10.825,10.825,0,0,0,1.776.768,20.026,20.026,0,0,1,5.88,3.048,5.687,5.687,0,0,1,2.28,4.68,7.053,7.053,0,0,1-2.448,5.736Q101.52.528,96.72.528Z" transform="translate(0 158.764)"/>
    </g>
    <path id="Path_72" data-name="Path 72" class="cls-5" d="M106.589,480.721l-5.8.47-6.586.549-5.8.47-6.586.549-5.8.47-6.586.549-5.8.47-6.586.549-5.8.47-6.586.549-5.8.47-9.761.823a19.913,19.913,0,0,0-.666-2l6.86-4.469,10.428-6.782,3.215-2.117,1.646-1.1,7.213-4.7,13.642-8.9h0l2-1.294,3.528-2.313,15.289-9.957,12-7.84L90.124,414l-.314.2h0l-10.428,6.782-3.215,2.117-1.646,1.1L68.995,427.8h0l-10.428,6.782L55.353,436.7l-1.646,1.1-7.8,5.214-8.154,5.331L22.462,458.3h0L12.035,465.08h0L0,472.92l4.861,7.487A14.619,14.619,0,0,0,13.6,505.575l.314,3.724.431,5.135L19.209,572.3l107.177-9.016-4.861-57.861-.431-5.135-1.725-20.62-.392.039Zm4.234,4.783-7.056,16.229-6.547.549,7.056-16.229Zm-12.388,1.058-7.056,16.229-6.547.549,7.056-16.229Zm-12.388,1.058L78.991,503.85l-6.547.549L79.5,488.169ZM73.66,488.64,66.6,504.869l-6.547.549,7.056-16.229ZM61.272,489.7l-7.056,16.229-6.547.549,7.056-16.229Zm-12.388,1.019-7.056,16.229-6.547.549,7.056-16.229ZM36.5,491.776,29.44,508.005l-6.547.549,3.881-8.938a14.468,14.468,0,0,0,2.548-5.841l.627-1.451C29.911,492.325,36.5,491.776,36.5,491.776ZM7.762,484.837a9.316,9.316,0,0,1,4.273-2.823,7.342,7.342,0,0,1,1.333-.314c.235-.039.51-.078.784-.118a9.352,9.352,0,0,1,4.43.706,9.85,9.85,0,0,1,2.587,1.607,9.449,9.449,0,0,1,2.666,3.842c.039.157.118.314.157.431h0a12.213,12.213,0,0,1,.431,2.078,9.211,9.211,0,0,1-.039,2.078c-.039.2-.039.353-.078.549a9.542,9.542,0,0,1-6,7.1,8.964,8.964,0,0,1-2.548.588,9.392,9.392,0,0,1-2.587-.157,9.545,9.545,0,0,1-7.684-8.507A9.4,9.4,0,0,1,7.762,484.837Zm79.07-43.827L81.3,444.616l-1.45-17.641,5.527-3.607ZM74.953,430.19l1.45,17.641-5.527,3.607L69.426,433.8ZM29.244,478.565l-1.45-17.641,5.527-3.607,1.45,17.641Zm10.428-6.782-1.45-17.641,5.527-3.607,1.45,17.641ZM50.06,465l-1.45-17.641,5.527-3.607,1.45,17.641Zm10.428-6.821-1.45-17.641,5.527-3.607,1.45,17.641Zm-36.3,21.482a14.41,14.41,0,0,0-6.076-2.94l-.745-9.016,5.527-3.607ZM18.7,505.144h0v0Zm78.4-70.8-5.371,3.489-1.1-13.446ZM7.1,474.41l5.371-3.489.47,5.606a15.626,15.626,0,0,0-3.8,1.058ZM119.6,543.718l-32.3,2.7.431,5.135,32.3-2.7.823,9.722-96.985,8.154L19.444,514l7.644-.627,5.8-.47,6.586-.549,5.8-.47,6.586-.549,5.8-.47,6.586-.549,5.8-.47,6.586-.549,5.8-.47,6.586-.549,5.8-.47,12.388-1.058,9.173-.784,3.215,37.751Zm-10.036-42.455,5.41-12.388.98,11.839Z" transform="translate(-196 67.238)"/>
    <rect id="Rectangle_85" data-name="Rectangle 85" class="cls-5" width="49.159" height="10.153" transform="translate(40.241 492.84)"/>
    <g id="Group_25" data-name="Group 25" transform="translate(43.032 493.38)">
      <path id="Path_84" data-name="Path 84" class="cls-6" d="M1.2-2.892V0H.528V-4.08h.636l2,2.874V-4.08h.678V0H3.2ZM8.137-.528l.1.528H5.521V-4.08H8.137l.1.528H6.193v1.218H7.549l.1.528H6.193V-.528Zm.9-3.552H12.3l.1.534h-1.4V0h-.684V-3.546H9.038ZM16.684,0l-.876-3.12L14.95,0h-.588L13.144-4.038l.672-.1.852,3.216.816-3.162h.666l.84,3.162.816-3.162h.672L17.272,0Zm2.7-2.022a2.373,2.373,0,0,1,.249-1.1,1.9,1.9,0,0,1,.7-.765,1.977,1.977,0,0,1,1.02-.291,1.945,1.945,0,0,1,1.038.276,1.847,1.847,0,0,1,.693.756,2.357,2.357,0,0,1,.243,1.08,2.363,2.363,0,0,1-.252,1.1,1.9,1.9,0,0,1-.7.762,1.963,1.963,0,0,1-1.026.282,1.934,1.934,0,0,1-1.029-.273,1.833,1.833,0,0,1-.69-.753A2.357,2.357,0,0,1,19.385-2.022ZM21.365-3.6a1.135,1.135,0,0,0-.648.2,1.334,1.334,0,0,0-.462.558,1.908,1.908,0,0,0-.168.816,1.938,1.938,0,0,0,.156.795,1.286,1.286,0,0,0,.441.549,1.123,1.123,0,0,0,.657.2,1.156,1.156,0,0,0,.651-.192,1.3,1.3,0,0,0,.459-.549,1.948,1.948,0,0,0,.168-.837,1.917,1.917,0,0,0-.156-.792,1.289,1.289,0,0,0-.441-.546A1.123,1.123,0,0,0,21.365-3.6ZM24.7,0V-4.08H25.92a1.935,1.935,0,0,1,1.14.309,1.053,1.053,0,0,1,.438.921,1.116,1.116,0,0,1-.192.654,1.222,1.222,0,0,1-.51.42L27.81,0h-.726L26.2-1.608a2.347,2.347,0,0,1-.33.018h-.492V0ZM26.79-2.82a.609.609,0,0,0-.228-.534,1.12,1.12,0,0,0-.654-.162h-.534v1.374H25.9a1.161,1.161,0,0,0,.648-.162A.573.573,0,0,0,26.79-2.82Zm2.9,1.476V0h-.672V-4.08h.672v1.8l1.818-1.89.486.39L30.571-2.274,32.275,0h-.828L30.109-1.794Z" transform="translate(0 6)"/>
    </g>
  </g>
</svg>
