<svg xmlns="http://www.w3.org/2000/svg" viewBox="0 0 50.701 51.002"><defs><style>.a{fill:#1e6bad;fill-rule:evenodd;}</style></defs><path class="a" d="M17.822,1.2A25.275,25.275,0,0,1,31.192.714c.241.12.361.241.361.482.12,2.891-13.611,5.541-16.381,5.782C17.943,7.218,34.2,5.412,34.565,1.8a23.062,23.062,0,0,1,8.672,5.661c1.807,9.275-26.379,16.02-33.124,15.056,8.07,2.168,32.16-.482,36.135-11.322A23.287,23.287,0,0,1,49.5,17.938c.12.6.361,1.084.482,1.686-.361,10-23.97,17.224-31.678,16.14,9.275,2.529,27.463-1.927,32.4-10.841a24,24,0,0,1-1.325,8.793c-1.566,4.7-15.177,13.611-22.886,12.527,5.42,1.566,13.611-.723,19.152-5.42a25.406,25.406,0,0,1-12.768,9.154A25.528,25.528,0,0,1,17.822,1.2" transform="translate(-0.022 -0.042)"/></svg>