<svg xmlns="http://www.w3.org/2000/svg" viewBox="0 0 295.936 151.418">
  <defs>
    <style>
      .cls-1, .cls-2 {
        fill: #fff;
      }

      .cls-1 {
        opacity: 0.59;
      }

      .cls-3 {
        fill: #fdfdfd;
      }

      .cls-4 {
        fill: rgba(253,253,253,0.8);
      }

      .cls-5 {
        fill: #ffcb05;
      }
    </style>
  </defs>
  <g id="Group_29" data-name="Group 29" transform="translate(196 -480.928)">
    <g id="Group_23" data-name="Group 23" transform="translate(-163.843 587.852)">
      <rect id="Rectangle_83" data-name="Rectangle 83" class="cls-1" width="8.25" height="21.862" transform="translate(8.381 0) rotate(7.296)"/>
      <rect id="Rectangle_84" data-name="Rectangle 84" class="cls-2" width="6.487" height="21.862" transform="translate(0 13.965) rotate(-87.257)"/>
    </g>
    <g id="Group" transform="translate(-52.861 474.103)">
      <path id="Path_85" data-name="Path 85" class="cls-3" d="M12.314-9.306V0H3.76V-31.96H17.2a16.566,16.566,0,0,1,6.65,1.293,10.753,10.753,0,0,1,4.747,3.9,11.026,11.026,0,0,1,1.763,6.322,10.029,10.029,0,0,1-1.88,6.181,11.209,11.209,0,0,1-4.958,3.736,17.991,17.991,0,0,1-6.7,1.222Zm9.212-11.139a4.852,4.852,0,0,0-1.246-3.478,4.407,4.407,0,0,0-3.36-1.316H12.314v9.212h4.7A4.392,4.392,0,0,0,20.257-17.3,4.276,4.276,0,0,0,21.526-20.445Zm22.983-3.149A10.673,10.673,0,0,1,50.478-22a10.088,10.088,0,0,1,3.69,4.277,13.989,13.989,0,0,1,1.246,5.969v2.491H41.548a4.126,4.126,0,0,0,1.763,2.28,6.27,6.27,0,0,0,3.408.822,13.472,13.472,0,0,0,6.251-1.551l2.4,5.781A12.278,12.278,0,0,1,51.3-.188a21.066,21.066,0,0,1-5.428.705A17.318,17.318,0,0,1,38.8-.846a10.76,10.76,0,0,1-4.818-4.066,11.685,11.685,0,0,1-1.739-6.462,12.762,12.762,0,0,1,1.6-6.486,10.833,10.833,0,0,1,4.395-4.253A13.2,13.2,0,0,1,44.509-23.594Zm-.235,6.862a2.788,2.788,0,0,0-2.092.987,3.046,3.046,0,0,0-.869,2.256h5.922a3.688,3.688,0,0,0-.752-2.209A2.559,2.559,0,0,0,44.274-16.732ZM80.934,0H76.61L75.341-1.645A12.964,12.964,0,0,1,72.31-.071,9.658,9.658,0,0,1,69,.517a11.926,11.926,0,0,1-8.484-3.008q-3.22-3.008-3.22-8.883,0-5.969,3.267-9.095a12.216,12.216,0,0,1,8.813-3.125,9.452,9.452,0,0,1,3.008.47v-9.541l8.554-.517ZM70.312-6.063a3.651,3.651,0,0,0,2.068-.7V-16.4a6.076,6.076,0,0,0-2.444-.611,3.244,3.244,0,0,0-2.726,1.5,6.881,6.881,0,0,0-1.081,4.089A6.342,6.342,0,0,0,67.21-7.45,3.7,3.7,0,0,0,70.312-6.063ZM108.335,0h-4.324l-1.269-1.645A12.964,12.964,0,0,1,99.71-.071,9.658,9.658,0,0,1,96.4.517a11.926,11.926,0,0,1-8.483-3.008Q84.694-5.5,84.694-11.374q0-5.969,3.266-9.095a12.216,12.216,0,0,1,8.813-3.125,9.452,9.452,0,0,1,3.008.47v-9.541l8.554-.517ZM97.713-6.063a3.651,3.651,0,0,0,2.068-.7V-16.4a6.076,6.076,0,0,0-2.444-.611,3.244,3.244,0,0,0-2.726,1.5,6.881,6.881,0,0,0-1.081,4.089A6.342,6.342,0,0,0,94.611-7.45,3.7,3.7,0,0,0,97.713-6.063ZM137.428-22.8,128.451,0V10.81h-8.084V0L112.1-21.385l7.9-2.256L124.55-9.917,128.921-22.8Z" transform="translate(0 77)"/>
      <path id="Path_86" data-name="Path 86" class="cls-4" d="M12.314-9.306V0H3.76V-31.96H17.2a16.566,16.566,0,0,1,6.65,1.293,10.753,10.753,0,0,1,4.747,3.9,11.026,11.026,0,0,1,1.763,6.322,10.029,10.029,0,0,1-1.88,6.181,11.209,11.209,0,0,1-4.958,3.736,17.991,17.991,0,0,1-6.7,1.222Zm9.212-11.139a4.852,4.852,0,0,0-1.246-3.478,4.407,4.407,0,0,0-3.36-1.316H12.314v9.212h4.7A4.392,4.392,0,0,0,20.257-17.3,4.276,4.276,0,0,0,21.526-20.445ZM41.5-16.638a11.825,11.825,0,0,0-2.75.4,19,19,0,0,0-2.937.963l-2.256-6.157a25.488,25.488,0,0,1,4.7-1.528,23.585,23.585,0,0,1,5.358-.634q4.559,0,7,2.538A9.609,9.609,0,0,1,53.063-14.1V0H48.927L46.483-2.35A6.474,6.474,0,0,1,41.36.517q-4.23,0-6.392-2.115a7.654,7.654,0,0,1-2.162-5.734q0-6.674,8.93-6.674h2.726A3.041,3.041,0,0,0,43.5-15.98,2.98,2.98,0,0,0,41.5-16.638Zm.376,7.332a1.924,1.924,0,0,0-1.386.517,1.742,1.742,0,0,0-.541,1.316A1.558,1.558,0,0,0,40.4-6.321a1.5,1.5,0,0,0,1.1.446,4.812,4.812,0,0,0,3.008-1.269V-9.306ZM81.5-11.7q0,5.969-3.267,9.095A12.216,12.216,0,0,1,69.419.517a9.452,9.452,0,0,1-3.008-.47V10.81H57.857V-22.748h4.277l1.316,1.316a12.964,12.964,0,0,1,3.032-1.575,9.658,9.658,0,0,1,3.313-.587,11.926,11.926,0,0,1,8.483,3.008Q81.5-17.578,81.5-11.7Zm-8.836.047a6.342,6.342,0,0,0-1.081-3.972,3.7,3.7,0,0,0-3.1-1.386,3.808,3.808,0,0,0-2.068.7v9.635a6.076,6.076,0,0,0,2.444.611,3.244,3.244,0,0,0,2.726-1.5A6.881,6.881,0,0,0,72.662-11.656Zm36.049-.047q0,5.969-3.267,9.095A12.216,12.216,0,0,1,96.632.517a9.452,9.452,0,0,1-3.008-.47V10.81H85.07V-22.748h4.277l1.316,1.316a12.964,12.964,0,0,1,3.032-1.575,9.658,9.658,0,0,1,3.313-.587,11.926,11.926,0,0,1,8.483,3.008Q108.711-17.578,108.711-11.7Zm-8.836.047a6.342,6.342,0,0,0-1.081-3.972,3.7,3.7,0,0,0-3.1-1.386,3.808,3.808,0,0,0-2.068.7v9.635a6.076,6.076,0,0,0,2.444.611,3.244,3.244,0,0,0,2.726-1.5A6.881,6.881,0,0,0,99.875-11.656Zm22.983-11.938a10.673,10.673,0,0,1,5.969,1.6,10.088,10.088,0,0,1,3.689,4.277,13.989,13.989,0,0,1,1.245,5.969v2.491H119.9a4.126,4.126,0,0,0,1.762,2.28,6.27,6.27,0,0,0,3.408.822,13.472,13.472,0,0,0,6.251-1.551l2.4,5.781A12.278,12.278,0,0,1,129.65-.188a21.066,21.066,0,0,1-5.429.705,17.318,17.318,0,0,1-7.074-1.363,10.76,10.76,0,0,1-4.817-4.066,11.685,11.685,0,0,1-1.739-6.462,12.762,12.762,0,0,1,1.6-6.486,10.833,10.833,0,0,1,4.395-4.253A13.2,13.2,0,0,1,122.858-23.594Zm-.235,6.862a2.788,2.788,0,0,0-2.091.987,3.046,3.046,0,0,0-.869,2.256h5.922a3.688,3.688,0,0,0-.752-2.209A2.559,2.559,0,0,0,122.623-16.732Zm30.174.8a11.352,11.352,0,0,0-3.713.7,12.191,12.191,0,0,0-3.478,1.833V0h-8.554V-22.748h4.277l2.068,2.773a19.3,19.3,0,0,1,3.76-1.974,10.577,10.577,0,0,1,3.9-.846Z" transform="translate(0 130.435)"/>
    </g>
    <path id="Path_72" data-name="Path 72" class="cls-5" d="M101.958,477.822l-5.55.45-6.3.525-5.55.45-6.3.525-5.55.45-6.3.525-5.55.45-6.3.525-5.55.45-6.3.525-5.55.45-9.337.787a19.05,19.05,0,0,0-.637-1.912l6.562-4.275,9.975-6.487,3.075-2.025,1.575-1.05,6.9-4.5,13.049-8.512h0l1.912-1.237,3.375-2.212L88.233,442.2l11.474-7.5L86.209,414l-.3.188h0l-9.975,6.487L72.859,422.7l-1.575,1.05L66,427.2h0l-9.975,6.487-3.075,2.025-1.575,1.05-7.462,4.987-7.8,5.1-14.624,9.525h0l-9.975,6.487h0L0,470.36l4.65,7.162A13.984,13.984,0,0,0,13.012,501.6l.3,3.562.412,4.912,4.65,55.348,102.52-8.625-4.65-55.347-.412-4.912-1.65-19.724-.375.037Zm4.05,4.575-6.75,15.524L93,498.446l6.75-15.524Zm-11.849,1.012-6.75,15.524-6.262.525,6.75-15.524Zm-11.849,1.013-6.75,15.524-6.262.525,6.75-15.524Zm-11.849.975-6.75,15.524-6.262.525,6.75-15.524ZM58.61,486.409l-6.75,15.524-6.262.525,6.75-15.524Zm-11.849.975-6.75,15.524-6.262.525,6.75-15.524ZM34.911,488.4l-6.75,15.524-6.262.525,3.712-8.55a13.84,13.84,0,0,0,2.437-5.587l.6-1.387C28.611,488.922,34.911,488.4,34.911,488.4ZM7.425,481.76a8.912,8.912,0,0,1,4.087-2.7,7.027,7.027,0,0,1,1.275-.3c.225-.037.487-.075.75-.112a8.945,8.945,0,0,1,4.237.675,9.423,9.423,0,0,1,2.475,1.537,9.039,9.039,0,0,1,2.55,3.675c.037.15.112.3.15.412h0a11.685,11.685,0,0,1,.412,1.987,8.81,8.81,0,0,1-.038,1.987c-.037.188-.037.338-.075.525a9.128,9.128,0,0,1-5.737,6.787,8.574,8.574,0,0,1-2.437.563,8.984,8.984,0,0,1-2.475-.15,9.13,9.13,0,0,1-7.35-8.137A8.989,8.989,0,0,1,7.425,481.76Zm75.634-41.923-5.287,3.45-1.387-16.874,5.287-3.45ZM71.7,429.487l1.387,16.874-5.287,3.45-1.387-16.874ZM27.974,475.76l-1.387-16.874,5.287-3.45,1.387,16.874Zm9.975-6.487L36.561,452.4l5.287-3.45,1.387,16.874Zm9.937-6.487L46.5,445.911l5.287-3.45,1.387,16.874Zm9.975-6.525-1.387-16.874,5.287-3.45,1.387,16.874ZM23.136,476.81A13.784,13.784,0,0,0,17.324,474l-.712-8.625,5.287-3.45Zm-5.25,24.374h0v0Zm75-67.722L87.746,436.8,86.7,423.937Zm-86.1,38.323,5.137-3.337.45,5.362a14.945,14.945,0,0,0-3.637,1.012Zm107.62,66.3-30.9,2.587.412,4.912,30.9-2.587.787,9.3-92.771,7.8L18.6,509.658l7.312-.6,5.55-.45,6.3-.525,5.55-.45,6.3-.525,5.55-.45,6.3-.525,5.55-.45,6.3-.525,5.55-.45,6.3-.525,5.55-.45,11.849-1.012,8.775-.75,3.075,36.111Zm-9.6-40.611,5.175-11.849.937,11.325Z" transform="translate(-196 66.928)"/>
    <path id="Path_76" data-name="Path 76" class="cls-5" d="M47.023,9.712h0Z" transform="translate(29.977 492.026)"/>
  </g>
</svg>
