<svg xmlns="http://www.w3.org/2000/svg" viewBox="0 0 397.262 146.047">
  <defs>
    <style>
      .cls-1, .cls-2 {
        fill: #fff;
      }

      .cls-1 {
        opacity: 0.59;
      }

      .cls-3 {
        fill: #fdfdfd;
      }

      .cls-4 {
        fill: rgba(253,253,253,0.8);
      }

      .cls-5 {
        fill: #ffcb05;
      }
    </style>
  </defs>
  <g id="Group_30" data-name="Group 30" transform="translate(196 -480.687)">
    <g id="Group_23" data-name="Group 23" transform="translate(-164.983 583.817)">
      <rect id="Rectangle_83" data-name="Rectangle 83" class="cls-1" width="7.957" height="21.086" transform="translate(8.084) rotate(7.296)"/>
      <rect id="Rectangle_84" data-name="Rectangle 84" class="cls-2" width="6.257" height="21.086" transform="translate(0 13.47) rotate(-87.257)"/>
    </g>
    <g id="Group" transform="translate(-57.939 474.103)">
      <path id="Path_87" data-name="Path 87" class="cls-3" d="M3.6,0V-30.6H16.47a14.887,14.887,0,0,1,9.045,2.61q3.555,2.61,3.555,7.83a9.861,9.861,0,0,1-1.1,4.747A9.313,9.313,0,0,1,24.93-12.06L31.68,0h-9.5l-4.95-9.63H11.79V0ZM20.61-20.16a3.78,3.78,0,0,0-1.148-2.993A4.774,4.774,0,0,0,16.2-24.165H11.79v8.1h4.5A4.34,4.34,0,0,0,19.4-17.212,3.874,3.874,0,0,0,20.61-20.16Zm24.165-2.43a10.219,10.219,0,0,1,5.715,1.53,9.659,9.659,0,0,1,3.532,4.095,13.393,13.393,0,0,1,1.193,5.715v2.385H41.94a3.95,3.95,0,0,0,1.688,2.182,6,6,0,0,0,3.262.787A12.9,12.9,0,0,0,52.875-7.38l2.3,5.535A11.755,11.755,0,0,1,51.278-.18,20.169,20.169,0,0,1,46.08.5a16.581,16.581,0,0,1-6.772-1.3A10.3,10.3,0,0,1,34.695-4.7,11.187,11.187,0,0,1,33.03-10.89a12.219,12.219,0,0,1,1.53-6.21,10.372,10.372,0,0,1,4.208-4.073A12.639,12.639,0,0,1,44.775-22.59Zm-.225,6.57a2.669,2.669,0,0,0-2,.945,2.916,2.916,0,0,0-.833,2.16h5.67a3.531,3.531,0,0,0-.72-2.115A2.45,2.45,0,0,0,44.55-16.02ZM67.005-31.77V0h-8.19V-31.275ZM79.47-15.93a11.322,11.322,0,0,0-2.632.383,18.194,18.194,0,0,0-2.812.923l-2.16-5.9a24.4,24.4,0,0,1,4.5-1.462,22.581,22.581,0,0,1,5.13-.607A8.877,8.877,0,0,1,88.2-20.16a9.2,9.2,0,0,1,2.34,6.66V0H86.58L84.24-2.25A6.2,6.2,0,0,1,79.335.5q-4.05,0-6.12-2.025a7.328,7.328,0,0,1-2.07-5.49q0-6.39,8.55-6.39h2.61a2.911,2.911,0,0,0-.923-1.89A2.854,2.854,0,0,0,79.47-15.93Zm.36,7.02a1.842,1.842,0,0,0-1.327.495,1.668,1.668,0,0,0-.518,1.26,1.492,1.492,0,0,0,.427,1.1,1.436,1.436,0,0,0,1.058.427A4.607,4.607,0,0,0,82.35-6.84V-8.91Zm25.29,4.23L102.285,0H93.06l7.11-10.845L93.105-20.61l7.92-1.89,3.825,5.94,3.33-5.265h9.045L109.8-10.4,117.225,0h-9.18Z" transform="translate(0 44)"/>
      <path id="Path_88" data-name="Path 88" class="cls-4" d="M9.765-15.93a11.322,11.322,0,0,0-2.632.383,18.193,18.193,0,0,0-2.812.923l-2.16-5.9a24.4,24.4,0,0,1,4.5-1.462,22.581,22.581,0,0,1,5.13-.607A8.877,8.877,0,0,1,18.5-20.16a9.2,9.2,0,0,1,2.34,6.66V0h-3.96l-2.34-2.25A6.2,6.2,0,0,1,9.63.5Q5.58.5,3.51-1.53A7.328,7.328,0,0,1,1.44-7.02q0-6.39,8.55-6.39H12.6a2.911,2.911,0,0,0-.923-1.89A2.854,2.854,0,0,0,9.765-15.93Zm.36,7.02A1.842,1.842,0,0,0,8.8-8.415a1.668,1.668,0,0,0-.517,1.26,1.492,1.492,0,0,0,.427,1.1,1.436,1.436,0,0,0,1.057.427,4.607,4.607,0,0,0,2.88-1.215V-8.91ZM34.92-20.925h5.715L41.4-14.49H34.92v5.4a3.108,3.108,0,0,0,.7,2.138,2.371,2.371,0,0,0,1.868.787,6.38,6.38,0,0,0,3.15-.855l2.34,5.58A8.328,8.328,0,0,1,40.3-.112,10.671,10.671,0,0,1,36.945.5a12.8,12.8,0,0,1-5.04-.99,8.735,8.735,0,0,1-3.757-2.947A7.877,7.877,0,0,1,26.73-8.19v-6.3H23.355v-6.435H26.73v-5.9l8.19-1.125ZM53.775-30.6h26.19l.765,6.435H70.965V0h-8.19V-24.165h-9ZM107.01-14.085V0H98.82V-13.32q0-2.61-2.34-2.61a7.785,7.785,0,0,0-2.025.383,17.622,17.622,0,0,0-2.385.877V0H83.88V-31.275l8.19-.495v11.115a15.823,15.823,0,0,1,7.02-1.89q3.96,0,5.94,2.318A9.132,9.132,0,0,1,107.01-14.085Zm14.715-8.5a10.219,10.219,0,0,1,5.715,1.53,9.659,9.659,0,0,1,3.533,4.095,13.394,13.394,0,0,1,1.193,5.715v2.385H118.89a3.951,3.951,0,0,0,1.688,2.182,6,6,0,0,0,3.263.787,12.9,12.9,0,0,0,5.985-1.485l2.295,5.535A11.755,11.755,0,0,1,128.228-.18a20.17,20.17,0,0,1-5.2.675,16.581,16.581,0,0,1-6.772-1.3A10.3,10.3,0,0,1,111.645-4.7a11.187,11.187,0,0,1-1.665-6.187,12.219,12.219,0,0,1,1.53-6.21,10.372,10.372,0,0,1,4.207-4.073A12.639,12.639,0,0,1,121.725-22.59Zm-.225,6.57a2.669,2.669,0,0,0-2,.945,2.916,2.916,0,0,0-.832,2.16h5.67a3.531,3.531,0,0,0-.72-2.115A2.45,2.45,0,0,0,121.5-16.02ZM173.655-30.6V0h-8.19V-11.97h-10.71V0h-8.19V-30.6l8.19-.27v12.465h10.71V-30.6ZM190.35.5a12.9,12.9,0,0,1-8.842-2.947q-3.353-2.948-3.353-8.573a11.447,11.447,0,0,1,1.643-6.187,10.652,10.652,0,0,1,4.455-4.005,14.123,14.123,0,0,1,6.277-1.372,14.6,14.6,0,0,1,6.435,1.35,10.064,10.064,0,0,1,4.365,4.005A12.4,12.4,0,0,1,202.9-10.8a11.105,11.105,0,0,1-1.642,6.12,10.3,10.3,0,0,1-4.5,3.87A15.263,15.263,0,0,1,190.35.5Zm4.1-11.3a6.27,6.27,0,0,0-1.012-3.69,3.248,3.248,0,0,0-2.812-1.44,3.582,3.582,0,0,0-2.948,1.305,5.564,5.564,0,0,0-1.057,3.6,5.75,5.75,0,0,0,.99,3.555,3.345,3.345,0,0,0,2.835,1.3,3.756,3.756,0,0,0,2.97-1.17A5.087,5.087,0,0,0,194.445-10.8ZM215.82-20.925h5.715l.765,6.435h-6.48v5.4a3.108,3.108,0,0,0,.7,2.138,2.371,2.371,0,0,0,1.868.787,6.38,6.38,0,0,0,3.15-.855l2.34,5.58A8.329,8.329,0,0,1,221.2-.112,10.671,10.671,0,0,1,217.845.5,12.8,12.8,0,0,1,212.8-.5a8.735,8.735,0,0,1-3.758-2.947A7.877,7.877,0,0,1,207.63-8.19v-6.3h-3.375v-6.435h3.375v-5.9l8.19-1.125Zm21.15-1.665a10.219,10.219,0,0,1,5.715,1.53,9.659,9.659,0,0,1,3.533,4.095,13.394,13.394,0,0,1,1.193,5.715v2.385H234.135a3.951,3.951,0,0,0,1.688,2.182,6,6,0,0,0,3.262.787A12.9,12.9,0,0,0,245.07-7.38l2.295,5.535A11.755,11.755,0,0,1,243.473-.18a20.169,20.169,0,0,1-5.2.675A16.581,16.581,0,0,1,231.5-.81,10.3,10.3,0,0,1,226.89-4.7a11.187,11.187,0,0,1-1.665-6.187,12.219,12.219,0,0,1,1.53-6.21,10.372,10.372,0,0,1,4.208-4.073A12.639,12.639,0,0,1,236.97-22.59Zm-.225,6.57a2.669,2.669,0,0,0-2,.945,2.916,2.916,0,0,0-.832,2.16h5.67a3.531,3.531,0,0,0-.72-2.115A2.45,2.45,0,0,0,236.745-16.02ZM259.2-31.77V0h-8.19V-31.275Z" transform="translate(0 95.54)"/>
      <path id="Path_89" data-name="Path 89" class="cls-3" d="M11.79-18h9.4l.765,6.435H11.79V0H3.6V-30.555H23.445l.765,6.435H11.79Zm23.085,2.07a11.322,11.322,0,0,0-2.632.383,18.193,18.193,0,0,0-2.812.923l-2.16-5.9a24.4,24.4,0,0,1,4.5-1.462,22.581,22.581,0,0,1,5.13-.607,8.877,8.877,0,0,1,6.705,2.43,9.2,9.2,0,0,1,2.34,6.66V0h-3.96l-2.34-2.25A6.2,6.2,0,0,1,34.74.5Q30.69.5,28.62-1.53a7.328,7.328,0,0,1-2.07-5.49q0-6.39,8.55-6.39h2.61a2.911,2.911,0,0,0-.923-1.89A2.854,2.854,0,0,0,34.875-15.93Zm.36,7.02a1.842,1.842,0,0,0-1.327.495,1.668,1.668,0,0,0-.518,1.26,1.492,1.492,0,0,0,.428,1.1,1.436,1.436,0,0,0,1.057.427,4.607,4.607,0,0,0,2.88-1.215V-8.91Zm25.6-13.68a11.715,11.715,0,0,1,7.47,2.2L66.015-14.76a11.332,11.332,0,0,0-2.25-.923,8.353,8.353,0,0,0-2.115-.247,3.949,3.949,0,0,0-2.993,1.395,5.174,5.174,0,0,0-1.283,3.645,4.682,4.682,0,0,0,1.26,3.465,4.114,4.114,0,0,0,3.015,1.26,8.7,8.7,0,0,0,2.115-.247,10.052,10.052,0,0,0,2.25-.923L68.31-1.71A11.715,11.715,0,0,1,60.84.5,12.314,12.314,0,0,1,52.177-2.5Q48.915-5.49,48.915-10.89a12.458,12.458,0,0,1,1.507-6.255,10.047,10.047,0,0,1,4.207-4.05A13.338,13.338,0,0,1,60.84-22.59ZM79.38-29.2A4.205,4.205,0,0,1,78.053-26.1a4.367,4.367,0,0,1-3.173,1.3,4.241,4.241,0,0,1-3.105-1.3A4.241,4.241,0,0,1,70.47-29.2a4.367,4.367,0,0,1,1.305-3.172,4.205,4.205,0,0,1,3.105-1.328,4.33,4.33,0,0,1,3.173,1.328A4.33,4.33,0,0,1,79.38-29.2Zm-.36,7.38V0H70.83V-21.825ZM92.16-31.77V0H83.97V-31.275Zm13.5,2.565a4.205,4.205,0,0,1-1.327,3.105,4.367,4.367,0,0,1-3.173,1.3,4.241,4.241,0,0,1-3.105-1.3A4.241,4.241,0,0,1,96.75-29.2a4.367,4.367,0,0,1,1.305-3.172,4.205,4.205,0,0,1,3.105-1.328,4.33,4.33,0,0,1,3.173,1.328A4.33,4.33,0,0,1,105.66-29.2Zm-.36,7.38V0H97.11V-21.825Zm14.265.9h5.715l.765,6.435h-6.48v5.4a3.108,3.108,0,0,0,.7,2.138,2.371,2.371,0,0,0,1.868.787,6.38,6.38,0,0,0,3.15-.855l2.34,5.58a8.329,8.329,0,0,1-2.677,1.328A10.671,10.671,0,0,1,121.59.5a12.8,12.8,0,0,1-5.04-.99,8.735,8.735,0,0,1-3.757-2.947,7.877,7.877,0,0,1-1.418-4.747v-6.3H108v-6.435h3.375v-5.9l8.19-1.125ZM138.87-29.2a4.205,4.205,0,0,1-1.327,3.105,4.367,4.367,0,0,1-3.173,1.3,4.241,4.241,0,0,1-3.1-1.3A4.241,4.241,0,0,1,129.96-29.2a4.367,4.367,0,0,1,1.305-3.172,4.205,4.205,0,0,1,3.1-1.328,4.33,4.33,0,0,1,3.173,1.328A4.33,4.33,0,0,1,138.87-29.2Zm-.36,7.38V0h-8.19V-21.825ZM153.4-22.59a10.219,10.219,0,0,1,5.715,1.53,9.659,9.659,0,0,1,3.533,4.095,13.394,13.394,0,0,1,1.193,5.715v2.385H150.57a3.951,3.951,0,0,0,1.688,2.182,6,6,0,0,0,3.262.787A12.9,12.9,0,0,0,161.5-7.38L163.8-1.845A11.755,11.755,0,0,1,159.908-.18a20.169,20.169,0,0,1-5.2.675,16.581,16.581,0,0,1-6.772-1.3A10.3,10.3,0,0,1,143.325-4.7a11.187,11.187,0,0,1-1.665-6.187,12.219,12.219,0,0,1,1.53-6.21,10.372,10.372,0,0,1,4.208-4.073A12.639,12.639,0,0,1,153.4-22.59Zm-.225,6.57a2.669,2.669,0,0,0-2,.945,2.916,2.916,0,0,0-.832,2.16h5.67a3.531,3.531,0,0,0-.72-2.115A2.45,2.45,0,0,0,153.18-16.02ZM175.05.5a22.98,22.98,0,0,1-4.792-.63,11.162,11.162,0,0,1-4.522-1.935l2.295-5.175a15.932,15.932,0,0,0,3.173,1.08,13.584,13.584,0,0,0,3.037.45,3.006,3.006,0,0,0,1.35-.27.811.811,0,0,0,.54-.72q0-.27-.607-.652a7.222,7.222,0,0,0-1.552-.7,20.558,20.558,0,0,1-5.6-2.88,5.233,5.233,0,0,1-2.182-4.365,6.333,6.333,0,0,1,2.565-5.355,11.574,11.574,0,0,1,7.11-1.935,19.634,19.634,0,0,1,4.252.517A9.826,9.826,0,0,1,184.1-20.25l-2.3,5.175a18.245,18.245,0,0,0-2.767-.945,10.589,10.589,0,0,0-2.588-.36,4.148,4.148,0,0,0-1.62.27q-.63.27-.63.72,0,.27.63.63a10.149,10.149,0,0,0,1.665.72A18.774,18.774,0,0,1,182-11.182a5.331,5.331,0,0,1,2.137,4.388,6.612,6.612,0,0,1-2.295,5.377Q179.55.5,175.05.5Z" transform="translate(0 147.115)"/>
    </g>
    <path id="Path_72" data-name="Path 72" class="cls-5" d="M98.341,475.558l-5.353.434-6.076.506-5.353.434-6.076.506-5.353.434-6.076.506-5.353.434-6.076.506-5.353.434-6.076.506-5.353.434-9.006.76a18.37,18.37,0,0,0-.615-1.845l6.329-4.123,9.621-6.257,2.966-1.953,1.519-1.013,6.655-4.34,12.587-8.21h0l1.845-1.193L71,450.385,85.1,441.2l11.067-7.234L83.151,414l-.289.181h0l-9.621,6.257-2.966,1.953L68.756,423.4l-5.1,3.327h0l-9.621,6.257-2.966,1.953-1.519,1.013-7.2,4.81-7.523,4.919L20.724,454.87h0L11.1,461.127h0L0,468.361l4.485,6.908a13.488,13.488,0,0,0,8.065,23.22l.289,3.436.4,4.738,4.485,53.384,98.884-8.319-4.485-53.384-.4-4.738-1.591-19.024-.362.036Zm3.906,4.413-6.51,14.974-6.04.506,6.51-14.974Zm-11.429.977-6.51,14.974-6.04.506,6.51-14.974Zm-11.429.977L72.879,496.9l-6.04.506,6.51-14.974Zm-11.429.94-6.51,14.974-6.04.506,6.51-14.974Zm-11.429.977-6.51,14.974-6.04.506,6.51-14.974Zm-11.429.94-6.51,14.974-6.04.506,6.51-14.974Zm-11.429.977-6.51,14.974-6.04.506,3.581-8.246a13.349,13.349,0,0,0,2.351-5.389l.579-1.338C27.6,486.264,33.673,485.758,33.673,485.758Zm-26.511-6.4a8.6,8.6,0,0,1,3.942-2.6,6.78,6.78,0,0,1,1.23-.289c.217-.036.47-.072.723-.108a8.628,8.628,0,0,1,4.087.651,9.088,9.088,0,0,1,2.387,1.483,8.718,8.718,0,0,1,2.459,3.544c.036.145.109.289.145.4h0a11.269,11.269,0,0,1,.4,1.917,8.5,8.5,0,0,1-.036,1.917c-.036.181-.036.326-.072.506a8.8,8.8,0,0,1-5.534,6.546,8.272,8.272,0,0,1-2.351.543,8.664,8.664,0,0,1-2.387-.145,8.806,8.806,0,0,1-7.089-7.849A8.67,8.67,0,0,1,7.161,479.356ZM80.112,438.92l-5.1,3.327-1.338-16.276,5.1-3.328Zm-10.959-9.982,1.338,16.276-5.1,3.327-1.338-16.276ZM26.981,473.569l-1.338-16.276,5.1-3.327,1.338,16.276Zm9.621-6.257-1.338-16.276,5.1-3.327L41.7,463.984Zm9.585-6.257-1.338-16.276,5.1-3.328,1.338,16.276Zm9.621-6.293-1.338-16.276,5.1-3.327,1.338,16.276Zm-33.492,19.82a13.3,13.3,0,0,0-5.606-2.713l-.687-8.319,5.1-3.327Zm-5.064,23.509h0v0Zm72.336-65.32-4.955,3.219-1.013-12.406ZM6.546,469.735l4.955-3.219.434,5.172a14.416,14.416,0,0,0-3.508.977Zm103.8,63.945-29.8,2.5.4,4.738,29.8-2.5.76,8.97-89.48,7.523-4.087-48.646,7.053-.579,5.353-.434,6.076-.506,5.353-.434,6.076-.506,5.353-.434,6.076-.506,5.353-.434,6.076-.506,5.353-.434,6.076-.506,5.353-.434,11.429-.977,8.463-.723,2.966,34.83Zm-9.259-39.17,4.991-11.429.9,10.923Z" transform="translate(-196 66.686)"/>
  </g>
</svg>
