<svg xmlns="http://www.w3.org/2000/svg" viewBox="0 0 307.304 656.306">
  <defs>
    <style>
      .cls-1, .cls-2 {
        fill: #fff;
      }

      .cls-1 {
        opacity: 0.59;
      }

      .cls-3 {
        fill: #fdfdfd;
      }

      .cls-4 {
        fill: rgba(253,253,253,0.8);
      }

      .cls-5 {
        fill: #f6cb47;
      }

      .cls-6 {
        fill: #272562;
      }

      .cls-7 {
        fill: #ffcb05;
      }
    </style>
  </defs>
  <g id="Group_22" data-name="Group 22" transform="translate(-30.897 -96.515)">
    <g id="Group_16" data-name="Group 16" transform="translate(158.328 359.965)">
      <rect id="Rectangle_73" data-name="Rectangle 73" class="cls-1" width="17.519" height="46.426" transform="translate(17.744 0) rotate(7.296)"/>
      <rect id="Rectangle_74" data-name="Rectangle 74" class="cls-2" width="13.776" height="46.426" transform="translate(0 29.657) rotate(-87.257)"/>
    </g>
    <g id="Group" transform="translate(56.775 425.675)">
      <path id="Path_77" data-name="Path 77" class="cls-3" d="M26.2-19.8V0H8V-68H36.6a35.247,35.247,0,0,1,14.15,2.75,22.879,22.879,0,0,1,10.1,8.3A23.459,23.459,0,0,1,64.6-43.5a21.338,21.338,0,0,1-4,13.15A23.848,23.848,0,0,1,50.05-22.4,38.28,38.28,0,0,1,35.8-19.8ZM45.8-43.5a10.323,10.323,0,0,0-2.65-7.4A9.376,9.376,0,0,0,36-53.7H26.2v19.6h10a9.344,9.344,0,0,0,6.9-2.7A9.1,9.1,0,0,0,45.8-43.5Zm91.7,9.1a38.571,38.571,0,0,1-4.1,18.2,28.949,28.949,0,0,1-11.5,12A33.633,33.633,0,0,1,105,0H74.6V-68h30.8q10.2,0,17.45,4.3A27.583,27.583,0,0,1,133.8-51.8,39.265,39.265,0,0,1,137.5-34.4Zm-18.8,0q0-8.6-3.75-13.95A12.048,12.048,0,0,0,104.5-53.7H92.8v39.4h11a13.123,13.123,0,0,0,10.75-5.2Q118.7-24.7,118.7-34.4Zm75.5,1.5L185-20.5l-7.3,1-11-13.4V0H148.5V-68H161l20.5,25.9L200.3-68h12.1V0H194.2Z" transform="translate(0 98)"/>
      <path id="Path_78" data-name="Path 78" class="cls-4" d="M26.462-14.443H55.651L57.368,0H8.08V-68.68H26.462ZM82.618-65.549a9.439,9.439,0,0,1-2.979,6.969,9.8,9.8,0,0,1-7.12,2.929,9.518,9.518,0,0,1-6.969-2.929,9.518,9.518,0,0,1-2.929-6.969,9.8,9.8,0,0,1,2.929-7.121,9.439,9.439,0,0,1,6.969-2.979,9.718,9.718,0,0,1,7.12,2.979A9.718,9.718,0,0,1,82.618-65.549ZM81.81-48.985V0H63.428V-48.985Zm57.873,50.6a19.166,19.166,0,0,1-3.383,11.16,22.554,22.554,0,0,1-9.494,7.676,33.728,33.728,0,0,1-14.089,2.778A57.351,57.351,0,0,1,101.5,21.765a33.52,33.52,0,0,1-11.211-4.191L95.849,4.646a33.414,33.414,0,0,0,8.181,2.979,37.045,37.045,0,0,0,7.373.757,12.025,12.025,0,0,0,7.12-1.969,5.838,5.838,0,0,0,2.777-4.9V-.2a21.873,21.873,0,0,1-7.272,1.313q-11.312,0-18.23-6.464T88.88-24.442q0-12.827,7.02-19.544T114.837-50.7a20.462,20.462,0,0,1,13.231,4.848l2.424-3.03h9.191ZM121.3-14.544V-35.249a13.056,13.056,0,0,0-5.252-1.313,6.972,6.972,0,0,0-5.858,3.232q-2.323,3.232-2.323,8.787t2.323,8.535a7.951,7.951,0,0,0,6.666,2.979A7.846,7.846,0,0,0,121.3-14.544Zm82.012-17.069V0H184.931V-29.9q0-5.858-5.252-5.858a17.473,17.473,0,0,0-4.545.859,39.551,39.551,0,0,0-5.353,1.97V0H151.4V-70.195l18.382-1.111v24.947q8.484-4.242,15.756-4.242,8.888,0,13.332,5.2T203.313-31.613Zm31.613-15.352h12.827l1.717,14.443H234.926V-20.4a6.977,6.977,0,0,0,1.566,4.8,5.32,5.32,0,0,0,4.191,1.767,14.319,14.319,0,0,0,7.07-1.919l5.252,12.524A18.693,18.693,0,0,1,247-.252a23.95,23.95,0,0,1-7.524,1.363,28.73,28.73,0,0,1-11.312-2.222,19.6,19.6,0,0,1-8.434-6.616,17.679,17.679,0,0,1-3.181-10.655v-14.14h-7.575V-46.965h7.575V-60.2l18.382-2.525Z" transform="translate(0 212.477)"/>
      <path id="Path_79" data-name="Path 79" class="cls-3" d="M1.01-68.68H59.792l1.717,14.443H39.592V0H21.21V-54.237H1.01ZM84.436-35.754a25.411,25.411,0,0,0-5.909.859,40.834,40.834,0,0,0-6.312,2.071L67.367-46.056a54.771,54.771,0,0,1,10.1-3.283A50.682,50.682,0,0,1,88.981-50.7q9.8,0,15.049,5.454T109.282-30.3V0h-8.888L95.142-5.05Q90.294,1.111,84.133,1.111q-9.09,0-13.736-4.545T65.751-15.756q0-14.342,19.19-14.342H90.8a6.534,6.534,0,0,0-2.071-4.242A6.4,6.4,0,0,0,84.436-35.754ZM85.244-20a4.134,4.134,0,0,0-2.979,1.111A3.744,3.744,0,0,0,81.1-16.059a3.349,3.349,0,0,0,.96,2.475,3.224,3.224,0,0,0,2.374.959A10.34,10.34,0,0,0,90.9-15.352V-20ZM138.37-71.306V0H119.988V-70.195Zm30.5,55.55V0H150.49V-70.195l18.382-1.111v36.36L187.153-50.4l11.009,12.625-13.029,9.8L201.7,0H181.9l-9.7-18.281ZM224.826,1.111A51.576,51.576,0,0,1,214.07-.3a25.052,25.052,0,0,1-10.15-4.343l5.151-11.615a35.76,35.76,0,0,0,7.12,2.424,30.488,30.488,0,0,0,6.818,1.01,6.746,6.746,0,0,0,3.03-.606,1.821,1.821,0,0,0,1.212-1.616q0-.606-1.363-1.464a16.21,16.21,0,0,0-3.484-1.566,46.142,46.142,0,0,1-12.575-6.464,11.745,11.745,0,0,1-4.9-9.8,14.214,14.214,0,0,1,5.757-12.019q5.757-4.343,15.958-4.343a44.067,44.067,0,0,1,9.544,1.161,22.054,22.054,0,0,1,8.939,4.091l-5.151,11.615a40.951,40.951,0,0,0-6.212-2.121,23.767,23.767,0,0,0-5.808-.808,9.309,9.309,0,0,0-3.636.606q-1.414.606-1.414,1.616,0,.606,1.414,1.414a22.776,22.776,0,0,0,3.737,1.616A42.137,42.137,0,0,1,240.431-25.1a11.966,11.966,0,0,1,4.8,9.848q0,7.777-5.151,12.069T224.826,1.111Z" transform="translate(0 326.034)"/>
    </g>
    <g id="Group_20" data-name="Group 20" transform="translate(30.898 96.515)">
      <g id="Group_19" data-name="Group 19">
        <path id="Path_70" data-name="Path 70" class="cls-5" d="M210.742,185.5A82.178,82.178,0,0,0,128.8,267.442c0,27.155,10.273,45.55,21.023,65.06,7.645,14.334,15.847,29.225,20.466,48.656l1.035,4.061H251.2l1.035-4.061c4.061-19.43,12.263-34.322,20.466-48.656,9.715-19.43,19.988-37.905,19.988-65.06A82.178,82.178,0,0,0,210.742,185.5ZM216.4,374.947H205.168L195.931,298.1h29.7ZM262.982,327.8c-7.645,13.856-15.369,28.19-20.466,47.143H226.669l9.237-76.846h8.123a17.917,17.917,0,1,0-17.917-17.917v7.645H195.373v-7.645A17.917,17.917,0,1,0,177.456,298.1h8.2l9.237,76.846H179.048c-4.619-18.953-12.821-33.287-20.466-47.143-10.273-18.475-19.43-35.835-19.43-60.441a71.67,71.67,0,1,1,143.339,0C282.492,291.969,272.776,309.409,262.982,327.8Zm-26.6-39.9v-7.645a7.645,7.645,0,1,1,7.645,7.645Zm-51.2-7.724v7.645h-7.645a7.645,7.645,0,1,1,7.645-7.645Z" transform="translate(-57.13 -134.296)"/>
        <path id="Path_71" data-name="Path 71" class="cls-5" d="M186.7,536.973h10.75a25.606,25.606,0,0,0,50.169,0h10.75V526.7H186.7v10.273Zm35.835,10.193A14.845,14.845,0,0,1,208.2,536.893h28.668A14.774,14.774,0,0,1,222.535,547.166Z" transform="translate(-68.923 -203.788)"/>
        <rect id="Rectangle_75" data-name="Rectangle 75" class="cls-5" width="10.273" height="35.835" transform="translate(148.515)"/>
        <rect id="Rectangle_76" data-name="Rectangle 76" class="cls-5" width="46.107" height="10.273" transform="translate(261.196 121.838)"/>
        <rect id="Rectangle_77" data-name="Rectangle 77" class="cls-5" width="51.204" height="10.273" transform="translate(0 121.838)"/>
        <rect id="Rectangle_78" data-name="Rectangle 78" class="cls-5" width="35.835" height="10.273" transform="translate(233.286 66.995) rotate(-45)"/>
        <rect id="Rectangle_79" data-name="Rectangle 79" class="cls-5" width="35.835" height="10.273" transform="translate(41.393 185.95) rotate(-45)"/>
        <rect id="Rectangle_80" data-name="Rectangle 80" class="cls-5" width="10.273" height="35.835" transform="translate(233.028 168.047) rotate(-45)"/>
        <rect id="Rectangle_81" data-name="Rectangle 81" class="cls-5" width="10.273" height="35.835" transform="translate(41.707 48.58) rotate(-45)"/>
      </g>
    </g>
    <rect id="Rectangle_82" data-name="Rectangle 82" class="cls-6" width="99.86" height="20.625" transform="translate(236.112 464.021)"/>
    <g id="Group_21" data-name="Group 21" transform="translate(241.827 465.116)">
      <path id="Path_80" data-name="Path 80" class="cls-7" d="M3-7.23V0H1.32V-10.2H2.91L7.92-3.015V-10.2H9.615V0H8.01ZM20.343-1.32,20.6,0H13.8V-10.2h6.54l.24,1.32h-5.1v3.045h3.39l.255,1.32H15.483V-1.32ZM22.6-10.2h8.16l.255,1.335h-3.5V0h-1.71V-8.865H22.6ZM41.709,0l-2.19-7.8L37.374,0H35.9L32.859-10.095l1.68-.24,2.13,8.04,2.04-7.9h1.665l2.1,7.9,2.04-7.9h1.68L43.179,0Zm6.753-5.055A5.933,5.933,0,0,1,49.085-7.8a4.75,4.75,0,0,1,1.747-1.912,4.944,4.944,0,0,1,2.55-.727,4.862,4.862,0,0,1,2.595.69A4.617,4.617,0,0,1,57.71-7.86a5.893,5.893,0,0,1,.607,2.7,5.908,5.908,0,0,1-.63,2.76A4.75,4.75,0,0,1,55.932-.5,4.907,4.907,0,0,1,53.367.21a4.836,4.836,0,0,1-2.573-.683A4.583,4.583,0,0,1,49.07-2.355,5.893,5.893,0,0,1,48.462-5.055ZM53.412-9a2.838,2.838,0,0,0-1.62.5A3.334,3.334,0,0,0,50.637-7.11a4.769,4.769,0,0,0-.42,2.04,4.845,4.845,0,0,0,.39,1.988,3.215,3.215,0,0,0,1.1,1.372,2.808,2.808,0,0,0,1.642.5,2.891,2.891,0,0,0,1.628-.48,3.257,3.257,0,0,0,1.147-1.373,4.869,4.869,0,0,0,.42-2.093,4.792,4.792,0,0,0-.39-1.98,3.223,3.223,0,0,0-1.1-1.365A2.808,2.808,0,0,0,53.412-9Zm8.343,9V-10.2H64.8a4.838,4.838,0,0,1,2.85.773,2.634,2.634,0,0,1,1.095,2.3,2.791,2.791,0,0,1-.48,1.635A3.055,3.055,0,0,1,66.99-4.44L69.525,0H67.71L65.49-4.02a5.868,5.868,0,0,1-.825.045h-1.23V0Zm5.22-7.05a1.524,1.524,0,0,0-.57-1.335,2.8,2.8,0,0,0-1.635-.4H63.435v3.435H64.74a2.9,2.9,0,0,0,1.62-.405A1.432,1.432,0,0,0,66.975-7.05Zm7.248,3.69V0h-1.68V-10.2h1.68v4.5l4.545-4.725,1.215.975L76.428-5.685,80.688,0h-2.07L75.273-4.485Z" transform="translate(0 14)"/>
    </g>
  </g>
</svg>
