<svg xmlns="http://www.w3.org/2000/svg" viewBox="0 0 58 72.645">
  <defs>
    <style>
      .cls-1 {
        fill: #ffcb05;
      }
    </style>
  </defs>
  <path id="Path_73" data-name="Path 73" class="cls-1" d="M48.915,444.619l-2.663.216-3.022.252-2.663.216-3.022.252-2.663.216-3.022.252-2.663.216-3.022.252-2.663.216-3.022.252-2.663.216-4.48.378a9.14,9.14,0,0,0-.306-.917l3.148-2.051,4.785-3.112,1.475-.971.756-.5,3.31-2.159,6.261-4.084h0l.917-.594,1.619-1.061,7.016-4.569,5.5-3.6L41.359,414l-.144.09h0L36.43,417.2l-1.475.971-.756.5-2.537,1.655h0l-4.785,3.112-1.475.971-.756.5-3.58,2.393-3.742,2.447-7.016,4.569h0l-4.785,3.112h0L0,441.039l2.231,3.436a6.709,6.709,0,0,0,4.012,11.55l.144,1.709.2,2.357,2.231,26.553L58,482.506l-2.231-26.553-.2-2.357-.792-9.463-.18.018Zm1.943,2.195-3.238,7.448-3,.252,3.238-7.448Zm-5.685.486-3.238,7.448-3,.252,3.238-7.448Zm-5.685.486-3.238,7.448-3,.252,3.238-7.448Zm-5.685.468L30.565,455.7l-3,.252,3.238-7.448Zm-5.685.486-3.238,7.448-3,.252,3.238-7.448Zm-5.685.468L19.2,456.655l-3,.252,3.238-7.448Zm-5.685.486-3.238,7.448-3,.252,1.781-4.1a6.64,6.64,0,0,0,1.169-2.68l.288-.666C13.726,449.944,16.749,449.692,16.749,449.692ZM3.562,446.508a4.276,4.276,0,0,1,1.961-1.3,3.372,3.372,0,0,1,.612-.144c.108-.018.234-.036.36-.054a4.291,4.291,0,0,1,2.033.324,4.52,4.52,0,0,1,1.187.738,4.336,4.336,0,0,1,1.223,1.763c.018.072.054.144.072.2h0a5.6,5.6,0,0,1,.2.953,4.227,4.227,0,0,1-.018.953c-.018.09-.018.162-.036.252A4.379,4.379,0,0,1,8.4,453.452a4.113,4.113,0,0,1-1.169.27,4.309,4.309,0,0,1-1.187-.072,4.38,4.38,0,0,1-3.526-3.9A4.312,4.312,0,0,1,3.562,446.508ZM39.848,426.4l-2.537,1.655-.666-8.1,2.537-1.655ZM34.4,421.43l.666,8.1-2.537,1.655-.666-8.1Zm-20.976,22.2-.666-8.1,2.537-1.655.666,8.1Zm4.785-3.112-.666-8.1,2.537-1.655.666,8.1Zm4.767-3.112-.666-8.1,2.537-1.655.666,8.1Zm4.785-3.13-.666-8.1,2.537-1.655.666,8.1ZM11.1,444.133a6.613,6.613,0,0,0-2.788-1.349l-.342-4.138,2.537-1.655ZM8.581,455.827h0v0Zm35.98-32.49-2.465,1.6-.5-6.171ZM3.256,441.723l2.465-1.6.216,2.573a7.168,7.168,0,0,0-1.745.486Zm51.632,31.806-14.824,1.241.2,2.357,14.824-1.241.378,4.462-44.507,3.742-2.033-24.2,3.508-.288,2.663-.216,3.022-.252,2.663-.216,3.022-.252,2.663-.216,3.022-.252,2.663-.216,3.022-.252,2.663-.216,3.022-.252,2.663-.216,5.685-.486,4.21-.36,1.475,17.324Zm-4.605-19.483,2.483-5.685.45,5.433Z" transform="translate(0 -414)"/>
</svg>
