<?xml version="1.0" encoding="utf-8"?>
<!-- Generator: Adobe Illustrator 23.0.1, SVG Export Plug-In . SVG Version: 6.00 Build 0)  -->
<svg version="1.1" id="Layer_1" xmlns="http://www.w3.org/2000/svg" xmlns:xlink="http://www.w3.org/1999/xlink" x="0px" y="0px"
	 viewBox="0 0 442.84 185.71" style="enable-background:new 0 0 442.84 185.71;" xml:space="preserve">
<style type="text/css">
	.st0{fill:#FFFFFF;}
	.st1{opacity:0.8;fill:#FFFFFF;}
	.st2{fill:#FFCB04;}
</style>
<g>
	<g>
		<path class="st0" d="M172.22,58.63V23.75h13.31c3.79,0,6.9,0.99,9.36,2.98c2.45,1.98,3.68,4.96,3.68,8.93
			c0,2.05-0.38,3.86-1.14,5.41c-0.76,1.56-1.81,2.83-3.14,3.82l6.98,13.75h-9.82l-5.12-10.98h-5.63v10.98H172.22z M189.82,35.65
			c0-1.5-0.4-2.64-1.19-3.41c-0.79-0.77-1.92-1.15-3.37-1.15h-4.56v9.23h4.65c1.3,0,2.37-0.44,3.21-1.31
			C189.4,38.14,189.82,37.02,189.82,35.65z"/>
		<path class="st0" d="M214.81,32.88c2.33,0,4.3,0.58,5.91,1.74c1.61,1.16,2.83,2.72,3.65,4.67c0.82,1.95,1.23,4.12,1.23,6.52v2.72
			h-13.73c0.31,1.06,0.89,1.89,1.75,2.49c0.85,0.6,1.98,0.9,3.38,0.9c2.14,0,4.2-0.56,6.19-1.69l2.37,6.31
			c-0.93,0.75-2.27,1.39-4.03,1.9c-1.75,0.51-3.55,0.77-5.38,0.77c-2.64,0-4.97-0.5-7-1.49c-2.03-0.99-3.62-2.47-4.77-4.44
			c-1.15-1.97-1.72-4.32-1.72-7.05c0-2.7,0.53-5.06,1.58-7.08c1.05-2.02,2.5-3.57,4.35-4.64C210.44,33.42,212.51,32.88,214.81,32.88
			z M214.58,40.37c-0.78,0-1.47,0.36-2.07,1.08c-0.6,0.72-0.89,1.54-0.86,2.46h5.86c0-0.85-0.25-1.66-0.75-2.41
			C216.27,40.75,215.54,40.37,214.58,40.37z"/>
		<path class="st0" d="M237.8,22.41v36.22h-8.47V22.98L237.8,22.41z"/>
		<path class="st0" d="M250.69,40.47c-0.74,0-1.65,0.15-2.72,0.44c-1.07,0.29-2.04,0.64-2.91,1.05l-2.23-6.72
			c1.3-0.65,2.85-1.21,4.65-1.67c1.8-0.46,3.57-0.69,5.31-0.69c3.01,0,5.32,0.92,6.94,2.77c1.61,1.85,2.42,4.38,2.42,7.59v15.39
			h-4.1l-2.42-2.57c-1.49,2.09-3.18,3.13-5.07,3.13c-2.79,0-4.9-0.77-6.33-2.31c-1.43-1.54-2.14-3.62-2.14-6.26
			c0-4.86,2.95-7.29,8.84-7.29h2.7c-0.12-0.96-0.44-1.68-0.95-2.16C252.16,40.71,251.5,40.47,250.69,40.47z M251.07,48.48
			c-0.56,0-1.02,0.19-1.37,0.56c-0.36,0.38-0.54,0.86-0.54,1.44c0,0.51,0.15,0.93,0.44,1.26c0.29,0.33,0.66,0.49,1.09,0.49
			c0.96,0,1.96-0.46,2.98-1.39v-2.36H251.07z"/>
		<path class="st0" d="M277.22,53.3l-2.93,5.34h-9.54l7.35-12.36l-7.31-11.13l8.19-2.16l3.96,6.77l3.44-6h9.35l-7.68,13.03
			l7.68,11.85h-9.49L277.22,53.3z"/>
		<path class="st1" d="M178.6,90.47c-0.74,0-1.65,0.15-2.72,0.44c-1.07,0.29-2.04,0.64-2.91,1.05l-2.23-6.72
			c1.3-0.65,2.85-1.21,4.65-1.67c1.8-0.46,3.57-0.69,5.31-0.69c3.01,0,5.32,0.92,6.94,2.77c1.61,1.85,2.42,4.38,2.42,7.59v15.39
			h-4.1l-2.42-2.57c-1.49,2.09-3.18,3.13-5.07,3.13c-2.79,0-4.9-0.77-6.33-2.31c-1.43-1.54-2.14-3.62-2.14-6.26
			c0-4.86,2.95-7.29,8.84-7.29h2.7c-0.12-0.96-0.44-1.68-0.95-2.16C180.07,90.71,179.41,90.47,178.6,90.47z M178.97,98.48
			c-0.56,0-1.02,0.19-1.37,0.56c-0.36,0.38-0.54,0.86-0.54,1.44c0,0.51,0.15,0.93,0.44,1.26s0.66,0.49,1.09,0.49
			c0.96,0,1.96-0.46,2.98-1.38v-2.36H178.97z"/>
		<path class="st1" d="M204.62,84.78h5.91l0.79,7.34h-6.7v6.16c0,1.03,0.24,1.84,0.72,2.44c0.48,0.6,1.12,0.9,1.93,0.9
			c1.12,0,2.2-0.32,3.26-0.97l2.42,6.36c-0.59,0.55-1.51,1.05-2.77,1.51c-1.26,0.46-2.41,0.69-3.47,0.69c-1.86,0-3.6-0.38-5.21-1.13
			s-2.91-1.87-3.89-3.36c-0.98-1.49-1.47-3.29-1.47-5.41v-7.18h-3.49v-7.34h3.49v-6.72l8.47-1.28V84.78z"/>
		<path class="st1" d="M224.12,73.75h27.09l0.79,7.34h-10.1v27.55h-8.47V81.08h-9.31V73.75z"/>
		<path class="st1" d="M279.18,92.58v16.06h-8.47V93.45c0-1.98-0.81-2.98-2.42-2.98c-0.5,0-1.2,0.15-2.09,0.44
			c-0.9,0.29-1.72,0.62-2.47,1v16.73h-8.47V72.98l8.47-0.56v12.67c2.61-1.44,5.03-2.15,7.26-2.15c2.73,0,4.78,0.88,6.14,2.64
			C278.5,87.33,279.18,89.67,279.18,92.58z"/>
		<path class="st1" d="M294.4,82.88c2.33,0,4.3,0.58,5.91,1.74c1.61,1.16,2.83,2.72,3.65,4.67c0.82,1.95,1.23,4.12,1.23,6.52v2.72
			h-13.73c0.31,1.06,0.89,1.89,1.75,2.49c0.85,0.6,1.98,0.9,3.38,0.9c2.14,0,4.2-0.56,6.19-1.69l2.37,6.31
			c-0.93,0.75-2.27,1.38-4.03,1.9c-1.75,0.51-3.55,0.77-5.38,0.77c-2.64,0-4.97-0.5-7-1.49c-2.03-0.99-3.62-2.47-4.77-4.44
			c-1.15-1.97-1.72-4.32-1.72-7.05c0-2.7,0.53-5.06,1.58-7.08c1.05-2.02,2.5-3.57,4.35-4.64C290.03,83.42,292.1,82.88,294.4,82.88z
			 M294.16,90.37c-0.78,0-1.47,0.36-2.07,1.08c-0.6,0.72-0.89,1.54-0.86,2.46h5.86c0-0.85-0.25-1.66-0.75-2.41
			C295.86,90.75,295.13,90.37,294.16,90.37z"/>
		<path class="st1" d="M348.11,73.75v34.89h-8.47V94.99h-11.08v13.65h-8.47V73.75l8.47-0.31v14.21h11.08v-13.9H348.11z"/>
		<path class="st1" d="M365.38,109.2c-3.79,0-6.83-1.12-9.15-3.36s-3.47-5.5-3.47-9.77c0-2.7,0.57-5.05,1.7-7.05
			c1.13-2,2.67-3.52,4.61-4.57c1.94-1.04,4.1-1.56,6.49-1.56c2.51,0,4.73,0.51,6.66,1.54c1.92,1.03,3.43,2.55,4.51,4.57
			c1.09,2.02,1.63,4.46,1.63,7.34c0,2.7-0.57,5.03-1.7,6.98c-1.13,1.95-2.68,3.42-4.65,4.41C370.04,108.7,367.83,109.2,365.38,109.2
			z M369.61,96.32c0-1.71-0.35-3.11-1.05-4.21c-0.7-1.09-1.67-1.64-2.91-1.64c-1.3,0-2.32,0.5-3.05,1.49
			c-0.73,0.99-1.09,2.36-1.09,4.1c0,1.71,0.34,3.06,1.02,4.05c0.68,0.99,1.66,1.49,2.93,1.49c1.33,0,2.36-0.44,3.07-1.33
			C369.25,99.38,369.61,98.07,369.61,96.32z"/>
		<path class="st1" d="M391.72,84.78h5.91l0.79,7.34h-6.7v6.16c0,1.03,0.24,1.84,0.72,2.44c0.48,0.6,1.12,0.9,1.93,0.9
			c1.12,0,2.2-0.32,3.26-0.97l2.42,6.36c-0.59,0.55-1.51,1.05-2.77,1.51c-1.26,0.46-2.41,0.69-3.47,0.69c-1.86,0-3.6-0.38-5.21-1.13
			s-2.91-1.87-3.89-3.36c-0.98-1.49-1.47-3.29-1.47-5.41v-7.18h-3.49v-7.34h3.49v-6.72l8.47-1.28V84.78z"/>
		<path class="st1" d="M413.59,82.88c2.33,0,4.3,0.58,5.91,1.74c1.61,1.16,2.83,2.72,3.65,4.67c0.82,1.95,1.23,4.12,1.23,6.52v2.72
			h-13.73c0.31,1.06,0.89,1.89,1.75,2.49c0.85,0.6,1.98,0.9,3.38,0.9c2.14,0,4.2-0.56,6.19-1.69l2.37,6.31
			c-0.93,0.75-2.27,1.38-4.03,1.9c-1.75,0.51-3.55,0.77-5.38,0.77c-2.64,0-4.97-0.5-7-1.49c-2.03-0.99-3.62-2.47-4.77-4.44
			c-1.15-1.97-1.72-4.32-1.72-7.05c0-2.7,0.53-5.06,1.58-7.08c1.05-2.02,2.5-3.57,4.35-4.64C409.23,83.42,411.3,82.88,413.59,82.88z
			 M413.36,90.37c-0.78,0-1.47,0.36-2.07,1.08c-0.6,0.72-0.89,1.54-0.86,2.46h5.86c0-0.85-0.25-1.66-0.75-2.41
			C415.05,90.75,414.32,90.37,413.36,90.37z"/>
		<path class="st1" d="M436.59,72.41v36.22h-8.47V72.98L436.59,72.41z"/>
		<path class="st0" d="M180.69,138.11h9.73l0.79,7.34h-10.52v13.19h-8.47V123.8h20.53l0.79,7.34h-12.85V138.11z"/>
		<path class="st0" d="M204.57,140.47c-0.74,0-1.65,0.15-2.72,0.44s-2.04,0.64-2.91,1.05l-2.23-6.72c1.3-0.65,2.85-1.21,4.65-1.67
			c1.8-0.46,3.57-0.69,5.31-0.69c3.01,0,5.32,0.92,6.94,2.77c1.61,1.85,2.42,4.38,2.42,7.59v15.39h-4.1l-2.42-2.57
			c-1.49,2.09-3.18,3.13-5.07,3.13c-2.79,0-4.9-0.77-6.33-2.31c-1.43-1.54-2.14-3.62-2.14-6.26c0-4.86,2.95-7.29,8.84-7.29h2.7
			c-0.12-0.96-0.44-1.68-0.95-2.16C206.04,140.71,205.38,140.47,204.57,140.47z M204.94,148.48c-0.56,0-1.02,0.19-1.37,0.56
			c-0.36,0.38-0.54,0.86-0.54,1.44c0,0.51,0.15,0.93,0.44,1.26s0.66,0.49,1.09,0.49c0.96,0,1.96-0.46,2.98-1.38v-2.36H204.94z"/>
		<path class="st0" d="M231.43,132.88c3.23,0,5.8,0.84,7.73,2.51l-2.37,6.41c-0.9-0.51-1.67-0.86-2.33-1.05
			c-0.65-0.19-1.38-0.28-2.19-0.28c-1.18,0-2.21,0.53-3.09,1.59c-0.88,1.06-1.33,2.45-1.33,4.16c0,1.68,0.43,2.99,1.3,3.95
			c0.87,0.96,1.91,1.44,3.12,1.44c0.78,0,1.5-0.09,2.19-0.28c0.68-0.19,1.46-0.54,2.33-1.05l2.37,6.41
			c-1.92,1.68-4.5,2.51-7.73,2.51c-3.72,0-6.71-1.14-8.96-3.41c-2.25-2.27-3.38-5.46-3.38-9.57c0-2.74,0.52-5.11,1.56-7.13
			c1.04-2.02,2.49-3.56,4.35-4.62C226.87,133.41,229.01,132.88,231.43,132.88z"/>
		<path class="st0" d="M250.6,125.34c0,1.37-0.46,2.55-1.37,3.54c-0.92,0.99-2.01,1.49-3.28,1.49c-1.24,0-2.31-0.5-3.21-1.49
			c-0.9-0.99-1.35-2.17-1.35-3.54c0-1.4,0.45-2.61,1.35-3.62c0.9-1.01,1.97-1.51,3.21-1.51c1.27,0,2.37,0.5,3.28,1.51
			C250.14,122.73,250.6,123.93,250.6,125.34z M250.23,133.75v24.88h-8.47v-24.88H250.23z"/>
		<path class="st0" d="M263.82,122.41v36.22h-8.47v-35.66L263.82,122.41z"/>
		<path class="st0" d="M277.78,125.34c0,1.37-0.46,2.55-1.37,3.54c-0.92,0.99-2.01,1.49-3.28,1.49c-1.24,0-2.31-0.5-3.21-1.49
			c-0.9-0.99-1.35-2.17-1.35-3.54c0-1.4,0.45-2.61,1.35-3.62c0.9-1.01,1.97-1.51,3.21-1.51c1.27,0,2.37,0.5,3.28,1.51
			C277.32,122.73,277.78,123.93,277.78,125.34z M277.41,133.75v24.88h-8.47v-24.88H277.41z"/>
		<path class="st0" d="M292.16,134.78h5.91l0.79,7.34h-6.7v6.16c0,1.03,0.24,1.84,0.72,2.44c0.48,0.6,1.12,0.9,1.93,0.9
			c1.12,0,2.2-0.32,3.26-0.97l2.42,6.36c-0.59,0.55-1.51,1.05-2.77,1.51c-1.26,0.46-2.41,0.69-3.47,0.69c-1.86,0-3.6-0.38-5.21-1.13
			s-2.91-1.87-3.89-3.36c-0.98-1.49-1.47-3.29-1.47-5.41v-7.18h-3.49v-7.34h3.49v-6.72l8.47-1.28V134.78z"/>
		<path class="st0" d="M312.13,125.34c0,1.37-0.46,2.55-1.37,3.54c-0.92,0.99-2.01,1.49-3.28,1.49c-1.24,0-2.31-0.5-3.21-1.49
			c-0.9-0.99-1.35-2.17-1.35-3.54c0-1.4,0.45-2.61,1.35-3.62c0.9-1.01,1.97-1.51,3.21-1.51c1.27,0,2.37,0.5,3.28,1.51
			C311.67,122.73,312.13,123.93,312.13,125.34z M311.76,133.75v24.88h-8.47v-24.88H311.76z"/>
		<path class="st0" d="M327.16,132.88c2.33,0,4.3,0.58,5.91,1.74c1.61,1.16,2.83,2.72,3.65,4.67c0.82,1.95,1.23,4.12,1.23,6.52v2.72
			h-13.73c0.31,1.06,0.89,1.89,1.75,2.49c0.85,0.6,1.98,0.9,3.38,0.9c2.14,0,4.2-0.56,6.19-1.69l2.37,6.31
			c-0.93,0.75-2.27,1.38-4.03,1.9c-1.75,0.51-3.55,0.77-5.38,0.77c-2.64,0-4.97-0.5-7-1.49c-2.03-0.99-3.62-2.47-4.77-4.44
			c-1.15-1.97-1.72-4.32-1.72-7.05c0-2.7,0.53-5.06,1.58-7.08c1.05-2.02,2.5-3.57,4.35-4.64
			C322.8,133.42,324.87,132.88,327.16,132.88z M326.93,140.37c-0.78,0-1.47,0.36-2.07,1.08c-0.6,0.72-0.89,1.54-0.86,2.46h5.86
			c0-0.85-0.25-1.66-0.75-2.41C328.62,140.75,327.89,140.37,326.93,140.37z"/>
		<path class="st0" d="M349.55,159.2c-1.33,0-2.99-0.24-4.96-0.72s-3.53-1.21-4.68-2.21l2.37-5.9c0.9,0.48,1.99,0.89,3.28,1.23
			c1.29,0.34,2.33,0.51,3.14,0.51c0.56,0,1.02-0.1,1.4-0.31c0.37-0.21,0.56-0.48,0.56-0.82c0-0.21-0.21-0.45-0.63-0.74
			s-0.95-0.56-1.61-0.79c-2.36-0.92-4.29-2.02-5.79-3.28c-1.51-1.26-2.26-2.92-2.26-4.98c0-2.6,0.88-4.63,2.65-6.11
			c1.77-1.47,4.22-2.21,7.35-2.21c1.33,0,2.8,0.2,4.4,0.59c1.6,0.39,2.97,1.09,4.12,2.08l-2.37,5.9c-0.93-0.45-1.88-0.8-2.86-1.08
			c-0.98-0.27-1.87-0.41-2.68-0.41c-0.68,0-1.24,0.1-1.68,0.31s-0.65,0.48-0.65,0.82c0,0.21,0.22,0.44,0.65,0.72
			c0.43,0.27,1.01,0.55,1.72,0.82c2.33,0.89,4.23,1.97,5.7,3.26c1.47,1.28,2.21,2.95,2.21,5c0,2.63-0.79,4.68-2.37,6.13
			C355,158.47,352.65,159.2,349.55,159.2z"/>
	</g>
</g>
<g>
	<path class="st2" d="M152.33,43.36l-7.08-0.6c-1.45-7.6-7.71-13.69-15.83-14.37L55.2,22.15c-8.11-0.68-15.48,4.26-18.01,11.52
		L6.47,31.08l-0.38,4.55l29.86,2.51l-1.01,12.02l4.71,0.27l1.05-12.5c0.49-5.87,8.84-11.78,14.71-11.29l59.21,4.99
		c-2.49,2.75-5.15,8.82-5.49,12.79l-8.17,96.97l-35.9-3.02l-0.37,4.35l40.4,3.4l1.57-18.64l31.75,2.67l6.97-82.79l6.39,0.54
		l0.38-4.55L152.33,43.36z M129,32.78c5.29,0.45,9.44,4.21,11.12,9.57l-24.96-2.1c2.57-5.26,7.28-8.02,12.57-7.57L129,32.78z
		 M134.81,125.48l-27.78-2.34l6.62-78.57l27.78,2.34L134.81,125.48z"/>
	
		<rect x="37.39" y="51.59" transform="matrix(0.0839 -0.9965 0.9965 0.0839 -20.7311 98.4732)" class="st2" width="11.61" height="17.84"/>
	<path class="st2" d="M59.28,78.99l-8.06-9.54l-17.78-1.5l-9.54,8.06c-4.12,3.48-6.61,8.31-7.05,13.49l-3.97,47.12
		c-0.92,10.87,7.3,20.61,18.18,21.52l7.25,0.61c10.87,0.92,20.61-7.3,21.52-18.18l3.95-46.95C64.41,88.29,62.76,83.11,59.28,78.99z
		 M26.12,80.28l7.83-7.42l15.86,1.34l6.57,8.64c2.64,3.12,3.96,7.17,3.61,11.29l-0.75,8.85l-39.31-3.31l0.75-8.85
		C21.02,86.7,22.79,82.91,26.12,80.28z M59.02,106.69l-0.73,8.67l-39.3-3.31l0.73-8.67L59.02,106.69z M39.42,154.64L31,153.93
		c-8.22-0.69-14.47-8.09-13.78-16.31l1.82-21.66l38.51,3.24l-1.82,21.66C55.04,149.09,47.64,155.33,39.42,154.64z"/>
</g>
</svg>
