<?xml version="1.0" encoding="utf-8"?>
<!-- Generator: Adobe Illustrator 23.0.1, SVG Export Plug-In . SVG Version: 6.00 Build 0)  -->
<svg version="1.1" id="Layer_1" xmlns="http://www.w3.org/2000/svg" xmlns:xlink="http://www.w3.org/1999/xlink" x="0px" y="0px"
	 viewBox="0 0 321.7 185.71" style="enable-background:new 0 0 321.7 185.71;" xml:space="preserve">
<style type="text/css">
	.st0{fill:#FFCB04;}
	.st1{fill:#FFFFFF;}
	.st2{opacity:0.8;fill:#FFFFFF;}
</style>
<g>
	<path class="st0" d="M21.95,73.18c-0.58,0.13-1.09,0.48-1.41,0.98L10.25,90.2c-0.67,1.04-0.37,2.43,0.68,3.1l16.03,10.3
		c0.5,0.32,1.11,0.43,1.69,0.3l43.88-9.56l12.91,59.24c0.26,1.21,1.46,1.98,2.67,1.72l8.78-1.91c1.21-0.26,1.98-1.46,1.72-2.67
		L81.87,73.92l43.88-9.56c0.58-0.13,1.09-0.48,1.41-0.98l10.3-16.03c0.67-1.04,0.37-2.43-0.68-3.1l-16.03-10.3
		c-0.5-0.32-1.11-0.43-1.69-0.3L75.18,43.2l-4.3-19.75c-0.26-1.21-1.46-1.98-2.67-1.72l-8.78,1.91c-1.21,0.26-1.98,1.46-1.72,2.67
		l0.48,2.19l-43.88,9.56c-0.58,0.13-1.09,0.48-1.41,0.98L2.6,55.09c-0.67,1.04-0.37,2.43,0.68,3.1l16.03,10.3
		c0.5,0.32,1.11,0.43,1.69,0.3l43.88-9.56l0.96,4.39L21.95,73.18z M28.6,99.31l-13.36-8.58l8.58-13.36l42.97-9.36l4.78,21.94
		L28.6,99.31z M119.11,38.23l13.36,8.58l-8.58,13.36l-42.97,9.36l-4.78-21.94L119.11,38.23z M62.58,27.56l4.39-0.96l26.77,122.87
		l-4.39,0.96L62.58,27.56z M20.95,64.21L7.59,55.63l8.58-13.36l42.97-9.36l4.78,21.94L20.95,64.21z"/>
	
		<rect x="19.74" y="56.06" transform="matrix(0.9771 -0.2129 0.2129 0.9771 -11.8573 6.4953)" class="st0" width="8.98" height="4.49"/>
	
		<rect x="32.73" y="45.21" transform="matrix(0.9771 -0.2129 0.2129 0.9771 -9.0701 10.6839)" class="st0" width="24.7" height="4.49"/>
	
		<rect x="27.21" y="83.19" transform="matrix(0.9771 -0.2129 0.2129 0.9771 -17.2803 10.3801)" class="st0" width="24.7" height="4.49"/>
	
		<rect x="55.91" y="78.65" transform="matrix(0.9771 -0.2129 0.2129 0.9771 -15.8358 14.7132)" class="st0" width="8.98" height="4.49"/>
	
		<rect x="82.68" y="53.21" transform="matrix(0.9771 -0.2129 0.2129 0.9771 -9.6779 21.0228)" class="st0" width="20.21" height="4.49"/>
	
		<rect x="106.89" y="48.67" transform="matrix(0.9771 -0.2129 0.2129 0.9771 -8.2334 25.356)" class="st0" width="13.47" height="4.49"/>
</g>
<g>
	<g>
		<path class="st1" d="M170.9,48.01v9.88h-9.06V23.95h14.24c2.59,0,4.94,0.46,7.05,1.37c2.11,0.92,3.79,2.3,5.03,4.14
			c1.25,1.85,1.87,4.08,1.87,6.71c0,2.59-0.66,4.78-1.99,6.56c-1.33,1.78-3.08,3.1-5.25,3.97c-2.17,0.87-4.54,1.3-7.1,1.3H170.9z
			 M180.66,36.18c0-1.53-0.44-2.76-1.32-3.69c-0.88-0.93-2.07-1.4-3.56-1.4h-4.88v9.78h4.98c1.39,0,2.54-0.45,3.44-1.35
			S180.66,37.51,180.66,36.18z"/>
		<path class="st1" d="M205.01,32.84c2.49,0,4.6,0.57,6.32,1.7c1.73,1.13,3.03,2.65,3.91,4.54c0.88,1.9,1.32,4.01,1.32,6.34v2.65
			h-14.69c0.33,1.03,0.95,1.84,1.87,2.42s2.12,0.87,3.61,0.87c2.29,0,4.5-0.55,6.62-1.65l2.54,6.14c-1,0.73-2.43,1.35-4.31,1.85
			c-1.88,0.5-3.79,0.75-5.75,0.75c-2.82,0-5.32-0.48-7.5-1.45c-2.17-0.96-3.88-2.4-5.1-4.32s-1.84-4.2-1.84-6.86
			c0-2.63,0.56-4.92,1.69-6.89c1.13-1.96,2.68-3.47,4.66-4.52C200.33,33.36,202.55,32.84,205.01,32.84z M204.76,40.12
			c-0.83,0-1.57,0.35-2.22,1.05c-0.65,0.7-0.95,1.5-0.92,2.4h6.27c0-0.83-0.27-1.61-0.8-2.35
			C206.57,40.49,205.79,40.12,204.76,40.12z"/>
		<path class="st1" d="M243.6,57.89h-4.58l-1.34-1.75c-1,0.7-2.07,1.26-3.21,1.67c-1.14,0.42-2.31,0.62-3.51,0.62
			c-3.72,0-6.71-1.06-8.99-3.19c-2.28-2.13-3.41-5.27-3.41-9.43c0-4.23,1.15-7.45,3.46-9.66s5.42-3.32,9.34-3.32
			c1.13,0,2.19,0.17,3.19,0.5V23.2l9.06-0.55V57.89z M232.35,51.45c0.73,0,1.46-0.25,2.19-0.75V40.47
			c-0.96-0.43-1.83-0.65-2.59-0.65c-1.16,0-2.12,0.53-2.89,1.6c-0.76,1.07-1.15,2.51-1.15,4.34s0.38,3.24,1.15,4.22
			S230.92,51.45,232.35,51.45z"/>
		<path class="st1" d="M272.63,57.89h-4.58l-1.34-1.75c-1,0.7-2.07,1.26-3.21,1.67s-2.32,0.62-3.51,0.62
			c-3.72,0-6.71-1.06-8.99-3.19c-2.27-2.13-3.41-5.27-3.41-9.43c0-4.23,1.15-7.45,3.46-9.66s5.42-3.32,9.34-3.32
			c1.13,0,2.19,0.17,3.19,0.5V23.2l9.06-0.55V57.89z M261.38,51.45c0.73,0,1.46-0.25,2.19-0.75V40.47
			c-0.96-0.43-1.83-0.65-2.59-0.65c-1.16,0-2.12,0.53-2.89,1.6c-0.76,1.07-1.14,2.51-1.14,4.34s0.38,3.24,1.14,4.22
			S259.95,51.45,261.38,51.45z"/>
		<path class="st1" d="M303.45,33.68l-9.51,24.21v11.48h-8.57V57.89l-8.76-22.71l8.37-2.4l4.83,14.57l4.63-13.68H303.45z"/>
		<path class="st2" d="M170.9,98.01v9.88h-9.06V73.95h14.24c2.59,0,4.94,0.46,7.05,1.37c2.11,0.92,3.79,2.3,5.03,4.14
			c1.25,1.85,1.87,4.08,1.87,6.71c0,2.59-0.66,4.78-1.99,6.56c-1.33,1.78-3.08,3.1-5.25,3.97c-2.17,0.87-4.54,1.3-7.1,1.3H170.9z
			 M180.66,86.18c0-1.53-0.44-2.76-1.32-3.69c-0.88-0.93-2.07-1.4-3.56-1.4h-4.88v9.78h4.98c1.39,0,2.54-0.45,3.44-1.35
			S180.66,87.51,180.66,86.18z"/>
		<path class="st2" d="M201.82,90.22c-0.8,0-1.77,0.14-2.91,0.42c-1.15,0.28-2.18,0.62-3.11,1.02l-2.39-6.54
			c1.39-0.63,3.05-1.17,4.98-1.62s3.82-0.67,5.68-0.67c3.22,0,5.69,0.9,7.42,2.7c1.73,1.8,2.59,4.26,2.59,7.39v14.97h-4.38
			l-2.59-2.5c-1.59,2.03-3.4,3.04-5.43,3.04c-2.99,0-5.25-0.75-6.77-2.25c-1.53-1.5-2.29-3.53-2.29-6.09c0-4.72,3.15-7.09,9.46-7.09
			h2.89c-0.13-0.93-0.47-1.63-1.02-2.1C203.39,90.46,202.68,90.22,201.82,90.22z M202.22,98.01c-0.6,0-1.09,0.18-1.47,0.55
			c-0.38,0.37-0.57,0.83-0.57,1.4c0,0.5,0.16,0.91,0.47,1.22c0.32,0.32,0.71,0.47,1.17,0.47c1.03,0,2.09-0.45,3.19-1.35v-2.3H202.22
			z"/>
		<path class="st2" d="M244.2,95.46c0,4.23-1.15,7.45-3.46,9.66c-2.31,2.21-5.42,3.32-9.34,3.32c-1.13,0-2.19-0.17-3.19-0.5v11.43
			h-9.06V83.73h4.53l1.39,1.4c1-0.7,2.07-1.26,3.21-1.67c1.14-0.42,2.31-0.62,3.51-0.62c3.72,0,6.71,1.07,8.99,3.19
			C243.06,88.16,244.2,91.3,244.2,95.46z M234.83,95.51c0-1.83-0.38-3.24-1.15-4.22c-0.76-0.98-1.86-1.47-3.29-1.47
			c-0.7,0-1.43,0.25-2.19,0.75v10.23c0.96,0.43,1.83,0.65,2.59,0.65c1.16,0,2.12-0.53,2.89-1.6
			C234.45,98.79,234.83,97.34,234.83,95.51z"/>
		<path class="st2" d="M273.03,95.46c0,4.23-1.15,7.45-3.46,9.66c-2.31,2.21-5.42,3.32-9.34,3.32c-1.13,0-2.19-0.17-3.19-0.5v11.43
			h-9.06V83.73h4.53l1.39,1.4c1-0.7,2.07-1.26,3.21-1.67c1.14-0.42,2.32-0.62,3.51-0.62c3.72,0,6.71,1.07,8.99,3.19
			C271.89,88.16,273.03,91.3,273.03,95.46z M263.67,95.51c0-1.83-0.38-3.24-1.15-4.22c-0.76-0.98-1.86-1.47-3.29-1.47
			c-0.7,0-1.43,0.25-2.19,0.75v10.23c0.96,0.43,1.82,0.65,2.59,0.65c1.16,0,2.12-0.53,2.89-1.6
			C263.29,98.79,263.67,97.34,263.67,95.51z"/>
		<path class="st2" d="M288.02,82.84c2.49,0,4.6,0.57,6.32,1.7c1.73,1.13,3.03,2.65,3.91,4.54c0.88,1.9,1.32,4.01,1.32,6.34v2.65
			h-14.69c0.33,1.03,0.95,1.84,1.87,2.42s2.12,0.87,3.61,0.87c2.29,0,4.5-0.55,6.62-1.65l2.54,6.14c-1,0.73-2.43,1.35-4.31,1.85
			c-1.88,0.5-3.79,0.75-5.75,0.75c-2.82,0-5.32-0.48-7.5-1.45c-2.17-0.96-3.88-2.4-5.1-4.32s-1.84-4.2-1.84-6.86
			c0-2.63,0.56-4.92,1.69-6.89c1.13-1.96,2.68-3.47,4.66-4.52C283.34,83.36,285.56,82.84,288.02,82.84z M287.77,90.12
			c-0.83,0-1.57,0.35-2.22,1.05c-0.65,0.7-0.95,1.5-0.92,2.4h6.27c0-0.83-0.27-1.61-0.8-2.35C289.58,90.49,288.8,90.12,287.77,90.12
			z"/>
		<path class="st2" d="M315.8,91.72c-1.43,0.5-2.66,1.15-3.68,1.95v14.23h-9.06V83.73h4.53l2.19,2.95c1.16-0.8,2.49-1.5,3.98-2.1
			s2.87-0.9,4.13-0.9l1.84,7.29C318.54,90.97,317.23,91.22,315.8,91.72z"/>
		<path class="st1" d="M185.79,150.75l0.85,7.14h-24.8v-33.94h23.95l0.85,7.14H170.9v6.19h10.41l0.85,7.14H170.9v6.34H185.79z
			 M182.45,111.37l-5.68,9.93l-6.57-1.1l3.29-8.83H182.45z"/>
		<path class="st1" d="M215.46,133.68l-9.51,24.21h-8.57l-8.76-22.71l8.37-2.4l4.83,14.57l4.63-13.68H215.46z"/>
		<path class="st1" d="M230.45,158.44c-4.05,0-7.31-1.09-9.79-3.27c-2.47-2.18-3.71-5.35-3.71-9.51c0-2.63,0.61-4.92,1.82-6.86
			c1.21-1.95,2.85-3.43,4.93-4.44c2.07-1.01,4.39-1.52,6.95-1.52c2.69,0,5.06,0.5,7.12,1.5c2.06,1,3.67,2.48,4.83,4.44
			c1.16,1.96,1.74,4.34,1.74,7.14c0,2.63-0.61,4.89-1.82,6.79c-1.21,1.9-2.87,3.33-4.98,4.29
			C235.44,157.96,233.07,158.44,230.45,158.44z M234.98,145.91c0-1.66-0.37-3.03-1.12-4.09c-0.75-1.06-1.79-1.6-3.11-1.6
			c-1.39,0-2.48,0.48-3.26,1.45c-0.78,0.96-1.17,2.3-1.17,3.99c0,1.66,0.36,2.98,1.1,3.94c0.73,0.97,1.78,1.45,3.14,1.45
			c1.43,0,2.52-0.43,3.29-1.3C234.6,148.89,234.98,147.61,234.98,145.91z"/>
		<path class="st1" d="M260.58,141.72c-1.43,0.5-2.66,1.15-3.68,1.95v14.23h-9.06v-24.16h4.53l2.19,2.95c1.16-0.8,2.49-1.5,3.98-2.1
			s2.87-0.9,4.13-0.9l1.84,7.29C263.32,140.97,262.01,141.22,260.58,141.72z"/>
		<path class="st1" d="M275.82,140.22c-0.8,0-1.77,0.14-2.91,0.42c-1.14,0.28-2.18,0.62-3.11,1.02l-2.39-6.54
			c1.39-0.63,3.05-1.17,4.98-1.62c1.92-0.45,3.82-0.67,5.68-0.67c3.22,0,5.69,0.9,7.42,2.7s2.59,4.26,2.59,7.39v14.97h-4.38
			l-2.59-2.5c-1.59,2.03-3.4,3.04-5.43,3.04c-2.99,0-5.25-0.75-6.77-2.25c-1.53-1.5-2.29-3.53-2.29-6.09c0-4.72,3.15-7.09,9.46-7.09
			h2.89c-0.13-0.93-0.47-1.63-1.02-2.1C277.39,140.46,276.68,140.22,275.82,140.22z M276.22,148.01c-0.6,0-1.09,0.18-1.47,0.55
			s-0.57,0.83-0.57,1.4c0,0.5,0.16,0.91,0.47,1.22c0.32,0.32,0.71,0.47,1.17,0.47c1.03,0,2.09-0.45,3.19-1.35v-2.3H276.22z"/>
	</g>
</g>
</svg>
