<?xml version="1.0" encoding="utf-8"?>
<!-- Generator: Adobe Illustrator 23.0.1, SVG Export Plug-In . SVG Version: 6.00 Build 0)  -->
<svg version="1.1" id="Layer_1" xmlns="http://www.w3.org/2000/svg" xmlns:xlink="http://www.w3.org/1999/xlink" x="0px" y="0px"
	 viewBox="0 0 109.5 81.71" style="enable-background:new 0 0 109.5 81.71;" xml:space="preserve">
<style type="text/css">
	.st0{fill:#FFCB04;}
</style>
<rect x="21.45" y="40.38" transform="matrix(0.0109 -0.9999 0.9999 0.0109 -21.0643 66.9901)" class="st0" width="3.76" height="7.52"/>
<rect x="39.3" y="34" transform="matrix(0.0109 -0.9999 0.9999 0.0109 -3.603 85.0319)" class="st0" width="3.76" height="20.67"/>
<g>
	<path class="st0" d="M46.67,22.07c0.98,0.34,1.93,0.73,2.84,1.16c0.52-0.87,1.09-1.71,1.73-2.51c-0.93-0.45-1.88-0.87-2.87-1.24
		C47.76,20.32,47.18,21.18,46.67,22.07z"/>
	<path class="st0" d="M63.57,55.16c-0.98-0.34-1.93-0.73-2.84-1.16c-0.52,0.87-1.09,1.71-1.73,2.51c0.93,0.45,1.88,0.87,2.87,1.24
		C62.49,56.92,63.06,56.06,63.57,55.16z"/>
</g>
<g>
	<path class="st0" d="M63.64,43.57c0,3.75-1.06,7.29-2.92,10.43c0.92,0.43,1.87,0.82,2.84,1.16c2-3.49,3.12-7.43,3.12-11.6
		c0-9.82-6.24-18.34-15.44-22.85c-0.64,0.8-1.21,1.64-1.73,2.51C57.95,27.21,63.64,34.85,63.64,43.57z"/>
	<path class="st0" d="M36.25,66.81c-1.92,0-3.81-0.17-5.67-0.5c-0.51-0.09-1.03,0.08-1.39,0.46c-3.28,3.49-7.15,5.27-11.69,5.37
		c1.85-2.63,3.02-5.34,3.51-8.13c0.11-0.61-0.17-1.22-0.7-1.54C13.16,58.11,8.85,51.13,8.85,43.57c0-12.78,12.22-23.24,27.4-23.24
		c3.7,0,7.21,0.62,10.42,1.75c0.51-0.89,1.08-1.76,1.7-2.59c-3.72-1.39-7.82-2.17-12.13-2.17c-16.77,0-30.44,11.7-30.44,26.25
		c0,8.33,4.52,15.97,12,20.89c-0.67,2.71-2.14,5.4-4.45,8.05c-0.8,0.91-0.24,2.34,0.97,2.48c6.46,0.76,12.01-1.11,16.51-5.57
		c1.78,0.28,3.58,0.42,5.41,0.42c10.73,0,20.19-4.8,25.61-12.07c-0.98-0.37-1.94-0.78-2.87-1.24
		C54.08,62.71,45.75,66.81,36.25,66.81z"/>
	<path class="st0" d="M104.43,33.67c0-14.55-13.67-26.25-30.44-26.25c-10.73,0-20.19,4.8-25.61,12.07c0.98,0.37,1.94,0.78,2.87,1.24
		c4.91-6.2,13.25-10.29,22.75-10.29c15.18,0,27.4,10.46,27.4,23.24c0,7.56-4.3,14.54-11.46,18.89c-0.53,0.32-0.81,0.93-0.7,1.54
		c0.49,2.78,1.66,5.5,3.51,8.13c-4.54-0.1-8.41-1.88-11.69-5.37c-0.35-0.38-0.88-0.55-1.39-0.46c-1.86,0.33-3.75,0.5-5.67,0.5
		c-3.7,0-7.21-0.62-10.42-1.75c-0.51,0.89-1.08,1.76-1.7,2.59c3.72,1.39,7.82,2.17,12.13,2.17c1.82,0,3.63-0.14,5.41-0.42
		c4.5,4.46,10.05,6.34,16.51,5.57c1.21-0.14,1.77-1.57,0.97-2.48c-2.31-2.65-3.78-5.33-4.45-8.05
		C99.91,49.64,104.43,41.99,104.43,33.67z"/>
</g>
</svg>
