<?xml version="1.0" encoding="utf-8"?>
<!-- Generator: Adobe Illustrator 23.0.1, SVG Export Plug-In . SVG Version: 6.00 Build 0)  -->
<svg version="1.1" id="Layer_1" xmlns="http://www.w3.org/2000/svg" xmlns:xlink="http://www.w3.org/1999/xlink" x="0px" y="0px"
	 viewBox="0 0 93.57 81.71" style="enable-background:new 0 0 93.57 81.71;" xml:space="preserve">
<style type="text/css">
	.st0{fill:#FFCB04;}
</style>
<rect x="35.49" y="39.04" transform="matrix(0.0109 -0.9999 0.9999 0.0109 -5.8362 79.7056)" class="st0" width="3.76" height="7.52"/>
<rect x="53.34" y="32.66" transform="matrix(0.0109 -0.9999 0.9999 0.0109 11.6252 97.7474)" class="st0" width="3.76" height="20.67"/>
<path class="st0" d="M18.95,42.39c0-14.55,13.67-26.25,30.44-26.25s30.44,11.7,30.44,26.25c0,14.55-13.67,26.26-30.44,26.26
	c-1.82,0-3.63-0.14-5.41-0.42c-4.5,4.46-10.05,6.34-16.51,5.57c-1.21-0.14-1.77-1.57-0.97-2.48c2.31-2.65,3.78-5.33,4.45-8.05
	C23.47,58.36,18.95,50.72,18.95,42.39z M42.33,65.58c0.35-0.38,0.88-0.55,1.39-0.46c1.86,0.33,3.75,0.5,5.67,0.5
	c15.18,0,27.4-10.46,27.4-23.24c0-12.78-12.22-23.24-27.4-23.24S22,29.61,22,42.39c0,7.56,4.3,14.54,11.46,18.89
	c0.53,0.32,0.81,0.93,0.7,1.54c-0.49,2.78-1.66,5.5-3.51,8.13C35.19,70.85,39.05,69.07,42.33,65.58z"/>
</svg>
