<?xml version="1.0" encoding="utf-8"?>
<!-- Generator: Adobe Illustrator 23.0.1, SVG Export Plug-In . SVG Version: 6.00 Build 0)  -->
<svg version="1.1" id="Layer_1" xmlns="http://www.w3.org/2000/svg" xmlns:xlink="http://www.w3.org/1999/xlink" x="0px" y="0px"
	 viewBox="0 0 285.57 185.71" style="enable-background:new 0 0 285.57 185.71;" xml:space="preserve">
<style type="text/css">
	.st0{fill:#FFFFFF;}
	.st1{opacity:0.8;fill:#FFFFFF;enable-background:new    ;}
	.st2{opacity:0.59;fill:#FFFFFF;enable-background:new    ;}
	.st3{fill:#FFCB04;}
	.st4{fill:#EE3857;}
</style>
<g>
	<g>
		<path class="st0" d="M153.12,48.22v10.09h-8.29V23.66h13.03c2.37,0,4.52,0.47,6.45,1.4c1.93,0.94,3.46,2.34,4.6,4.23
			c1.14,1.88,1.71,4.17,1.71,6.85c0,2.65-0.61,4.88-1.82,6.7s-2.82,3.17-4.81,4.05c-1.99,0.88-4.15,1.33-6.49,1.33H153.12z
			 M162.04,36.14c0-1.56-0.4-2.82-1.21-3.77c-0.8-0.95-1.89-1.43-3.26-1.43h-4.46v9.99h4.56c1.28,0,2.32-0.46,3.14-1.38
			S162.04,37.5,162.04,36.14z"/>
		<path class="st0" d="M204.96,40.78c0,3.53-0.62,6.62-1.87,9.27s-2.99,4.69-5.24,6.11c-2.25,1.43-4.81,2.14-7.7,2.14H176.3V23.66
			h14.03c3.1,0,5.75,0.73,7.95,2.19s3.87,3.48,4.99,6.06C204.4,34.49,204.96,37.45,204.96,40.78z M196.39,40.78
			c0-2.92-0.57-5.29-1.71-7.11c-1.14-1.82-2.73-2.73-4.76-2.73h-5.33v20.07h5.01c2,0,3.64-0.88,4.9-2.65
			C195.76,46.6,196.39,44.07,196.39,40.78z"/>
		<path class="st0" d="M231.93,41.54l-4.19,6.32l-3.33,0.51l-5.01-6.83V58.3h-8.29V23.66h5.69l9.34,13.2l8.57-13.2h5.51v34.65h-8.29
			V41.54z"/>
		<path class="st1" d="M153.12,101.02h13.17l0.78,7.29h-22.23V73.66h8.29L153.12,101.02L153.12,101.02z"/>
		<path class="st1" d="M179.58,75.24c0,1.36-0.45,2.53-1.34,3.52c-0.9,0.99-1.97,1.48-3.21,1.48c-1.22,0-2.26-0.49-3.14-1.48
			c-0.88-0.98-1.32-2.16-1.32-3.52c0-1.39,0.44-2.59,1.32-3.59s1.93-1.5,3.14-1.5c1.24,0,2.31,0.5,3.21,1.5
			C179.14,72.65,179.58,73.85,179.58,75.24z M179.22,83.59v24.71h-8.29V83.59H179.22z"/>
		<path class="st1" d="M206.46,109.12c0,2.11-0.51,3.98-1.53,5.63s-2.45,2.94-4.28,3.87c-1.84,0.93-3.96,1.4-6.36,1.4
			c-1.28,0-2.96-0.25-5.06-0.74c-2.1-0.49-3.78-1.2-5.06-2.11l2.51-6.52c1.34,0.75,2.57,1.25,3.69,1.5s2.23,0.38,3.33,0.38
			c1.31,0,2.38-0.33,3.21-0.99c0.83-0.66,1.25-1.49,1.25-2.47v-0.87c-1.12,0.44-2.22,0.66-3.28,0.66c-3.4,0-6.14-1.09-8.22-3.26
			s-3.12-5.38-3.12-9.63c0-4.31,1.06-7.6,3.17-9.86s4.96-3.39,8.54-3.39c2.19,0,4.18,0.81,5.97,2.45l1.09-1.53h4.15V109.12z
			 M198.17,100.97V90.52c-0.88-0.44-1.67-0.66-2.37-0.66c-1.06,0-1.94,0.54-2.64,1.63s-1.05,2.56-1.05,4.43s0.35,3.3,1.05,4.31
			c0.7,1,1.7,1.5,3.01,1.5C196.84,101.73,197.5,101.48,198.17,100.97z"/>
		<path class="st1" d="M236.3,92.36v15.95h-8.29V93.22c0-1.97-0.79-2.96-2.37-2.96c-0.49,0-1.17,0.14-2.05,0.43
			s-1.69,0.62-2.42,0.99v16.61h-8.29v-35.4l8.29-0.56v12.58c2.55-1.43,4.92-2.14,7.11-2.14c2.67,0,4.68,0.88,6.01,2.62
			C235.64,87.15,236.3,89.47,236.3,92.36z"/>
		<path class="st1" d="M251.7,84.61h5.79l0.78,7.29h-6.56v6.11c0,1.02,0.23,1.83,0.71,2.42c0.47,0.59,1.1,0.89,1.89,0.89
			c1.09,0,2.16-0.32,3.19-0.97l2.37,6.32c-0.58,0.54-1.48,1.04-2.71,1.5c-1.23,0.46-2.36,0.69-3.39,0.69c-1.82,0-3.52-0.37-5.1-1.12
			s-2.85-1.86-3.8-3.34c-0.96-1.48-1.43-3.27-1.43-5.38V91.9h-3.42v-7.29h3.42v-6.67l8.29-1.27v7.94H251.7z"/>
		<path class="st0" d="M173.48,140.78c0,3.53-0.62,6.62-1.87,9.27s-2.99,4.69-5.24,6.11c-2.25,1.43-4.81,2.14-7.7,2.14h-13.85
			v-34.65h14.03c3.1,0,5.75,0.73,7.95,2.19s3.86,3.48,4.99,6.06C172.92,134.49,173.48,137.45,173.48,140.78z M164.92,140.78
			c0-2.92-0.57-5.29-1.71-7.11s-2.73-2.73-4.76-2.73h-5.33v20.07h5.01c2,0,3.64-0.88,4.9-2.65
			C164.29,146.6,164.92,144.07,164.92,140.78z"/>
		<path class="st0" d="M189.24,158.87c-3.71,0-6.69-1.11-8.95-3.34c-2.26-2.22-3.39-5.46-3.39-9.71c0-2.68,0.55-5.02,1.66-7.01
			c1.11-1.99,2.61-3.5,4.51-4.54s4.02-1.55,6.36-1.55c2.46,0,4.63,0.51,6.51,1.53c1.88,1.02,3.36,2.53,4.42,4.53
			s1.59,4.43,1.59,7.29c0,2.68-0.55,4.99-1.66,6.93c-1.11,1.94-2.63,3.4-4.56,4.38C193.81,158.37,191.64,158.87,189.24,158.87z
			 M193.39,146.08c0-1.7-0.34-3.09-1.02-4.18c-0.68-1.09-1.63-1.63-2.85-1.63c-1.28,0-2.27,0.49-2.98,1.48
			c-0.71,0.99-1.07,2.34-1.07,4.08c0,1.7,0.33,3.04,1,4.02c0.67,0.99,1.62,1.48,2.87,1.48c1.31,0,2.31-0.44,3.01-1.32
			C193.04,149.12,193.39,147.81,193.39,146.08z"/>
		<path class="st0" d="M216.99,132.73c3.16,0,5.68,0.83,7.56,2.5l-2.32,6.37c-0.88-0.51-1.64-0.86-2.28-1.04
			c-0.64-0.19-1.35-0.28-2.14-0.28c-1.16,0-2.16,0.53-3.03,1.58s-1.3,2.43-1.3,4.13c0,1.67,0.42,2.97,1.28,3.92
			c0.85,0.95,1.87,1.43,3.05,1.43c0.76,0,1.47-0.09,2.14-0.28s1.43-0.53,2.28-1.04l2.32,6.37c-1.88,1.66-4.4,2.5-7.56,2.5
			c-3.64,0-6.57-1.13-8.77-3.39s-3.3-5.43-3.3-9.5c0-2.72,0.51-5.08,1.53-7.08s2.44-3.53,4.26-4.59
			C212.52,133.25,214.62,132.73,216.99,132.73z"/>
		<path class="st0" d="M236.4,158.87c-1.31,0-2.92-0.24-4.85-0.71c-1.93-0.48-3.46-1.21-4.58-2.19l2.32-5.86
			c0.88,0.48,1.95,0.88,3.21,1.22c1.26,0.34,2.29,0.51,3.08,0.51c0.55,0,1-0.1,1.37-0.31c0.37-0.2,0.55-0.48,0.55-0.82
			c0-0.2-0.21-0.45-0.62-0.74c-0.41-0.29-0.93-0.55-1.57-0.79c-2.31-0.92-4.2-2-5.67-3.26s-2.21-2.9-2.21-4.94
			c0-2.58,0.87-4.6,2.6-6.06c1.73-1.46,4.13-2.19,7.2-2.19c1.31,0,2.74,0.2,4.31,0.59c1.56,0.39,2.91,1.08,4.03,2.06l-2.32,5.86
			c-0.91-0.44-1.84-0.8-2.8-1.07s-1.83-0.41-2.62-0.41c-0.67,0-1.22,0.1-1.64,0.31c-0.43,0.2-0.64,0.48-0.64,0.82
			c0,0.2,0.21,0.44,0.64,0.71c0.42,0.27,0.99,0.54,1.69,0.82c2.28,0.88,4.14,1.96,5.58,3.24c1.44,1.27,2.16,2.93,2.16,4.97
			c0,2.62-0.77,4.65-2.32,6.09C241.73,158.14,239.43,158.87,236.4,158.87z"/>
	</g>
</g>
<g>
	<g>
		
			<rect x="36.61" y="123.66" transform="matrix(0.127 -0.9919 0.9919 0.127 -85.7092 157.4935)" class="st2" width="20.02" height="7.55"/>
		
			<rect x="43.65" y="117.32" transform="matrix(0.0479 -0.9989 0.9989 0.0479 -82.7919 167.8001)" class="st0" width="5.94" height="20.02"/>
	</g>
	<path class="st3" d="M100.43,77.54l-5.09,0.43l-5.77,0.48l-5.09,0.43l-5.77,0.49l-5.09,0.43l-5.77,0.49l-5.09,0.43l-5.77,0.49
		l-5.09,0.43l-5.76,0.48l-5.09,0.43l-8.56,0.72c-0.16-0.6-0.36-1.18-0.59-1.74l6.01-3.92l9.13-5.95l2.82-1.84l1.46-0.95l6.31-4.11
		l11.94-7.79l0,0l1.75-1.14l3.1-2.02l13.41-8.74l10.52-6.86L85.99,19.24l-0.28,0.18l0,0l-9.13,5.95l-2.82,1.84l-1.46,0.95
		l-4.85,3.16l0,0l-9.13,5.95l-2.82,1.84l-1.46,0.95l-6.82,4.45l-7.15,4.66l-13.41,8.74l0,0l-9.13,5.95l0,0L7.04,70.71l4.28,6.56
		c-2.72,2.59-4.3,6.34-3.96,10.37c0.53,6.28,5.52,11.12,11.59,11.68l0.27,3.27l0.38,4.49l4.26,50.7l93.92-7.9l-4.27-50.7l-0.38-4.49
		l-1.52-18.08l-0.33,0.03L100.43,77.54z M104.14,81.75l-6.2,14.21l-5.75,0.48l6.2-14.21L104.14,81.75z M93.29,82.66l-6.2,14.21
		l-5.75,0.48l6.2-14.21L93.29,82.66z M82.43,83.57l-6.2,14.21l-5.75,0.48l6.2-14.21L82.43,83.57z M71.58,84.49l-6.2,14.21
		l-5.75,0.48l6.2-14.21L71.58,84.49z M60.72,85.4l-6.2,14.21l-5.75,0.48l6.2-14.21L60.72,85.4z M49.86,86.31l-6.2,14.21L37.91,101
		l6.2-14.21L49.86,86.31z M39.01,87.23l-6.2,14.21l-5.75,0.48l3.41-7.82c1.1-1.5,1.88-3.25,2.24-5.13l0.55-1.27L39.01,87.23z
		 M13.83,81.13c0.98-1.14,2.27-2.01,3.75-2.49c0.38-0.12,0.77-0.22,1.17-0.29c0.22-0.04,0.45-0.07,0.68-0.09
		c1.37-0.12,2.69,0.12,3.88,0.61c0.83,0.34,1.59,0.82,2.27,1.4c1.03,0.9,1.85,2.05,2.34,3.37c0.05,0.13,0.1,0.26,0.14,0.39l0,0
		c0.19,0.58,0.32,1.19,0.37,1.82c0.05,0.61,0.03,1.22-0.05,1.8c-0.02,0.16-0.05,0.31-0.08,0.47c-0.27,1.38-0.87,2.65-1.74,3.7
		c-0.92,1.12-2.12,1.99-3.51,2.52c-0.7,0.26-1.44,0.44-2.22,0.5s-1.54,0.01-2.27-0.13c-3.57-0.69-6.4-3.67-6.72-7.47
		C11.64,84.94,12.42,82.77,13.83,81.13z M83.13,42.76l-4.83,3.15l-1.28-15.45l4.83-3.15L83.13,42.76z M72.72,33.26L74,48.71
		l-4.83,3.15l-1.28-15.45L72.72,33.26z M32.66,75.66l-1.28-15.45l4.83-3.15l1.28,15.45L32.66,75.66z M41.79,69.71l-1.28-15.45
		l4.83-3.15l1.28,15.45L41.79,69.71z M50.91,63.76l-1.28-15.45l4.83-3.15l1.28,15.45L50.91,63.76z M60.04,57.81l-1.28-15.45
		l4.83-3.15l1.28,15.45L60.04,57.81z M28.22,76.63c-1.53-1.25-3.34-2.15-5.31-2.59l-0.65-7.88L27.09,63L28.22,76.63z M23.43,98.94
		c0.01,0,0.02,0,0.03-0.01l-0.03,0.06V98.94z M92.12,36.9l-4.71,3.07l-0.98-11.79L92.12,36.9z M13.26,72.02l4.71-3.07l0.41,4.92
		c-1.17,0.16-2.28,0.47-3.32,0.92L13.26,72.02z M111.82,132.74l-28.28,2.38l0.38,4.49l28.28-2.38l0.72,8.53l-84.95,7.15l-3.89-46.22
		l6.7-0.56l5.09-0.43l5.77-0.48l5.09-0.43l5.77-0.49l5.09-0.43l5.77-0.49l5.09-0.43l5.77-0.49l5.09-0.43l5.76-0.48l5.09-0.43
		l10.86-0.91l8.03-0.68L111.82,132.74L111.82,132.74z M103.04,95.53l4.73-10.85l0.87,10.38C108.65,95.06,103.04,95.53,103.04,95.53z
		"/>
</g>
<rect x="227.2" y="26.79" class="st3" width="42.97" height="8.88"/>
<g>
	<g>
		<path class="st4" d="M230.99,30.22v3.2h-0.74V28.9h0.7l2.22,3.18V28.9h0.75v4.52h-0.71L230.99,30.22z"/>
		<path class="st4" d="M238.98,32.84l0.11,0.58h-3.01V28.9h2.9l0.11,0.58h-2.26v1.35h1.5l0.11,0.58h-1.61v1.41h2.15V32.84z"/>
		<path class="st4" d="M240.29,28.91h3.61l0.11,0.59h-1.55v3.93h-0.76V29.5h-1.42L240.29,28.91L240.29,28.91z"/>
		<path class="st4" d="M249.06,33.43l-0.97-3.45l-0.95,3.45h-0.65l-1.35-4.47l0.74-0.11l0.94,3.56l0.9-3.5h0.74l0.93,3.5l0.9-3.5
			h0.74l-1.33,4.52H249.06z"/>
		<path class="st4" d="M252.37,31.19c0-0.45,0.09-0.86,0.28-1.22s0.44-0.64,0.77-0.85s0.71-0.31,1.13-0.32
			c0.43,0,0.82,0.1,1.15,0.31c0.33,0.2,0.59,0.48,0.77,0.84s0.27,0.75,0.27,1.2c0,0.46-0.09,0.86-0.28,1.22s-0.45,0.64-0.78,0.84
			c-0.33,0.2-0.71,0.31-1.14,0.31s-0.81-0.1-1.14-0.3s-0.58-0.48-0.76-0.83S252.37,31.63,252.37,31.19z M254.56,29.44
			c-0.26,0-0.5,0.07-0.72,0.22s-0.39,0.35-0.51,0.62s-0.19,0.57-0.19,0.9s0.06,0.62,0.17,0.88s0.28,0.46,0.49,0.61
			s0.45,0.22,0.73,0.22c0.27,0,0.51-0.07,0.72-0.21s0.38-0.34,0.51-0.61s0.19-0.57,0.19-0.93c0-0.33-0.06-0.62-0.17-0.88
			s-0.28-0.46-0.49-0.6C255.08,29.51,254.83,29.44,254.56,29.44z"/>
		<path class="st4" d="M258.56,33.43v-4.52h1.35c0.52,0,0.94,0.11,1.26,0.34s0.48,0.57,0.48,1.02c0,0.28-0.07,0.52-0.21,0.72
			c-0.14,0.2-0.33,0.36-0.57,0.47l1.12,1.97h-0.8l-0.98-1.78c-0.09,0.01-0.21,0.02-0.37,0.02h-0.54v1.76
			C259.3,33.43,258.56,33.43,258.56,33.43z M260.88,30.3c0-0.27-0.08-0.47-0.25-0.59s-0.41-0.18-0.72-0.18h-0.59v1.52h0.58
			c0.3,0,0.54-0.06,0.72-0.18S260.88,30.57,260.88,30.3z"/>
		<path class="st4" d="M264.4,31.94v1.49h-0.74v-4.52h0.74v1.99l2.01-2.09l0.54,0.43l-1.57,1.67l1.89,2.52h-0.92l-1.48-1.99
			L264.4,31.94z"/>
	</g>
</g>
</svg>
